<?xml version="1.0" encoding="utf-8"?>
<!-- Generator: Adobe Illustrator 26.3.1, SVG Export Plug-In . SVG Version: 6.00 Build 0)  -->
<svg version="1.1" id="Layer_1" xmlns="http://www.w3.org/2000/svg" xmlns:xlink="http://www.w3.org/1999/xlink" x="0px" y="0px"
	 viewBox="0 0 400 400" style="enable-background:new 0 0 400 400;" xml:space="preserve">
<style type="text/css">
	.st0{fill:#7E37C3;}
</style>
<g>
	<path class="st0" d="M79.5,276.1c0-0.4,0-0.9,0.1-1.4c0-0.5,0.1-1.1,0.2-1.8c0.1-0.7,0.1-1.3,0.2-2c0.1-0.7,0.2-1.3,0.3-1.9
		c0.1-0.3,0.2-0.6,0.3-0.8c0.1-0.2,0.4-0.3,0.8-0.3h5.1c0.6,0,0.9,0.3,0.9,0.9c-0.1,0.7-0.1,1.4-0.2,2.1c-0.1,0.7-0.1,1.2-0.1,1.7
		c0,1.9,0.1,3.5,0.3,5.1c0.2,1.5,0.7,2.8,1.4,3.9c0.7,1.1,1.7,1.9,2.9,2.5c1.3,0.6,3,0.9,5.1,0.9c0.9,0,1.6,0,2.2-0.1
		c0.6-0.1,1.2-0.1,1.9-0.2c0-0.8,0.1-1.5,0.1-2.1c0-0.6,0-1.2,0.1-1.8c0-0.6,0-1.1,0-1.7s0-1.2,0-1.9v-3.9c0-4.1,1.2-7.2,3.7-9.1
		c2.5-2,6.1-2.9,10.9-2.9c1.3,0,2.7,0.1,4.2,0.2c1.5,0.1,2.7,0.3,3.6,0.5c0.3,0.1,0.5,0.2,0.7,0.3c0.2,0.1,0.3,0.4,0.3,0.8v19.8
		c0,0.3-0.1,0.6-0.3,0.8c-0.2,0.2-0.5,0.3-0.8,0.3h-5.8c-0.3,0-0.5-0.1-0.7-0.3s-0.3-0.5-0.3-0.8v-14.1c-0.5-0.1-1-0.1-1.2-0.1
		c-0.3,0-0.6,0-1,0c-1.8,0-3.1,0.4-4,1.2c-0.8,0.8-1.3,2.3-1.3,4.3v8c0,1.4,0,2.9-0.1,4.4c0,1.5-0.1,2.9-0.2,4.3
		c0,0.6-0.4,1-1.1,1.1c-1.5,0.3-3.3,0.5-5.2,0.6c-1.9,0.1-3.9,0.2-5.9,0.2c-5.8,0-10.1-1.3-13-4C80.9,286.1,79.5,281.9,79.5,276.1z
		 M86.2,297.1c0-0.3,0.1-0.6,0.4-0.8c0.2-0.2,0.5-0.3,0.9-0.3h4.4c0.3,0,0.6,0.1,0.8,0.3c0.2,0.2,0.4,0.5,0.4,0.8v4.4
		c0,0.2-0.1,0.5-0.4,0.7c-0.3,0.2-0.5,0.3-0.8,0.3h-4.4c-0.3,0-0.6-0.1-0.9-0.3c-0.2-0.2-0.4-0.4-0.4-0.7V297.1z M96.5,297.1
		c0-0.3,0.1-0.6,0.4-0.8c0.2-0.2,0.5-0.3,0.8-0.3h4.5c0.3,0,0.5,0.1,0.8,0.3c0.2,0.2,0.4,0.5,0.4,0.8v4.4c0,0.2-0.1,0.5-0.4,0.7
		c-0.2,0.2-0.5,0.3-0.8,0.3h-4.5c-0.3,0-0.5-0.1-0.8-0.3c-0.2-0.2-0.4-0.4-0.4-0.7V297.1z"/>
	<path class="st0" d="M130.3,277c0-0.3,0.1-0.5,0.3-0.7c0.2-0.2,0.4-0.3,0.7-0.3h12.9l-0.1-3.7c-0.1-1.1-0.2-2.1-0.5-3
		c-0.3-0.9-0.8-1.7-1.4-2.3c-0.6-0.6-1.5-1.1-2.5-1.5c-1.1-0.4-2.4-0.5-4-0.5c-0.1,0-0.3,0-0.6,0c-0.3,0-0.6,0-0.9,0
		c-0.3,0-0.7,0-1,0c-0.3,0-0.6,0-0.7,0.1c-0.6,0-0.9-0.3-0.9-0.8v-4.8c0-0.3,0.1-0.5,0.3-0.7c0.2-0.2,0.4-0.4,0.8-0.4
		c1-0.2,2-0.3,3.1-0.3c1.1-0.1,1.9-0.1,2.4-0.1c2.7,0,4.9,0.4,6.6,1.3c1.7,0.8,3.1,1.9,4.2,3.3c1.1,1.4,1.8,2.9,2.3,4.6
		c0.4,1.7,0.7,3.5,0.8,5.3l0.1,3.7h3.1v8h-23.8c-0.3,0-0.5-0.1-0.7-0.3c-0.2-0.2-0.3-0.4-0.3-0.7V277z"/>
	<path class="st0" d="M151.7,289.5c0-0.3,0.1-0.6,0.4-0.8c0.2-0.2,0.5-0.3,0.9-0.3h4.5c0.3,0,0.6,0.1,0.9,0.3
		c0.3,0.2,0.4,0.5,0.4,0.8v4.9c0,0.3-0.1,0.5-0.4,0.7c-0.3,0.2-0.6,0.3-0.9,0.3h-4.5c-0.3,0-0.6-0.1-0.9-0.3
		c-0.2-0.2-0.4-0.5-0.4-0.7V289.5z M153,276.6c0-0.2,0.2-0.3,0.6-0.4c0.4-0.1,0.7-0.2,1.1-0.2h3c0.8,0,1.3-0.1,1.5-0.2
		c0.3-0.1,0.4-0.6,0.4-1.4c0-1.6,0-3.6,0-5.8c0-2.2,0-4.5-0.1-6.8c0-0.3,0.1-0.5,0.3-0.7c0.2-0.2,0.4-0.3,0.7-0.3h5.7
		c0.4,0,0.7,0.1,0.8,0.3c0.2,0.2,0.3,0.4,0.3,0.7c0,1.1,0.1,2,0.1,2.9c0,0.9,0,1.7,0.1,2.5c0,0.8,0,1.5,0,2.3c0,0.8,0,1.6,0,2.4
		c0,2.5,0,4.6-0.1,6.1c0,1.6-0.1,2.8-0.2,3.8c-0.1,0.3-0.2,0.6-0.3,0.9c-0.2,0.2-0.4,0.4-0.8,0.6c-0.4,0.1-1,0.2-1.7,0.3
		c-0.7,0.1-1.5,0.2-2.4,0.2c-0.9,0.1-1.8,0.1-2.7,0.1c-0.9,0-1.8,0-2.5,0h-2c-0.3,0-0.7-0.1-1.1-0.2c-0.4-0.1-0.6-0.2-0.6-0.4V276.6
		z M162.1,289.5c0-0.3,0.1-0.6,0.4-0.8c0.3-0.2,0.6-0.3,0.9-0.3h4.5c0.3,0,0.6,0.1,0.9,0.3c0.2,0.2,0.4,0.5,0.4,0.8v4.9
		c0,0.3-0.1,0.5-0.4,0.7c-0.2,0.2-0.5,0.3-0.9,0.3h-4.5c-0.3,0-0.6-0.1-0.9-0.3c-0.3-0.2-0.4-0.5-0.4-0.7V289.5z"/>
	<path class="st0" d="M174.8,245.6c0-0.3,0.1-0.6,0.3-0.8c0.2-0.2,0.5-0.3,0.8-0.3h5.9c0.3,0,0.6,0.1,0.8,0.3s0.3,0.5,0.3,0.8v37.3
		c0,0.3-0.1,0.5-0.3,0.7s-0.5,0.3-0.8,0.3h-5.9c-0.3,0-0.6-0.1-0.8-0.3c-0.2-0.2-0.3-0.5-0.3-0.7V245.6z"/>
	<path class="st0" d="M202.5,271.1c0-4.3,1.3-7.6,3.8-9.9c2.5-2.3,6.2-3.4,11-3.4c0.7,0,1.4,0,2.1,0.1c0.8,0,1.5,0.1,2.2,0.2
		c0.7,0.1,1.3,0.2,1.9,0.3c0.6,0.1,1.1,0.2,1.4,0.3c0.4,0.1,0.6,0.3,0.7,0.4c0.1,0.1,0.2,0.3,0.2,0.6v14c0,1,0.2,1.6,0.6,2
		c0.4,0.3,1.1,0.5,2.1,0.5h1.7v8h-2.8c-1.5,0-2.9-0.2-4.2-0.6s-2.4-1.1-3.2-2.2c-0.9,0.5-1.9,0.9-3,1.2c-1.1,0.3-2.1,0.4-3.2,0.4
		h-0.5c-1.5,0-3-0.2-4.3-0.6c-1.4-0.4-2.5-1-3.5-1.9c-1-0.9-1.8-2-2.4-3.3c-0.6-1.4-0.8-3-0.8-4.9V271.1z M206,247.5
		c0-0.3,0.1-0.6,0.4-0.8c0.2-0.2,0.5-0.3,0.9-0.3h4.5c0.3,0,0.6,0.1,0.9,0.3c0.3,0.2,0.4,0.5,0.4,0.8v4.9c0,0.3-0.1,0.6-0.4,0.8
		c-0.3,0.2-0.6,0.3-0.9,0.3h-4.5c-0.3,0-0.6-0.1-0.9-0.3c-0.2-0.2-0.4-0.5-0.4-0.8V247.5z M210.1,270.8c0,1.7,0.3,2.9,1.1,3.5
		c0.7,0.7,1.7,1,3.1,1h0.6c0.9,0,1.7-0.2,2.2-0.5c0.6-0.3,0.8-0.9,0.8-1.6v-8.3c-0.3-0.1-0.6-0.1-0.9-0.1s-0.7,0-1,0
		c-1.9,0-3.3,0.5-4.3,1.4c-1,0.9-1.6,2.2-1.6,3.9V270.8z M216.4,247.5c0-0.3,0.1-0.6,0.4-0.8c0.3-0.2,0.6-0.3,0.9-0.3h4.5
		c0.3,0,0.6,0.1,0.9,0.3c0.2,0.2,0.4,0.5,0.4,0.8v4.9c0,0.3-0.1,0.6-0.4,0.8c-0.2,0.2-0.5,0.3-0.9,0.3h-4.5c-0.3,0-0.6-0.1-0.9-0.3
		c-0.3-0.2-0.4-0.5-0.4-0.8V247.5z"/>
	<path class="st0" d="M228.4,276.6c0-0.2,0.2-0.3,0.6-0.4c0.4-0.1,0.7-0.2,1.1-0.2h5.1c-1.1-1.2-1.7-3.1-1.7-5.6v-0.8
		c0-2,0.3-3.7,1-5.2c0.7-1.5,1.7-2.7,2.9-3.7c1.3-1,2.7-1.7,4.5-2.2c1.7-0.5,3.6-0.7,5.7-0.7c0.7,0,1.5,0,2.4,0.1
		c0.9,0.1,1.7,0.1,2.5,0.2c0.8,0.1,1.5,0.2,2.2,0.3c0.7,0.1,1.2,0.2,1.6,0.3c0.4,0.1,0.6,0.2,0.7,0.4c0.1,0.2,0.2,0.4,0.2,0.7v13.8
		c0,1.3,0,2.8-0.1,4.5c0,1.7-0.1,3.3-0.3,4.8c0,0.3-0.2,0.6-0.4,0.7c-0.2,0.1-0.5,0.2-0.8,0.3c-1.5,0.1-2.9,0.1-4.2,0.2
		c-1.4,0-2.7,0.1-4.1,0.1H230c-0.3,0-0.7-0.1-1.1-0.2c-0.4-0.1-0.6-0.2-0.6-0.4V276.6z M237.2,247.2c0-0.3,0.1-0.6,0.4-0.8
		c0.2-0.2,0.5-0.3,0.9-0.3h4.5c0.3,0,0.6,0.1,0.9,0.3s0.4,0.5,0.4,0.8v4.9c0,0.3-0.1,0.6-0.4,0.8c-0.3,0.2-0.6,0.3-0.9,0.3h-4.5
		c-0.3,0-0.6-0.1-0.9-0.3c-0.2-0.2-0.4-0.5-0.4-0.8V247.2z M241.3,270.8c0,1.8,0.4,3.2,1.2,4.1c0.8,0.9,2,1.4,3.6,1.4
		c0.2,0,0.4,0,0.7,0c0.3,0,0.6,0,0.9,0s0.6,0,0.9,0s0.5,0,0.7-0.1v-11.4c-0.8-0.1-1.6-0.2-2.6-0.2c-3.6,0-5.3,1.7-5.3,5.2V270.8z
		 M247.6,247.2c0-0.3,0.1-0.6,0.4-0.8c0.3-0.2,0.6-0.3,0.9-0.3h4.5c0.3,0,0.6,0.1,0.9,0.3c0.2,0.2,0.4,0.5,0.4,0.8v4.9
		c0,0.3-0.1,0.6-0.4,0.8c-0.2,0.2-0.5,0.3-0.9,0.3h-4.5c-0.3,0-0.6-0.1-0.9-0.3c-0.3-0.2-0.4-0.5-0.4-0.8V247.2z"/>
	<path class="st0" d="M264.5,245.6c0-0.3,0.1-0.6,0.3-0.8c0.2-0.2,0.5-0.3,0.8-0.3h5.9c0.3,0,0.6,0.1,0.8,0.3
		c0.2,0.2,0.3,0.5,0.3,0.8v28.1c0,1,0.2,1.6,0.6,1.9c0.4,0.3,1.1,0.4,2,0.4h1.9v8h-4.3c-1.2,0-2.4-0.1-3.4-0.3
		c-1-0.2-1.9-0.6-2.6-1.1c-0.7-0.5-1.3-1.3-1.7-2.3c-0.4-1-0.6-2.3-0.6-4V245.6z"/>
	<path class="st0" d="M275,276.6c0-0.2,0.2-0.3,0.6-0.4c0.4-0.1,0.7-0.2,1.1-0.2h5.3v-30.4c0-0.3,0.1-0.6,0.3-0.8
		c0.2-0.2,0.5-0.3,0.7-0.3h6c0.3,0,0.6,0.1,0.8,0.3c0.2,0.2,0.3,0.5,0.3,0.8v14.8c0.9-0.6,1.9-1.1,2.9-1.4s2.1-0.6,3.1-0.8
		c1-0.2,2-0.3,2.9-0.3c0.9-0.1,1.7-0.1,2.3-0.1c2.2,0,4.2,0.2,6.1,0.7c1.9,0.5,3.4,1.3,4.7,2.4c1.3,1.1,2.3,2.6,3.1,4.4
		s1.1,4.1,1.1,6.7v1.2c0,0.3,0,0.8,0,1.4c0,0.6-0.1,1-0.2,1.3h4.1v8h-43.6c-0.3,0-0.7-0.1-1.1-0.2c-0.4-0.1-0.6-0.2-0.6-0.4V276.6z
		 M307.1,276.2c0.4,0,0.7-0.2,0.9-0.5c0.2-0.4,0.3-1.1,0.3-2.1v-0.8c0-2.6-0.7-4.5-2.1-5.6c-1.4-1.1-3.8-1.6-7.1-1.6
		c-0.6,0-1.3,0-2.1,0.1c-0.8,0-1.6,0.1-2.4,0.2s-1.7,0.3-2.5,0.6c-0.8,0.3-1.5,0.6-2.1,1v8.7c0.7,0,1.5,0.1,2.5,0.1
		c0.9,0,2.1,0,3.4,0H307.1z"/>
	<path class="st0" d="M318.1,276.6c0-0.2,0.2-0.3,0.6-0.4c0.4-0.1,0.7-0.2,1.1-0.2h3c0.8,0,1.3-0.1,1.5-0.2c0.3-0.1,0.4-0.6,0.4-1.4
		c0-1.6,0-3.6,0-5.8c0-2.2,0-4.5-0.1-6.8c0-0.3,0.1-0.5,0.3-0.7c0.2-0.2,0.4-0.3,0.7-0.3h5.7c0.4,0,0.7,0.1,0.8,0.3
		c0.2,0.2,0.3,0.4,0.3,0.7c0,1.1,0.1,2,0.1,2.9c0,0.9,0,1.7,0.1,2.5c0,0.8,0,1.5,0,2.3c0,0.8,0,1.6,0,2.4c0,2.5,0,4.6-0.1,6.1
		c0,1.6-0.1,2.8-0.2,3.8c-0.1,0.3-0.2,0.6-0.3,0.9c-0.2,0.2-0.4,0.4-0.8,0.6c-0.4,0.1-1,0.2-1.7,0.3c-0.7,0.1-1.5,0.2-2.4,0.2
		c-0.9,0.1-1.8,0.1-2.7,0.1s-1.8,0-2.5,0h-2c-0.3,0-0.7-0.1-1.1-0.2c-0.4-0.1-0.6-0.2-0.6-0.4V276.6z M321,289.5
		c0-0.3,0.1-0.6,0.4-0.8c0.3-0.2,0.5-0.3,0.8-0.3h5.1c0.3,0,0.6,0.1,0.9,0.3c0.3,0.2,0.4,0.5,0.4,0.8v4.9c0,0.3-0.1,0.5-0.4,0.7
		c-0.3,0.2-0.6,0.3-0.9,0.3h-5.1c-0.3,0-0.6-0.1-0.8-0.3c-0.3-0.2-0.4-0.5-0.4-0.7V289.5z"/>
</g>
<g>
	<path class="st0" d="M139.5,353.5c0,0.6-0.3,1-1,1.1c-0.9,0.1-2.1,0.3-3.6,0.4c-1.5,0.2-3.6,0.2-6.4,0.2c-1.6,0-3.2-0.1-4.7-0.4
		c-1.5-0.3-2.8-0.8-4-1.6c-1.2-0.8-2.1-1.9-2.8-3.4s-1-3.4-1-5.7v-17.1c0-2.3,0.3-4.2,1-5.7c0.7-1.4,1.6-2.6,2.8-3.3
		c1.2-0.8,2.5-1.3,4-1.6c1.5-0.3,3.1-0.4,4.8-0.4c1.4,0,2.6,0,3.6,0.1c1,0.1,2,0.1,2.8,0.2c0.8,0.1,1.5,0.1,2,0.2
		c0.6,0.1,1.1,0.1,1.5,0.2c0.7,0.1,1,0.4,1,1v4.8c0,0.3-0.1,0.5-0.3,0.7c-0.2,0.2-0.4,0.3-0.7,0.3H128c-1.2,0-2,0.2-2.5,0.7
		c-0.5,0.5-0.7,1.4-0.7,2.8v4.7H138c0.3,0,0.5,0.1,0.7,0.3c0.2,0.2,0.3,0.4,0.3,0.7v4.9c0,0.3-0.1,0.5-0.3,0.7
		c-0.2,0.2-0.4,0.3-0.7,0.3h-13.3v5.5c0,1.3,0.2,2.3,0.7,2.8c0.5,0.5,1.3,0.7,2.5,0.7h10.4c0.3,0,0.5,0.1,0.7,0.3
		c0.2,0.2,0.3,0.4,0.3,0.7V353.5z"/>
	<path class="st0" d="M174.7,339c0,2.7-0.4,5.1-1.1,7.1c-0.8,2-1.8,3.7-3.2,5.1c-1.4,1.4-3.1,2.4-5.1,3c-2,0.7-4.3,1-6.9,1
		c-1.1,0-2.1,0-3.2-0.1c-1.1-0.1-2.1-0.1-3.1-0.2c-1-0.1-1.9-0.1-2.7-0.2c-0.8-0.1-1.5-0.2-2-0.3c-0.5-0.1-0.8-0.2-1.1-0.5
		c-0.3-0.3-0.4-0.7-0.4-1.3v-34c0-0.6,0.1-1,0.4-1.3c0.3-0.3,0.6-0.4,1.1-0.5c0.5-0.1,1.2-0.2,2-0.3c0.8-0.1,1.7-0.2,2.7-0.2
		c1-0.1,2-0.1,3.1-0.2c1.1-0.1,2.2-0.1,3.2-0.1c2.6,0,4.9,0.3,6.9,1c2,0.7,3.7,1.7,5.1,3c1.4,1.4,2.5,3.1,3.2,5.1
		c0.8,2,1.1,4.4,1.1,7.1V339z M165.9,332.4c0-1.7-0.2-3.2-0.5-4.3s-0.9-2-1.5-2.7c-0.7-0.7-1.5-1.1-2.4-1.4c-0.9-0.3-2-0.4-3.1-0.4
		c-0.7,0-1.3,0-2,0c-0.7,0-1.2,0-1.6,0.1v24c0.4,0,0.9,0.1,1.6,0.1c0.7,0,1.4,0,2,0c1.2,0,2.2-0.1,3.1-0.4c0.9-0.3,1.7-0.7,2.4-1.4
		c0.7-0.7,1.2-1.6,1.5-2.7c0.4-1.1,0.5-2.6,0.5-4.3V332.4z"/>
	<path class="st0" d="M217.5,353.2c0,0.4-0.1,0.6-0.3,0.8c-0.2,0.2-0.5,0.3-0.8,0.4c-0.5,0.2-1.5,0.4-2.9,0.6s-3,0.3-4.8,0.3
		c-2,0-3.8-0.3-5.7-0.8c-1.8-0.5-3.5-1.5-4.9-2.8c-1.4-1.3-2.5-3-3.4-5.1c-0.9-2.1-1.3-4.7-1.3-7.7v-6.5c0-3,0.4-5.6,1.3-7.7
		c0.9-2.1,2-3.8,3.4-5c1.4-1.3,3-2.2,4.9-2.7c1.8-0.5,3.7-0.8,5.7-0.8c1.8,0,3.4,0.1,4.8,0.3c1.4,0.2,2.3,0.4,2.9,0.6
		c0.4,0.1,0.7,0.2,0.8,0.4c0.2,0.1,0.3,0.4,0.3,0.8v5c0,0.7-0.3,1-1,1h-0.2c-1-0.1-2.2-0.2-3.5-0.3c-1.3-0.1-2.7-0.2-4.1-0.2
		c-0.9,0-1.7,0.1-2.5,0.4c-0.8,0.3-1.4,0.7-2,1.4c-0.6,0.7-1,1.6-1.4,2.7c-0.3,1.1-0.5,2.5-0.5,4.2v6.5c0,1.7,0.2,3.1,0.5,4.2
		c0.3,1.1,0.8,2,1.4,2.7c0.6,0.7,1.3,1.1,2,1.4s1.6,0.4,2.5,0.4c1.4,0,2.8-0.1,4.1-0.2c1.3-0.1,2.5-0.2,3.5-0.3h0.2c0.7,0,1,0.3,1,1
		V353.2z"/>
	<path class="st0" d="M245.4,353.8c0,0.3-0.1,0.5-0.3,0.7c-0.2,0.2-0.4,0.3-0.7,0.3h-5.8c-0.3,0-0.5-0.1-0.7-0.3s-0.3-0.4-0.3-0.7
		V353c-1,0.7-2,1.3-3.2,1.7c-1.1,0.4-2.4,0.6-4,0.6c-1.1,0-2.2-0.1-3.3-0.4c-1-0.3-2-0.8-2.8-1.5c-0.8-0.7-1.5-1.6-2-2.7
		c-0.5-1.1-0.7-2.5-0.7-4.2V346c0-3,1-5.2,3-6.6c2-1.4,5.2-2.1,9.6-2.1h2.8v-1.9c0-1.5-0.3-2.4-1-2.9c-0.7-0.4-1.6-0.7-2.8-0.7
		c-0.8,0-1.7,0-2.5,0s-1.6,0-2.4,0.1c-0.8,0-1.5,0.1-2.1,0.1c-0.6,0.1-1.1,0.1-1.5,0.1h-0.3c-0.3,0-0.5-0.1-0.7-0.2
		c-0.2-0.1-0.3-0.4-0.3-0.7v-4.2c0-0.6,0.3-1,1-1.1c1-0.2,2.3-0.5,3.9-0.7c1.6-0.2,3.3-0.4,5-0.4c1.9,0,3.5,0.2,5,0.6
		c1.5,0.4,2.8,1,3.8,1.9c1,0.8,1.8,1.9,2.4,3.2c0.6,1.3,0.8,2.9,0.8,4.8V353.8z M237.2,342.2h-2.9c-0.9,0-1.6,0.1-2.2,0.2
		s-1,0.4-1.4,0.7c-0.3,0.3-0.6,0.7-0.7,1.2c-0.1,0.5-0.2,1-0.2,1.6v0.5c0,1.1,0.3,1.8,0.8,2.1c0.5,0.3,1.3,0.5,2.4,0.5
		c0.8,0,1.5-0.1,2.2-0.3c0.7-0.2,1.4-0.5,2-0.8V342.2z"/>
	<path class="st0" d="M267.7,330.9c0,0.2-0.1,0.5-0.2,0.7c-0.1,0.2-0.3,0.3-0.6,0.3h-0.4c-1.3,0-2.5,0.2-3.5,0.5
		c-1.1,0.3-2.1,0.8-3.1,1.3v20.1c0,0.3-0.1,0.5-0.3,0.7c-0.2,0.2-0.4,0.3-0.7,0.3h-6.2c-0.3,0-0.5-0.1-0.7-0.3s-0.3-0.5-0.3-0.7
		v-27.4c0-0.3,0.1-0.5,0.3-0.7c0.2-0.2,0.4-0.3,0.7-0.3h6.1c0.3,0,0.5,0.1,0.7,0.3c0.2,0.2,0.3,0.4,0.3,0.7v1c1-0.8,2-1.4,3.3-1.8
		c1.2-0.4,2.4-0.6,3.7-0.6c0.3,0,0.5,0.1,0.7,0.3c0.2,0.2,0.3,0.4,0.3,0.7V330.9z"/>
	<path class="st0" d="M295.5,352.4c0,0.4-0.1,0.7-0.3,0.9c-0.2,0.2-0.6,0.4-1.3,0.6c-1.5,0.4-3.2,0.7-5.1,1s-3.9,0.4-5.9,0.4
		c-4.2,0-7.4-1.1-9.6-3.4c-2.2-2.3-3.3-5.5-3.3-9.7v-4c0-4,1.1-7.2,3.2-9.6c2.1-2.4,5.4-3.5,9.7-3.5c0.5,0,1.2,0,1.9,0.1
		c0.8,0.1,1.5,0.2,2.3,0.3v-8.9c0-0.3,0.1-0.5,0.3-0.7c0.2-0.2,0.4-0.3,0.7-0.3h6.2c0.3,0,0.5,0.1,0.7,0.3c0.2,0.2,0.3,0.4,0.3,0.7
		V352.4z M287.2,332.1c-0.6-0.1-1.3-0.1-2.1-0.2c-0.8-0.1-1.5-0.1-2.1-0.1c-0.9,0-1.7,0.2-2.3,0.5c-0.6,0.3-1,0.7-1.4,1.3
		c-0.3,0.6-0.6,1.2-0.7,2c-0.1,0.8-0.2,1.6-0.2,2.5v4c0,0.9,0.1,1.8,0.2,2.5c0.1,0.8,0.4,1.4,0.7,2c0.3,0.6,0.8,1,1.4,1.3
		s1.3,0.5,2.3,0.5c0.9,0,1.7,0,2.4-0.1c0.7-0.1,1.3-0.1,1.8-0.2V332.1z"/>
</g>
<g>
	<path class="st0" d="M296.8,69.7l10.7,1.2c0.6,0.1,1.1-0.3,1-1c0,0-0.1-0.7-0.2-1.7c-0.4-3-1.3-7.5-1.3-7.5
		c-0.1-0.6-0.7-1.3-1.4-1.4l-9.9-2.2c-0.6-0.1-1.1,0.3-1,0.9l0.9,10.3C295.6,69.1,296.2,69.7,296.8,69.7z"/>
	<path class="st0" d="M316.5,81.3c0,0-2.6-3.8-4.4-6.1c-0.6-0.7-1.1-1.3-1.1-1.3c-0.4-0.5-1-0.5-1.4,0.1l-6.6,8.6
		c-0.4,0.5-0.4,1.3,0.1,1.7l6.8,7.8c0.4,0.5,1,0.5,1.4-0.1l5.3-8.6C316.9,82.7,316.8,81.8,316.5,81.3z"/>
	<path class="st0" d="M297.8,128.3c0.4-0.5,0.4-1.3,0.1-1.8l-3-3.8l5.2-0.7c0.6-0.1,1.2-0.7,1.2-1.3c0,0,0.3-5.5,0.2-8.9
		c0-0.7,0-0.8,0-0.8c0-0.6-0.6-1.1-1.2-1.1l-8.9,0.3v-1.3c0.2,0,0.5-0.1,0.6-0.3l6.7-7.9c0.4-0.5,0.4-1.3,0-1.8l-6.8-7.8
		c-0.1-0.1-0.1-0.1-0.2-0.2l8.4,0.1c0.6,0,1.2-0.5,1.2-1.1c0,0,0-0.2,0-0.8c0-3.5-0.4-8.9-0.4-8.9c0-0.6-0.6-1.2-1.2-1.3l-4.7-0.5
		l3.4-4.5c0.4-0.5,0.3-1.3-0.1-1.8c0,0-3.7-4.1-6.2-6.5c-0.5-0.5-0.6-0.6-0.6-0.6c0,0-0.1,0-0.1,0V45.8c-0.3-3.8-3.5-7.1-7.4-7.1
		H127.9c-3.8,0-7.1,3.2-7.1,7.1v12.6c0,0-0.1,0-0.1,0c0,0-0.1,0.1-0.6,0.6c-2.5,2.4-6,6.6-6,6.6c-0.4,0.5-0.4,1.3-0.1,1.8l3,3.8
		l-5.2,0.7c-0.6,0.1-1.2,0.7-1.2,1.3c0,0-0.3,5.5-0.2,8.9c0,0.7,0,0.8,0,0.8c0,0.6,0.6,1.1,1.2,1.1l9.2-0.3V85c-0.3,0-0.7,0-0.9,0.3
		l-6.7,7.9c-0.4,0.5-0.4,1.3,0,1.8l6.8,7.8c0.1,0.1,0.1,0.1,0.2,0.2l-8.4-0.1c-0.6,0-1.2,0.5-1.2,1.1c0,0,0,0.2,0,0.8
		c0,3.5,0.4,8.9,0.4,8.9c0,0.6,0.6,1.2,1.2,1.3l4.7,0.5l-3.4,4.5c-0.4,0.5-0.3,1.3,0.1,1.8c0,0,3.7,4.1,6.2,6.5
		c0.5,0.5,0.6,0.6,0.6,0.6c0.1,0.1,0.3,0.1,0.4,0.2v14.9c0,3.8,3.2,7.1,7.1,7.1h156.4c3.8,0,7.1-3.2,7.1-7.1v-8.6
		c0.1-0.1,0.2-0.2,0.4-0.4C294.2,132.5,297.8,128.3,297.8,128.3z M198.6,133.9h-53.1c-1.6,0-2.9-1.3-2.9-2.9c0-1.6,1.3-2.9,2.9-2.9
		h53.1c1.6,0,2.9,1.3,2.9,2.9C201.5,132.6,200.2,133.9,198.6,133.9z M142.6,118.5c0-1.6,1.3-2.9,2.9-2.9h26.5c1.6,0,2.9,1.3,2.9,2.9
		c0,1.6-1.3,2.9-2.9,2.9h-26.5C143.9,121.4,142.6,120.1,142.6,118.5z M244.9,79.2c1.1-2.7,3.7-4.5,6.8-4.5c4,0,7.3,3.3,7.3,7.3
		c0,4-3.3,7.3-7.3,7.3c-3.1,0-5.7-1.9-6.8-4.5h-12.3l8.7,15.2h15.6c1.1-2.7,3.7-4.5,6.8-4.5c4,0,7.3,3.3,7.3,7.3
		c0,4-3.3,7.3-7.3,7.3c-3,0-5.7-1.9-6.8-4.5h-17.1c-1,0-1.9-0.5-2.4-1.4l-11-19.3h-54.4v1.4c0,3.5-2.8,6.1-6.1,6.1h-18.4
		c-3.3,0-6.1-2.8-6.1-6.1V75.4c0-3.3,2.8-6.1,6.1-6.1h18.4c3.3,0,6.1,2.8,6.1,6.1v3.8h35.5l11-19.3c0.5-0.9,1.4-1.4,2.4-1.4h36
		c1.1-2.6,3.7-4.5,6.7-4.5c4,0,7.3,3.3,7.3,7.3c0,4-3.3,7.3-7.3,7.3c-3.1,0-5.7-1.9-6.8-4.6h-34.4l-8.7,15.2H244.9z"/>
	<path class="st0" d="M310.4,108.5c-0.4-0.5-1-0.5-1.4,0l-6.7,7.9c-0.4,0.5-0.4,1.3,0,1.7l6.7,8.5c0.4,0.5,1,0.5,1.4,0
		c0,0,0.5-0.6,1-1.3c1.8-2.4,4.3-6.2,4.3-6.2c0.3-0.5,0.4-1.4,0-2L310.4,108.5z"/>
	<path class="st0" d="M312,157.1l-9.9,2.3c-0.6,0.1-1.2,0.7-1.3,1.4l-2.2,9.9c-0.2,0.6,0.2,1,0.8,0.8c0,0,1.1-0.3,2.1-0.6
		c2.9-0.8,6.9-2.5,6.9-2.5c0.6-0.2,1.3-0.9,1.5-1.5c0,0,1.6-4.1,2.4-7c0.3-1.1,0.5-2.1,0.5-2.1C313,157.3,312.6,156.9,312,157.1z"/>
	<path class="st0" d="M307.7,140.1c0,0,0.9-4.5,1.2-7.5c0.1-0.9,0.2-1.7,0.2-1.7c0.1-0.6-0.4-1.1-1-1l-10.7,1.4
		c-0.6,0.1-1.2,0.6-1.2,1.3l-0.7,10.3c-0.1,0.6,0.4,1.1,1,0.9l9.9-2.3C306.9,141.4,307.5,140.7,307.7,140.1z"/>
	<path class="st0" d="M108.8,109.7l-6.8-7.8c-0.4-0.5-1-0.5-1.4,0.1l-5.3,8.6c-0.3,0.6-0.3,1.4,0.1,2c0,0,2.6,3.8,4.4,6.1
		c0.6,0.7,1.1,1.3,1.1,1.3c0.4,0.5,1,0.5,1.4-0.1l6.6-8.6C109.2,110.9,109.2,110.2,108.8,109.7z"/>
	<path class="st0" d="M104.1,53.8c0,0-0.9,4.5-1.2,7.5c-0.1,0.9-0.2,1.7-0.2,1.7c-0.1,0.6,0.4,1.1,1,1l10.7-1.4
		c0.6-0.1,1.2-0.6,1.2-1.3l0.7-10.3c0.1-0.6-0.4-1.1-1-0.9l-9.9,2.3C104.9,52.5,104.3,53.2,104.1,53.8z"/>
	<path class="st0" d="M101.4,85.4c0.4,0.5,1,0.5,1.4,0l6.7-7.9c0.4-0.5,0.4-1.3,0-1.7l-6.7-8.5c-0.4-0.5-1-0.5-1.4,0
		c0,0-0.5,0.6-1,1.3c-1.8,2.4-4.3,6.2-4.3,6.2c-0.3,0.5-0.4,1.4,0,2L101.4,85.4z"/>
	<path class="st0" d="M99.8,36.8l9.9-2.3c0.6-0.1,1.2-0.7,1.3-1.4l2.2-9.9c0.2-0.6-0.2-1-0.8-0.8c0,0-1.1,0.3-2.1,0.6
		c-2.9,0.8-6.9,2.5-6.9,2.5c-0.6,0.2-1.3,0.9-1.5,1.5c0,0-1.6,4.1-2.4,7C99.2,35,98.9,36,98.9,36C98.8,36.6,99.2,37,99.8,36.8z"/>
	<path class="st0" d="M115,124.1l-10.7-1.2c-0.6-0.1-1.1,0.3-1,1c0,0,0.1,0.7,0.2,1.7c0.4,3,1.3,7.5,1.3,7.5
		c0.1,0.6,0.7,1.3,1.4,1.4l9.9,2.2c0.6,0.1,1.1-0.3,1-0.9l-0.9-10.3C116.2,124.8,115.6,124.2,115,124.1z"/>
	<path class="st0" d="M263.6,63.9c1.4,0,2.6-1.2,2.6-2.6c0-1.4-1.2-2.6-2.6-2.6c-1.4,0-2.6,1.2-2.6,2.6
		C261,62.8,262.2,63.9,263.6,63.9z"/>
	<path class="st0" d="M263.6,105.2c1.4,0,2.6-1.2,2.6-2.6c0-1.4-1.2-2.6-2.6-2.6c-1.4,0-2.6,1.2-2.6,2.6
		C261,104.1,262.2,105.2,263.6,105.2z"/>
	<path class="st0" d="M164,74.6h-14.9c-1.1,0-2,0.9-2,2v0.3v3V82v3v0.3c0,1.1,0.9,2,2,2H164c1.1,0,2-0.9,2-2V85v-3v-2.1v-3v-0.3
		C166,75.5,165.1,74.6,164,74.6z"/>
	<path class="st0" d="M251.7,84.6c1.4,0,2.6-1.2,2.6-2.6c0-1.4-1.2-2.6-2.6-2.6c-1.4,0-2.6,1.2-2.6,2.6
		C249.1,83.4,250.2,84.6,251.7,84.6z"/>
</g>
</svg>
