<?xml version="1.0" encoding="utf-8"?>
<!-- Generator: Adobe Illustrator 26.3.1, SVG Export Plug-In . SVG Version: 6.00 Build 0)  -->
<svg version="1.1" id="Layer_1" xmlns="http://www.w3.org/2000/svg" xmlns:xlink="http://www.w3.org/1999/xlink" x="0px" y="0px"
	 viewBox="0 0 400 400" style="enable-background:new 0 0 400 400;" xml:space="preserve">
<style type="text/css">
	.st0{fill:#7E37C3;}
	.st1{fill:#753BBB;}
</style>
<g>
	<g>
		<path class="st0" d="M169.1,303.9c0.3,0,0.5,0,0.8,0s0.5-0.1,0.7-0.2c0.2-0.1,0.4-0.2,0.5-0.4c0.1-0.2,0.2-0.5,0.2-0.8v-10.9
			c0-0.2,0.1-0.4,0.3-0.6c0.2-0.2,0.4-0.2,0.7-0.2h5.1c0.2,0,0.5,0.1,0.6,0.2c0.2,0.2,0.3,0.4,0.3,0.6v11.8c0.2,0.2,0.5,0.4,1.1,0.5
			c0.5,0.1,1,0.1,1.4,0.1h1.5v7h-0.4c-0.5,0-1,0-1.6,0c-0.6,0-1.2-0.1-1.8-0.2c-0.6-0.1-1.2-0.3-1.8-0.5c-0.6-0.2-1.1-0.5-1.6-0.8
			c-1,0.7-2.3,1.1-3.9,1.3c-1.6,0.2-3.5,0.2-5.7,0.2h-9.6c-3.1,0-5.7-0.3-7.7-0.9c-2-0.6-3.6-1.4-4.8-2.5c-1.2-1.1-2-2.5-2.5-4
			c-0.5-1.6-0.7-3.4-0.7-5.4c0-0.8,0-1.6,0.1-2.5c0.1-0.8,0.2-1.7,0.4-2.7c0.1-0.3,0.2-0.5,0.3-0.7c0.1-0.2,0.4-0.2,0.7-0.2h4.5
			c0.2,0,0.4,0.1,0.6,0.2c0.2,0.2,0.2,0.4,0.2,0.6c0,0.6,0,1.2-0.1,1.7c0,0.5-0.1,1-0.1,1.5c0,1.4,0.1,2.5,0.4,3.5
			c0.3,1,0.8,1.8,1.5,2.4c0.7,0.6,1.7,1.1,2.9,1.4c1.2,0.3,2.8,0.5,4.7,0.5H169.1z M156.3,315.8c0-0.3,0.1-0.6,0.3-0.7
			c0.2-0.2,0.5-0.3,0.8-0.3h4.5c0.3,0,0.6,0.1,0.8,0.3c0.2,0.2,0.3,0.4,0.3,0.7v4.4c0,0.2-0.1,0.5-0.3,0.7c-0.2,0.2-0.5,0.3-0.8,0.3
			h-4.5c-0.3,0-0.5-0.1-0.8-0.3c-0.2-0.2-0.3-0.4-0.3-0.7V315.8z"/>
		<path class="st0" d="M180.5,304.4c0-0.2,0.2-0.3,0.5-0.4c0.4-0.1,0.7-0.1,0.9-0.1h1.3c0.5,0,1-0.1,1.5-0.2
			c0.4-0.1,0.7-0.6,0.7-1.2v-8.9c0-0.3,0.1-0.5,0.3-0.7c0.2-0.2,0.4-0.3,0.7-0.3h5c0.2,0,0.5,0.1,0.6,0.3c0.2,0.2,0.3,0.4,0.3,0.7
			v10c0.2,0.3,0.6,0.4,1.1,0.5c0.5,0.1,1,0.1,1.3,0.1h0.5c0.5,0,1-0.1,1.4-0.2s0.7-0.5,0.7-1.2V292c0-0.2,0.1-0.4,0.3-0.6
			c0.2-0.2,0.4-0.2,0.7-0.2h5c0.2,0,0.5,0.1,0.7,0.2c0.2,0.2,0.3,0.4,0.3,0.6v11.6c0.2,0.3,0.5,0.4,1,0.5c0.5,0.1,1,0.1,1.4,0.1h0.8
			c0.7,0,1.1-0.1,1.3-0.2c0.2-0.1,0.3-0.5,0.3-1.2c0-0.7,0-1.6,0-2.6c0-1,0-2.1,0-3.2c0-1.1,0-2.3,0-3.4c0-1.2,0-2.3-0.1-3.3
			c0-0.2,0.1-0.4,0.2-0.6s0.4-0.3,0.7-0.3h5c0.3,0,0.6,0.1,0.8,0.2c0.2,0.2,0.3,0.4,0.3,0.6c0.1,2,0.1,3.8,0.2,5.4
			c0,1.6,0,3.2,0,4.7v3.1c0,0.9,0,1.8,0,2.8c0,0.9-0.1,1.9-0.2,2.8c-0.1,0.3-0.2,0.5-0.3,0.7c-0.1,0.2-0.4,0.4-0.8,0.5
			c-1.4,0.4-3.3,0.6-5.6,0.6h-0.5c-0.5,0-1.1,0-1.7,0c-0.6,0-1.2-0.1-1.8-0.2c-0.6-0.1-1.2-0.2-1.8-0.4c-0.6-0.2-1.1-0.4-1.6-0.8
			c-0.8,0.6-1.7,1-2.7,1.2c-1,0.2-2.1,0.3-3.1,0.3h-0.5c-1.3,0-2.4-0.1-3.4-0.3c-1-0.2-1.9-0.6-2.8-1.2c-0.8,0.6-1.8,1-3,1.2
			c-1.2,0.2-2.3,0.3-3.4,0.3h-1.1c-0.3,0-0.6,0-0.9-0.1c-0.3-0.1-0.5-0.2-0.5-0.4V304.4z"/>
		<path class="st0" d="M222.6,277c0-0.3,0.1-0.5,0.3-0.7c0.2-0.2,0.4-0.3,0.7-0.3h5.2c0.3,0,0.5,0.1,0.7,0.3s0.3,0.4,0.3,0.7v24.8
			c0,0.9,0.2,1.4,0.5,1.7c0.4,0.2,0.9,0.4,1.7,0.4h1.7v7h-3.8c-1.1,0-2.1-0.1-3-0.2c-0.9-0.2-1.7-0.5-2.3-1
			c-0.6-0.5-1.1-1.2-1.5-2.1c-0.4-0.9-0.5-2.1-0.5-3.5V277z"/>
		<path class="st0" d="M231.8,304.4c0-0.2,0.2-0.3,0.5-0.4c0.3-0.1,0.7-0.1,1-0.1h18.3l-1-2.1l-0.8-1.6c-0.4-0.8-0.9-1.6-1.5-2.3
			c-0.6-0.7-1.3-1.3-2.2-1.8s-1.9-0.9-3-1.2c-1.1-0.3-2.4-0.5-3.9-0.5c-0.1,0-0.2,0-0.4,0s-0.4,0-0.6,0c-0.2,0-0.4,0-0.6,0
			c-0.2,0-0.3,0-0.5,0c-0.6,0-1-0.3-1-0.8v-4.3c0-0.5,0.3-0.7,1-0.9c0.8-0.2,1.6-0.3,2.3-0.3c0.7-0.1,1.4-0.1,2.3-0.1
			c1.8,0,3.4,0.2,4.9,0.6c1.5,0.4,2.9,1,4.1,1.9c1.3,0.9,2.5,2,3.5,3.4c1.1,1.4,2.1,3.1,3,5.1l0.6,1.4c0.1,0.2,0.2,0.4,0.3,0.8
			c0.1,0.3,0.3,0.7,0.4,1c0.1,0.4,0.3,0.8,0.5,1.1c0.2,0.4,0.3,0.7,0.4,0.9c0.2,0.4,0.3,1,0.3,1.7v4.1c0,0.7-0.4,1-1.1,1h-25.5
			c-0.3,0-0.6-0.1-1-0.2c-0.3-0.1-0.5-0.2-0.5-0.3V304.4z"/>
	</g>
	<g>
		<path class="st0" d="M150.1,371.7c0,0.2-0.1,0.5-0.3,0.6c-0.2,0.2-0.4,0.3-0.6,0.3h-6c-0.2,0-0.5-0.1-0.6-0.3
			c-0.2-0.2-0.3-0.4-0.3-0.6v-13.1h-11.2v13.1c0,0.2-0.1,0.5-0.3,0.6s-0.4,0.3-0.6,0.3h-6c-0.2,0-0.5-0.1-0.6-0.3s-0.3-0.4-0.3-0.6
			v-32c0-0.2,0.1-0.4,0.3-0.6s0.4-0.3,0.6-0.3h6c0.2,0,0.5,0.1,0.6,0.3s0.3,0.4,0.3,0.6v12.1h11.2v-12.1c0-0.2,0.1-0.4,0.3-0.6
			c0.2-0.2,0.4-0.3,0.6-0.3h6c0.2,0,0.5,0.1,0.6,0.3c0.2,0.2,0.3,0.4,0.3,0.6V371.7z"/>
		<path class="st0" d="M176.1,371.7c0,0.2-0.1,0.5-0.3,0.6c-0.2,0.2-0.4,0.3-0.6,0.3h-5.1c-0.2,0-0.5-0.1-0.6-0.3
			c-0.2-0.2-0.3-0.4-0.3-0.6V371c-0.9,0.6-1.8,1.1-2.8,1.5c-1,0.4-2.2,0.5-3.5,0.5c-1,0-2-0.1-2.9-0.4c-0.9-0.3-1.7-0.7-2.5-1.3
			c-0.7-0.6-1.3-1.4-1.7-2.4c-0.4-1-0.7-2.2-0.7-3.7v-0.4c0-2.7,0.9-4.6,2.7-5.8c1.8-1.2,4.6-1.8,8.5-1.8h2.5v-1.6
			c0-1.3-0.3-2.2-0.9-2.5c-0.6-0.4-1.4-0.6-2.5-0.6c-0.7,0-1.5,0-2.2,0c-0.7,0-1.5,0-2.1,0.1c-0.7,0-1.3,0.1-1.8,0.1
			c-0.5,0-1,0.1-1.4,0.1h-0.2c-0.2,0-0.4-0.1-0.6-0.2c-0.2-0.1-0.2-0.3-0.2-0.6v-3.7c0-0.5,0.3-0.8,0.9-1c0.8-0.2,2-0.4,3.4-0.6
			c1.4-0.2,2.9-0.3,4.4-0.3c1.6,0,3.1,0.2,4.4,0.5c1.3,0.3,2.4,0.9,3.3,1.6c0.9,0.7,1.6,1.7,2.1,2.9c0.5,1.2,0.8,2.6,0.8,4.3V371.7z
			 M168.9,361.4h-2.6c-0.8,0-1.4,0.1-2,0.2c-0.5,0.1-0.9,0.3-1.2,0.6c-0.3,0.3-0.5,0.6-0.6,1c-0.1,0.4-0.2,0.9-0.2,1.5v0.4
			c0,1,0.2,1.6,0.7,1.9c0.5,0.3,1.2,0.4,2.2,0.4c0.7,0,1.4-0.1,2-0.3c0.6-0.2,1.2-0.4,1.7-0.7V361.4z"/>
		<path class="st0" d="M199.8,365.4c0,1.1-0.2,2.1-0.6,3c-0.4,0.9-1,1.7-1.8,2.4c-0.8,0.7-1.8,1.2-3,1.6c-1.2,0.4-2.6,0.6-4.3,0.6
			c-0.6,0-1.3,0-2-0.1c-0.7,0-1.4-0.1-2.2-0.2c-0.7-0.1-1.5-0.2-2.2-0.3c-0.7-0.1-1.3-0.3-1.9-0.4c-0.6-0.2-0.9-0.5-0.9-1v-3.7
			c0-0.2,0.1-0.4,0.2-0.6c0.2-0.2,0.4-0.3,0.6-0.3h0.2c0.6,0.1,1.3,0.2,2,0.3c0.7,0.1,1.5,0.1,2.2,0.2c0.7,0.1,1.4,0.1,2,0.1
			c0.6,0,1.1,0,1.5,0c1.1,0,1.8-0.1,2.2-0.4c0.3-0.3,0.5-0.7,0.5-1.3c0-0.3-0.1-0.6-0.4-0.9c-0.2-0.3-0.7-0.6-1.3-1l-5.9-3.4
			c-1.3-0.7-2.3-1.7-3-2.8c-0.7-1.1-1.1-2.5-1.1-3.9c0-2.3,0.8-4.1,2.3-5.3c1.5-1.2,3.9-1.8,7-1.8c1.8,0,3.3,0.1,4.5,0.3
			c1.2,0.2,2.4,0.4,3.6,0.8c0.6,0.2,0.9,0.5,0.9,1v3.7c0,0.6-0.3,0.9-0.8,0.9h-0.1c-0.3,0-0.8-0.1-1.4-0.2c-0.6-0.1-1.3-0.1-2-0.2
			c-0.7-0.1-1.4-0.1-2.2-0.2c-0.7,0-1.4-0.1-2-0.1c-0.9,0-1.5,0.1-1.9,0.3c-0.4,0.2-0.5,0.5-0.5,1c0,0.3,0.1,0.6,0.4,0.8
			c0.2,0.2,0.6,0.5,1,0.8l5.6,3.2c0.9,0.5,1.7,1.1,2.3,1.7c0.6,0.6,1.1,1.1,1.4,1.7c0.4,0.6,0.6,1.2,0.7,1.8
			C199.7,364.1,199.8,364.8,199.8,365.4z"/>
		<path class="st0" d="M222.6,365.4c0,1.1-0.2,2.1-0.6,3c-0.4,0.9-1,1.7-1.8,2.4c-0.8,0.7-1.8,1.2-3,1.6c-1.2,0.4-2.6,0.6-4.3,0.6
			c-0.6,0-1.3,0-2-0.1c-0.7,0-1.4-0.1-2.2-0.2c-0.7-0.1-1.5-0.2-2.2-0.3c-0.7-0.1-1.3-0.3-1.9-0.4c-0.6-0.2-0.9-0.5-0.9-1v-3.7
			c0-0.2,0.1-0.4,0.2-0.6c0.2-0.2,0.4-0.3,0.6-0.3h0.2c0.6,0.1,1.3,0.2,2,0.3c0.7,0.1,1.5,0.1,2.2,0.2c0.7,0.1,1.4,0.1,2,0.1
			c0.6,0,1.1,0,1.5,0c1.1,0,1.8-0.1,2.2-0.4c0.3-0.3,0.5-0.7,0.5-1.3c0-0.3-0.1-0.6-0.4-0.9c-0.2-0.3-0.7-0.6-1.3-1l-5.9-3.4
			c-1.3-0.7-2.3-1.7-3-2.8c-0.7-1.1-1.1-2.5-1.1-3.9c0-2.3,0.8-4.1,2.3-5.3c1.5-1.2,3.9-1.8,7-1.8c1.8,0,3.3,0.1,4.5,0.3
			c1.2,0.2,2.4,0.4,3.6,0.8c0.6,0.2,0.9,0.5,0.9,1v3.7c0,0.6-0.3,0.9-0.8,0.9H221c-0.3,0-0.8-0.1-1.4-0.2c-0.6-0.1-1.3-0.1-2-0.2
			c-0.7-0.1-1.4-0.1-2.2-0.2c-0.7,0-1.4-0.1-2-0.1c-0.9,0-1.5,0.1-1.9,0.3c-0.4,0.2-0.5,0.5-0.5,1c0,0.3,0.1,0.6,0.4,0.8
			c0.2,0.2,0.6,0.5,1,0.8l5.6,3.2c0.9,0.5,1.7,1.1,2.3,1.7c0.6,0.6,1.1,1.1,1.4,1.7c0.4,0.6,0.6,1.2,0.7,1.8
			C222.6,364.1,222.6,364.8,222.6,365.4z"/>
		<path class="st0" d="M249.4,360.8c0,0.7-0.3,1.1-1,1.1h-14.5v0.1c0,0.6,0.1,1.2,0.2,1.8c0.2,0.6,0.4,1.1,0.8,1.6
			c0.4,0.4,0.8,0.8,1.4,1.1c0.6,0.3,1.3,0.4,2.3,0.4c0.7,0,1.5,0,2.3,0c0.8,0,1.6-0.1,2.4-0.1c0.8,0,1.6-0.1,2.2-0.1
			s1.3-0.1,1.7-0.2h0.1c0.6,0,0.9,0.2,0.9,0.7v3.5c0,0.4-0.1,0.6-0.2,0.8c-0.1,0.2-0.4,0.3-0.8,0.4c-1.5,0.4-2.9,0.6-4.3,0.8
			s-3.1,0.3-5,0.3c-1.4,0-2.7-0.2-4.1-0.6c-1.4-0.4-2.6-1-3.7-2c-1.1-0.9-2-2.1-2.6-3.6c-0.7-1.5-1-3.3-1-5.5v-3.2
			c0-1.8,0.3-3.5,0.8-5c0.5-1.5,1.3-2.7,2.3-3.8c1-1,2.2-1.8,3.6-2.4c1.4-0.6,3-0.8,4.9-0.8c1.8,0,3.5,0.3,4.9,0.9
			c1.4,0.6,2.6,1.4,3.5,2.5c0.9,1.1,1.6,2.3,2.1,3.8c0.5,1.5,0.7,3,0.7,4.8V360.8z M242.2,357.1c0-1.7-0.4-3-1.1-3.8
			c-0.7-0.8-1.7-1.2-3-1.2c-1.3,0-2.3,0.4-3,1.3c-0.8,0.8-1.1,2.1-1.1,3.8v0.2h8.3V357.1z"/>
		<path class="st0" d="M276.7,361.4c0,3.7-1,6.6-2.9,8.6c-2,2-4.8,3-8.5,3c-1.8,0-3.5-0.1-5.2-0.3c-1.7-0.2-3.2-0.5-4.5-0.8
			c-0.6-0.2-1-0.3-1.2-0.5c-0.2-0.2-0.2-0.5-0.2-0.8v-31.9c0-0.2,0.1-0.5,0.3-0.6c0.2-0.2,0.4-0.3,0.7-0.3h5.5
			c0.2,0,0.5,0.1,0.6,0.3c0.2,0.2,0.3,0.4,0.3,0.6v7.9c0.7-0.1,1.3-0.2,2-0.2c0.7-0.1,1.2-0.1,1.7-0.1c3.9,0,6.7,1,8.6,3.1
			c1.9,2.1,2.8,4.9,2.8,8.5V361.4z M269.3,357.8c0-0.8-0.1-1.5-0.2-2.2c-0.1-0.7-0.3-1.3-0.6-1.8s-0.7-0.9-1.2-1.2
			c-0.5-0.3-1.2-0.4-2-0.4c-0.5,0-1.2,0-1.9,0.1c-0.7,0-1.3,0.1-1.9,0.2v14.1c0.4,0.1,1,0.1,1.6,0.2c0.7,0.1,1.4,0.1,2.1,0.1
			c0.8,0,1.5-0.1,2-0.4c0.5-0.3,0.9-0.7,1.2-1.2s0.5-1.1,0.6-1.8c0.1-0.7,0.2-1.4,0.2-2.2V357.8z"/>
	</g>
	<g>
		<path class="st1" d="M249.1,27H151c-5.7,0-10.4,4.7-10.4,10.4V65c1.7,4.5,5.8,7.8,10.8,7.9c0.1,0,0.2,0,0.4,0
			c5.1,0,9.4-3.1,11.2-7.6c0.2-0.4,0.5-0.6,0.9-0.6c0.4,0,0.7,0.2,0.9,0.6c1.8,4.4,6.1,7.5,11.2,7.5c5.1,0,9.4-3.1,11.2-7.5
			c0.2-0.4,0.5-0.6,0.9-0.6c0.4,0,0.7,0.2,0.9,0.6c1.8,4.4,6.1,7.5,11.2,7.5h0c5,0,9.4-3.1,11.2-7.5c0.2-0.4,0.5-0.6,0.9-0.6
			c0.4,0,0.7,0.2,0.9,0.6c1.8,4.4,6.1,7.5,11.2,7.5c5,0,9.4-3.1,11.2-7.5c0.2-0.4,0.5-0.6,0.9-0.6c0.4,0,0.7,0.2,0.8,0.6
			c1.8,4.4,6.1,7.6,11.2,7.6c0.1,0,0.2,0,0.4,0c5-0.2,9.1-3.5,10.8-7.9V37.4C259.5,31.7,254.9,27,249.1,27z M211,42h-21.8
			c-1.6,0-2.8-1.3-2.8-2.8c0-1.6,1.3-2.8,2.8-2.8H211c1.6,0,2.8,1.3,2.8,2.8C213.8,40.7,212.5,42,211,42z"/>
		<path class="st1" d="M210.7,110.9h-19.3c0.2-3.4,1.6-6.1,4.5-7.9c3.4-2.1,6.9-2.1,10.3,0C209,104.8,210.5,107.4,210.7,110.9z"/>
		<path class="st1" d="M178.9,159.7c-0.9-1-1.4-2.2-1.3-3.6c0.7-8.2,1.4-16.5,2.2-24.7c0.5-5.5,1-10.9,1.5-16.3c0-0.1,0-0.2,0.1-0.3
			h6.3v0.7c0,1.6,0,3.2,0,4.8c0,1.2,0.8,2,1.9,2c1.1,0,1.9-0.8,1.9-2c0-1.8,0-3.7,0-5.5h19.3v0.7c0,1.6,0,3.2,0,4.8
			c0,1.2,0.8,2,1.9,2c1.1,0,1.9-0.8,1.9-2c0-1.8,0-3.7,0-5.5h6.3c0.1,0.6,0.1,1.2,0.2,1.9c0.7,8.2,1.4,16.4,2.2,24.6
			c0.4,4.9,0.9,9.9,1.3,14.8c0.2,2.1-1,4.1-3.1,5c-1.2,0.6-2.4,0.8-3.7,0.8c-11.1,0-22.2,0-33.2,0
			C182.3,161.8,180.4,161.2,178.9,159.7z"/>
		<path class="st1" d="M269.6,129.9c0-0.7,0-0.8,0-0.8c0-0.6-0.6-1.1-1.2-1.1l-8.9,0.3V127c0.2-0.1,0.4-0.1,0.5-0.3l6.7-7.9
			c0.4-0.5,0.4-1.3,0-1.8l-6.8-7.8c-0.1-0.1-0.1-0.1-0.2-0.2l8.5,0.1c0.6,0,1.2-0.5,1.2-1.1c0,0,0-0.2,0-0.8c0-3.5-0.4-9-0.4-9
			c0-0.6-0.6-1.2-1.2-1.3l-4.7-0.5l3.5-4.5c0.4-0.5,0.3-1.3-0.1-1.8c0,0-3.7-4.1-6.2-6.5c-0.5-0.5-0.6-0.6-0.6-0.6c0,0,0,0,0,0v-9.3
			c-2.9,2.6-6.6,4.2-10.7,4.3c-0.2,0-0.4,0-0.5,0c-4.6,0-8.9-1.8-12.1-4.9c-3.1,3.1-7.4,4.9-12.1,4.9c-4.6,0-8.9-1.8-12.1-4.9
			c-3.1,3.1-7.4,4.9-12.1,4.9c-4.6,0-8.9-1.8-12.1-4.9c-3.2,3.1-7.4,4.9-12.1,4.9c-4.6,0-8.9-1.8-12.1-4.9
			c-3.1,3.1-7.4,4.9-12.1,4.9c-0.2,0-0.4,0-0.5,0c-4.1-0.1-7.8-1.7-10.7-4.3v94.8l-0.4,0.4c-2.5,2.5-6.1,6.6-6.1,6.6
			c-0.4,0.5-0.4,1.3-0.1,1.8l3,3.8l-5.2,0.7c-0.6,0.1-1.2,0.7-1.2,1.4c0,0-0.3,5.5-0.2,9c0,0.6,0,0.8,0,0.8c0,0.6,0.6,1.1,1.2,1.1
			l9-0.3v1.2c-0.2,0-0.5,0.1-0.6,0.3l-6.7,7.9c-0.4,0.5-0.4,1.3,0,1.8l6.8,7.8c0.1,0.1,0.1,0.1,0.2,0.2l-8.5-0.1
			c-0.6,0-1.2,0.5-1.2,1.1c0,0,0,0.2,0,0.8c0,3.5,0.4,9,0.4,9c0,0.6,0.6,1.2,1.2,1.3l4.7,0.5l-3.5,4.5c-0.4,0.5-0.3,1.3,0.1,1.8
			c0,0,3.7,4.1,6.2,6.5c0.5,0.5,0.6,0.6,0.6,0.6c0.5,0.4,1.2,0.4,1.6-0.1l8-8.6c0.4-0.5,0.4-1.2-0.1-1.6l-5.8-5.1l0-0.2
			c1.8,1.6,4.1,2.5,6.7,2.5h98.2c5.7,0,10.4-4.7,10.4-10.4v-62.2c0.1-0.1,0.2-0.2,0.3-0.3c2.5-2.5,6.1-6.6,6.1-6.6
			c0.4-0.5,0.5-1.3,0.1-1.8l-3-3.8l5.2-0.7c0.6-0.1,1.2-0.7,1.2-1.4C269.4,138.9,269.7,133.4,269.6,129.9z M174,154.5
			c0.5-4.8,0.9-9.6,1.3-14.4c0.4-4.7,0.8-9.4,1.3-14.2c0.4-4.2,0.7-8.4,1.1-12.6c0-0.2,0-0.4,0.1-0.6c0.2-1.2,0.9-1.8,2.1-1.8
			c2.3,0,4.6,0,7,0h0.8c0.1-2.1,0.5-4,1.4-5.7c2.1-4.1,5.5-6.5,10.1-7.3c0.2,0,0.4-0.1,0.6-0.1h2.6c1,0.2,1.9,0.4,2.9,0.7
			c5.4,1.9,8.8,6.4,9.2,12.1c0,0.1,0,0.2,0.1,0.4h0.7c2.3,0,4.6,0,6.9,0c1.4,0,2.1,0.6,2.2,2c0.5,5.2,0.9,10.4,1.4,15.6
			c0.5,6.2,1.1,12.4,1.7,18.6c0.3,3,0.6,6.1,0.8,9.1c0.1,3.1-1.3,5.5-3.8,7.3c-2,1.4-4.2,2-6.6,2c-8.7,0-17.3,0-26,0
			c-2.7,0-5.4,0.1-8.1,0c-3.4-0.1-6.3-1.6-8.2-4.4C173.9,159.1,173.8,156.9,174,154.5z M174.4,207.7c0,0.2-0.1,0.3-0.3,0.5
			c-0.2,0.1-0.4,0.2-0.6,0.2H171c-0.2,0-0.4-0.1-0.5-0.2c-0.2-0.1-0.2-0.3-0.2-0.5V205c0-0.2,0.1-0.4,0.2-0.5
			c0.2-0.1,0.3-0.2,0.5-0.2h2.6c0.2,0,0.4,0.1,0.6,0.2c0.2,0.1,0.3,0.3,0.3,0.5V207.7z M212.5,195.9c0,0.6,0,1.3,0,2
			c0,0.7,0,1.4-0.1,2c0,0.2-0.1,0.4-0.2,0.5c-0.1,0.2-0.3,0.3-0.5,0.4c-0.5,0.1-1,0.2-1.7,0.3c-0.7,0.1-1.4,0.1-2.2,0.1h-0.4
			c-0.8,0-1.6-0.1-2.5-0.2c-0.9-0.1-1.7-0.4-2.3-0.9c-0.5,0.4-1.1,0.7-1.9,0.9c-0.7,0.2-1.5,0.3-2.3,0.3h-0.4
			c-0.8,0-1.6-0.1-2.3-0.2c-0.7-0.2-1.4-0.5-2-0.9c-0.6,0.4-1.3,0.7-2.1,0.9c-0.8,0.2-1.6,0.2-2.4,0.2h-1c-0.3,0-0.7,0-1.1,0
			c-0.4,0-0.9-0.1-1.3-0.2c-0.4-0.1-0.8-0.2-1.3-0.4c-0.4-0.2-0.8-0.4-1.1-0.6c-0.7,0.5-1.6,0.8-2.6,0.9c-1,0.1-2.2,0.2-3.6,0.2
			h-7.6c-2.2,0-4.1-0.2-5.5-0.6c-1.4-0.4-2.6-1-3.4-1.8c-0.8-0.8-1.4-1.8-1.8-2.9c-0.3-1.1-0.5-2.4-0.5-3.9c0-1,0.1-2.2,0.3-3.5
			c0-0.2,0.1-0.4,0.2-0.5c0.1-0.1,0.3-0.2,0.5-0.2h2.5c0.4,0,0.6,0.2,0.6,0.7c-0.1,0.9-0.1,1.7-0.1,2.3c0,1,0.1,1.9,0.3,2.7
			c0.2,0.8,0.6,1.4,1.1,1.9c0.5,0.5,1.3,0.9,2.3,1.2c1,0.3,2.2,0.4,3.8,0.4h9.4c0.2,0,0.4,0,0.6,0c0.2,0,0.4-0.1,0.6-0.1
			c0.2-0.1,0.4-0.2,0.5-0.3c0.1-0.1,0.2-0.4,0.2-0.6v-8.3c0-0.2,0.1-0.3,0.2-0.5c0.1-0.1,0.3-0.2,0.5-0.2h2.9c0.2,0,0.3,0.1,0.4,0.2
			c0.1,0.1,0.2,0.3,0.2,0.5v8.9c0.1,0.1,0.2,0.2,0.4,0.3c0.2,0.1,0.4,0.1,0.6,0.2c0.2,0,0.4,0.1,0.6,0.1c0.2,0,0.4,0,0.5,0h1.7
			c0.4,0,0.8-0.1,1.3-0.2c0.4-0.1,0.6-0.4,0.6-1v-6.8c0-0.2,0.1-0.4,0.2-0.5c0.1-0.1,0.3-0.2,0.5-0.2h2.8c0.2,0,0.3,0.1,0.4,0.2
			c0.1,0.1,0.2,0.3,0.2,0.5v7.4c0.1,0.1,0.2,0.2,0.4,0.3c0.2,0.1,0.4,0.1,0.6,0.2c0.2,0,0.4,0.1,0.6,0.1c0.2,0,0.4,0,0.5,0h0.5
			c0.2,0,0.4,0,0.6,0c0.2,0,0.4-0.1,0.6-0.2c0.2-0.1,0.3-0.2,0.4-0.3c0.1-0.1,0.2-0.3,0.2-0.6V188c0-0.2,0.1-0.3,0.2-0.4
			c0.1-0.1,0.3-0.2,0.5-0.2h2.8c0.2,0,0.3,0.1,0.5,0.2c0.1,0.1,0.2,0.3,0.2,0.4v8.6c0.1,0.3,0.4,0.4,0.9,0.5
			c0.5,0.1,0.9,0.1,1.4,0.1h0.8c0.5,0,0.9,0,1.1-0.1c0.2-0.1,0.3-0.4,0.3-0.9v-4.5c0-0.8,0-1.7,0-2.5c0-0.8,0-1.7-0.1-2.5
			c0-0.2,0.1-0.3,0.2-0.4c0.1-0.1,0.3-0.2,0.5-0.2h2.8c0.2,0,0.4,0.1,0.5,0.2c0.1,0.1,0.2,0.3,0.2,0.5c0,0.7,0,1.4,0.1,2.1
			c0,0.6,0,1.3,0,1.8c0,0.6,0,1.2,0,1.7V195.9z M243.7,200.6c0,0.5-0.3,0.8-0.9,0.8h-20.4c-0.8,0-1.4-0.1-2.1-0.2
			c-0.6-0.1-1.1-0.4-1.6-0.7c-0.4-0.3-0.8-0.8-1-1.4c-0.2-0.6-0.4-1.4-0.4-2.4v-20c0-0.2,0.1-0.3,0.2-0.5c0.1-0.1,0.3-0.2,0.5-0.2h3
			c0.2,0,0.4,0.1,0.5,0.2c0.1,0.1,0.2,0.3,0.2,0.5v18.8c0,0.8,0.2,1.2,0.5,1.4c0.3,0.2,0.8,0.3,1.4,0.3h15.1l-0.9-2.1l-0.7-1.4
			c-0.6-1.4-1.6-2.5-2.8-3.3c-1.2-0.8-2.9-1.2-5-1.2c-0.2,0-0.4,0-0.8,0c-0.4,0-0.7,0-1,0c-0.5,0-0.7-0.1-0.7-0.5v-2.5
			c0-0.3,0.2-0.5,0.7-0.6c1.1-0.2,2.2-0.3,3.3-0.3c1.2,0,2.4,0.1,3.4,0.4c1,0.3,2,0.7,2.9,1.3c0.9,0.6,1.7,1.4,2.5,2.4
			c0.8,1,1.5,2.3,2.2,3.8l0.4,0.9l1.3,3.1c0.1,0.3,0.2,0.7,0.2,1.2V200.6z"/>
		<path class="st1" d="M284.7,99.3c0,0-2.6-3.8-4.5-6.2c-0.6-0.7-1.1-1.3-1.1-1.3c-0.4-0.5-1.1-0.5-1.4,0.1l-6.6,8.6
			c-0.4,0.5-0.4,1.3,0.1,1.7l6.8,7.8c0.4,0.5,1,0.5,1.4-0.1l5.4-8.7C285.1,100.7,285,99.9,284.7,99.3z"/>
		<path class="st1" d="M275.8,158.4c0,0,0.9-4.5,1.2-7.5c0.1-0.9,0.2-1.7,0.2-1.7c0.1-0.6-0.4-1.1-1-1l-10.7,1.4
			c-0.6,0.1-1.2,0.6-1.2,1.3l-0.7,10.3c-0.1,0.6,0.4,1.1,1,0.9l9.9-2.3C275.1,159.6,275.7,159,275.8,158.4z"/>
		<path class="st1" d="M278.6,126.6c-0.4-0.5-1-0.5-1.4,0l-6.7,7.9c-0.4,0.5-0.4,1.3,0,1.7l6.7,8.5c0.4,0.5,1,0.5,1.4,0
			c0,0,0.5-0.6,1-1.3c1.9-2.4,4.4-6.2,4.4-6.2c0.3-0.5,0.4-1.4,0-2L278.6,126.6z"/>
		<path class="st1" d="M280.2,175.4l-9.9,2.3c-0.6,0.1-1.2,0.7-1.3,1.4l-2.2,10c-0.2,0.6,0.2,1,0.8,0.8c0,0,1.1-0.3,2.1-0.6
			c2.9-0.8,6.9-2.5,6.9-2.5c0.6-0.2,1.3-0.9,1.5-1.5c0,0,1.6-4.1,2.4-7c0.3-1.1,0.5-2.1,0.5-2.1
			C281.2,175.6,280.8,175.2,280.2,175.4z"/>
		<path class="st1" d="M263.7,86.5c0,0.6,0.6,1.2,1.2,1.2l10.8,1.2c0.6,0.1,1.1-0.3,1-1c0,0-0.1-0.7-0.2-1.7c-0.4-3-1.3-7.5-1.3-7.5
			c-0.1-0.6-0.7-1.3-1.4-1.4l-10-2.2c-0.6-0.1-1.1,0.3-1,1L263.7,86.5z"/>
		<path class="st1" d="M124.2,163.7c0,0-0.9,4.5-1.2,7.5c-0.1,0.9-0.2,1.7-0.2,1.7c-0.1,0.6,0.4,1.1,1,1l10.7-1.4
			c0.6-0.1,1.2-0.6,1.2-1.3l0.7-10.3c0.1-0.6-0.4-1.1-1-0.9l-9.9,2.3C124.9,162.4,124.3,163.1,124.2,163.7z"/>
		<path class="st1" d="M119.8,146.7l9.9-2.3c0.6-0.1,1.2-0.7,1.3-1.4l2.2-10c0.2-0.6-0.2-1-0.8-0.8c0,0-1.1,0.3-2.1,0.6
			c-2.9,0.8-6.9,2.5-6.9,2.5c-0.6,0.2-1.3,0.9-1.5,1.5c0,0-1.6,4.1-2.4,7c-0.3,1.1-0.5,2.1-0.5,2.1
			C118.8,146.5,119.2,146.9,119.8,146.7z"/>
		<path class="st1" d="M128.8,219.8L122,212c-0.4-0.5-1-0.5-1.4,0.1l-5.4,8.7c-0.3,0.6-0.3,1.4,0.1,2c0,0,2.6,3.8,4.5,6.2
			c0.6,0.7,1.1,1.3,1.1,1.3c0.4,0.5,1,0.5,1.4-0.1l6.6-8.6C129.3,221.1,129.3,220.3,128.8,219.8z"/>
		<path class="st1" d="M121.4,195.4c0.4,0.5,1,0.5,1.4,0l6.7-7.9c0.4-0.5,0.4-1.3,0-1.7l-6.7-8.5c-0.4-0.5-1-0.5-1.4,0
			c0,0-0.5,0.6-1,1.3c-1.9,2.4-4.4,6.2-4.4,6.2c-0.3,0.5-0.4,1.4,0,2L121.4,195.4z"/>
		<path class="st1" d="M136.3,235.5c0-0.6-0.6-1.2-1.2-1.2l-10.8-1.2c-0.6-0.1-1.1,0.3-1,1c0,0,0.1,0.7,0.2,1.7
			c0.4,3,1.3,7.5,1.3,7.5c0.1,0.6,0.7,1.3,1.4,1.4l10,2.2c0.6,0.1,1.1-0.3,1-1L136.3,235.5z"/>
	</g>
</g>
</svg>
