<?xml version="1.0" encoding="utf-8"?>
<!-- Generator: Adobe Illustrator 26.3.1, SVG Export Plug-In . SVG Version: 6.00 Build 0)  -->
<svg version="1.1" id="Layer_1" xmlns="http://www.w3.org/2000/svg" xmlns:xlink="http://www.w3.org/1999/xlink" x="0px" y="0px"
	 viewBox="0 0 268.3 317.1" style="enable-background:new 0 0 268.3 317.1;" xml:space="preserve">
<style type="text/css">
	.st0{fill:#7E37C3;}
</style>
<g>
	<g>
		<path class="st0" d="M47.7,237.8c0-0.2,0.1-0.3,0.2-0.4s0.3-0.2,0.4-0.2H56l-0.1-2.2c0-0.7-0.1-1.2-0.3-1.8
			c-0.2-0.5-0.4-1-0.8-1.4c-0.4-0.4-0.9-0.7-1.5-0.9c-0.6-0.2-1.4-0.3-2.4-0.3c-0.1,0-0.2,0-0.3,0c-0.2,0-0.3,0-0.5,0
			c-0.2,0-0.4,0-0.6,0c-0.2,0-0.3,0-0.4,0c-0.4,0-0.6-0.2-0.6-0.5v-2.9c0-0.2,0.1-0.3,0.2-0.4c0.1-0.1,0.3-0.2,0.5-0.2
			c0.6-0.1,1.2-0.2,1.8-0.2c0.6,0,1.1,0,1.4,0c1.6,0,2.9,0.3,3.9,0.8c1,0.5,1.9,1.2,2.5,2c0.6,0.8,1.1,1.7,1.3,2.8
			c0.3,1,0.4,2.1,0.5,3.1l0.1,2.2h1.8v4.7H48.4c-0.2,0-0.3-0.1-0.4-0.2c-0.1-0.1-0.2-0.2-0.2-0.4V237.8z"/>
		<path class="st0" d="M60.5,245.2c0-0.2,0.1-0.4,0.2-0.5c0.1-0.1,0.3-0.2,0.5-0.2h2.7c0.2,0,0.4,0.1,0.5,0.2
			c0.2,0.1,0.2,0.3,0.2,0.5v2.9c0,0.2-0.1,0.3-0.2,0.4c-0.2,0.1-0.3,0.2-0.5,0.2h-2.7c-0.2,0-0.4-0.1-0.5-0.2
			c-0.1-0.1-0.2-0.3-0.2-0.4V245.2z M61.3,237.5c0-0.1,0.1-0.2,0.4-0.2c0.2-0.1,0.4-0.1,0.6-0.1H64c0.4,0,0.8,0,0.9-0.1
			c0.2-0.1,0.2-0.4,0.2-0.8c0-1,0-2.1,0-3.4c0-1.3,0-2.7-0.1-4.1c0-0.2,0.1-0.3,0.2-0.4c0.1-0.1,0.3-0.2,0.4-0.2h3.4
			c0.2,0,0.4,0.1,0.5,0.2c0.1,0.1,0.2,0.3,0.2,0.4c0,0.6,0,1.2,0,1.7c0,0.5,0,1,0,1.5c0,0.5,0,0.9,0,1.4s0,0.9,0,1.5
			c0,1.5,0,2.7,0,3.7c0,0.9-0.1,1.7-0.1,2.3c0,0.2-0.1,0.4-0.2,0.5c-0.1,0.1-0.3,0.3-0.5,0.3c-0.2,0.1-0.6,0.1-1,0.2
			c-0.4,0.1-0.9,0.1-1.4,0.1c-0.5,0-1.1,0.1-1.6,0.1c-0.6,0-1.1,0-1.5,0h-1.2c-0.2,0-0.4,0-0.6-0.1c-0.2-0.1-0.4-0.1-0.4-0.2V237.5z
			 M66.7,245.2c0-0.2,0.1-0.4,0.2-0.5c0.2-0.1,0.3-0.2,0.5-0.2h2.7c0.2,0,0.4,0.1,0.5,0.2c0.1,0.1,0.2,0.3,0.2,0.5v2.9
			c0,0.2-0.1,0.3-0.2,0.4s-0.3,0.2-0.5,0.2h-2.7c-0.2,0-0.4-0.1-0.5-0.2c-0.2-0.1-0.2-0.3-0.2-0.4V245.2z"/>
		<path class="st0" d="M73.4,237.8c0-0.2,0.1-0.3,0.2-0.4s0.3-0.2,0.4-0.2h7.7l-0.1-2.2c0-0.7-0.1-1.2-0.3-1.8
			c-0.2-0.5-0.4-1-0.8-1.4c-0.4-0.4-0.9-0.7-1.5-0.9c-0.6-0.2-1.4-0.3-2.4-0.3c-0.1,0-0.2,0-0.3,0c-0.2,0-0.3,0-0.5,0
			c-0.2,0-0.4,0-0.6,0c-0.2,0-0.3,0-0.4,0c-0.4,0-0.6-0.2-0.6-0.5v-2.9c0-0.2,0.1-0.3,0.2-0.4c0.1-0.1,0.3-0.2,0.5-0.2
			c0.6-0.1,1.2-0.2,1.8-0.2c0.6,0,1.1,0,1.4,0c1.6,0,2.9,0.3,3.9,0.8c1,0.5,1.9,1.2,2.5,2c0.6,0.8,1.1,1.7,1.3,2.8
			c0.3,1,0.4,2.1,0.5,3.1l0.1,2.2h1.8v4.7H74c-0.2,0-0.3-0.1-0.4-0.2c-0.1-0.1-0.2-0.2-0.2-0.4V237.8z"/>
		<path class="st0" d="M87,237.5c0-0.1,0.1-0.2,0.4-0.2c0.2-0.1,0.4-0.1,0.6-0.1h0.9c0.4,0,0.7,0,1-0.1c0.3-0.1,0.4-0.4,0.4-0.8v-6
			c0-0.2,0.1-0.3,0.2-0.5c0.1-0.1,0.3-0.2,0.4-0.2h3.3c0.2,0,0.3,0.1,0.4,0.2c0.1,0.1,0.2,0.3,0.2,0.5v6.7c0.1,0.2,0.4,0.3,0.7,0.4
			c0.3,0.1,0.6,0.1,0.9,0.1h0.3c0.3,0,0.7-0.1,1-0.2c0.3-0.1,0.5-0.4,0.5-0.8v-7.3c0-0.2,0.1-0.3,0.2-0.4c0.1-0.1,0.3-0.2,0.4-0.2
			h3.4c0.2,0,0.3,0.1,0.4,0.2c0.1,0.1,0.2,0.3,0.2,0.4v7.8c0.1,0.2,0.3,0.3,0.6,0.4c0.3,0.1,0.6,0.1,0.9,0.1h0.2c0.2,0,0.3,0,0.5,0
			s0.3-0.1,0.5-0.1c0.1-0.1,0.3-0.2,0.4-0.3c0.1-0.1,0.1-0.3,0.1-0.5V228c0-0.2,0.1-0.3,0.2-0.5c0.1-0.1,0.3-0.2,0.5-0.2h3.5
			c0.2,0,0.3,0.1,0.4,0.2c0.1,0.1,0.2,0.3,0.2,0.5v8.8c0.1,0.1,0.2,0.1,0.3,0.2c0.2,0.1,0.3,0.1,0.5,0.1s0.4,0.1,0.6,0.1
			c0.2,0,0.3,0,0.5,0h0.8v4.7h-0.3c-0.7,0-1.4-0.1-2.3-0.2c-0.8-0.1-1.6-0.4-2.3-0.8c-0.6,0.4-1.2,0.7-1.9,0.9
			c-0.7,0.1-1.4,0.2-2.1,0.2h-0.3c-0.7,0-1.4-0.1-2-0.2c-0.6-0.1-1.2-0.4-1.9-0.8c-0.5,0.4-1.1,0.7-1.7,0.8
			c-0.6,0.1-1.3,0.2-2.1,0.2h-0.3c-0.7,0-1.3-0.1-1.9-0.2c-0.6-0.1-1.2-0.4-1.9-0.8c-0.3,0.2-0.6,0.4-1,0.5
			c-0.4,0.1-0.7,0.2-1.1,0.3c-0.4,0.1-0.7,0.1-1.1,0.2c-0.4,0-0.7,0-1,0h-0.7c-0.2,0-0.4,0-0.6-0.1c-0.2-0.1-0.4-0.1-0.4-0.2V237.5z
			"/>
		<path class="st0" d="M112.4,237.5c0-0.1,0.1-0.2,0.4-0.2c0.2-0.1,0.4-0.1,0.6-0.1h1.8c0.4,0,0.8,0,0.9-0.1
			c0.2-0.1,0.2-0.4,0.2-0.8c0-1,0-2.1,0-3.4c0-1.3,0-2.7-0.1-4.1c0-0.2,0.1-0.3,0.2-0.4c0.1-0.1,0.3-0.2,0.4-0.2h3.4
			c0.2,0,0.4,0.1,0.5,0.2c0.1,0.1,0.2,0.3,0.2,0.4c0,0.6,0,1.2,0,1.7c0,0.5,0,1,0,1.5c0,0.5,0,0.9,0,1.4s0,0.9,0,1.5
			c0,1.5,0,2.7,0,3.7c0,0.9-0.1,1.7-0.1,2.3c0,0.2-0.1,0.4-0.2,0.5c-0.1,0.1-0.3,0.3-0.5,0.3c-0.2,0.1-0.6,0.1-1,0.2
			c-0.4,0.1-0.9,0.1-1.4,0.1c-0.5,0-1.1,0.1-1.6,0.1s-1.1,0-1.5,0h-1.2c-0.2,0-0.4,0-0.6-0.1c-0.2-0.1-0.4-0.1-0.4-0.2V237.5z
			 M113.4,221.6c0-0.2,0.1-0.4,0.2-0.5c0.1-0.1,0.3-0.2,0.5-0.2h2.7c0.2,0,0.4,0.1,0.5,0.2c0.2,0.1,0.2,0.3,0.2,0.5v2.9
			c0,0.2-0.1,0.3-0.2,0.5c-0.2,0.1-0.3,0.2-0.5,0.2h-2.7c-0.2,0-0.4-0.1-0.5-0.2c-0.1-0.1-0.2-0.3-0.2-0.5V221.6z M119.6,221.6
			c0-0.2,0.1-0.4,0.2-0.5c0.2-0.1,0.3-0.2,0.5-0.2h2.7c0.2,0,0.4,0.1,0.5,0.2c0.1,0.1,0.2,0.3,0.2,0.5v2.9c0,0.2-0.1,0.3-0.2,0.5
			c-0.1,0.1-0.3,0.2-0.5,0.2h-2.7c-0.2,0-0.4-0.1-0.5-0.2c-0.2-0.1-0.2-0.3-0.2-0.5V221.6z"/>
		<path class="st0" d="M132.4,237.2c0-0.2,0-0.5,0-0.9c0-0.3,0-0.7,0.1-1.1c0-0.4,0.1-0.8,0.1-1.2c0.1-0.4,0.1-0.8,0.2-1.1
			c0-0.2,0.1-0.4,0.2-0.5c0.1-0.1,0.2-0.2,0.5-0.2h3c0.4,0,0.6,0.2,0.6,0.6c0,0.4-0.1,0.8-0.1,1.2c0,0.4,0,0.7,0,1
			c0,1.1,0.1,2.1,0.2,3c0.1,0.9,0.4,1.7,0.8,2.3c0.4,0.6,1,1.1,1.7,1.5c0.8,0.4,1.8,0.5,3,0.5c0.5,0,1,0,1.3,0
			c0.4,0,0.7-0.1,1.1-0.1c0-0.5,0-0.9,0-1.3c0-0.4,0-0.7,0-1.1s0-0.7,0-1s0-0.7,0-1.1v-2.3c0-2.5,0.7-4.3,2.2-5.4
			c1.4-1.2,3.5-1.7,6.3-1.7c0.9,0,1.8,0,2.7,0.1c0.9,0.1,1.5,0.2,2.1,0.3c0.2,0,0.3,0.1,0.4,0.2s0.2,0.2,0.2,0.4v6.7
			c0,0.4,0.1,0.7,0.3,0.8s0.5,0.2,1,0.2h1.4v4.7h-2.7c-0.8,0-1.4-0.1-2-0.2c-0.6-0.1-1.1-0.3-1.5-0.6c-0.4-0.3-0.7-0.7-0.9-1.3
			c-0.2-0.6-0.3-1.3-0.3-2.2v-4.8c-0.2,0-0.4-0.1-0.6-0.1c-0.2,0-0.3,0-0.6,0c-1.1,0-1.9,0.2-2.4,0.7c-0.5,0.5-0.8,1.3-0.8,2.6v4.7
			c0,0.9,0,1.7,0,2.6c0,0.9-0.1,1.7-0.1,2.6c0,0.4-0.2,0.6-0.7,0.7c-0.9,0.2-1.9,0.3-3.1,0.4c-1.1,0.1-2.3,0.1-3.5,0.1
			c-3.5,0-6-0.8-7.7-2.4C133.3,243.2,132.4,240.6,132.4,237.2z M136.4,249.7c0-0.2,0.1-0.4,0.2-0.5c0.1-0.1,0.3-0.2,0.5-0.2h2.6
			c0.2,0,0.3,0.1,0.5,0.2c0.1,0.1,0.2,0.3,0.2,0.5v2.6c0,0.1-0.1,0.3-0.2,0.4c-0.2,0.1-0.3,0.2-0.5,0.2h-2.6c-0.2,0-0.4-0.1-0.5-0.2
			c-0.1-0.1-0.2-0.3-0.2-0.4V249.7z M142.6,249.7c0-0.2,0.1-0.4,0.2-0.5c0.1-0.1,0.3-0.2,0.5-0.2h2.7c0.2,0,0.3,0.1,0.5,0.2
			c0.1,0.1,0.2,0.3,0.2,0.5v2.6c0,0.1-0.1,0.3-0.2,0.4c-0.1,0.1-0.3,0.2-0.5,0.2h-2.7c-0.2,0-0.3-0.1-0.5-0.2
			c-0.1-0.1-0.2-0.3-0.2-0.4V249.7z"/>
		<path class="st0" d="M160.5,237.5c0-0.1,0.1-0.2,0.4-0.2s0.4-0.1,0.6-0.1h0.9c0.3,0,0.6,0,0.9-0.1s0.5-0.2,0.6-0.5
			c0-0.1,0.1-0.2,0.1-0.3c0-0.1,0-0.2,0-0.3v-2.3c0-1.2,0.2-2.2,0.5-3.1c0.4-0.9,0.9-1.6,1.5-2.2c0.6-0.6,1.4-1,2.3-1.3
			c0.9-0.3,1.9-0.4,2.9-0.4c1.1,0,2,0.1,2.9,0.4c0.9,0.3,1.6,0.7,2.2,1.3c0.6,0.6,1.1,1.3,1.4,2.2c0.3,0.9,0.5,1.9,0.5,3.1v1.7
			c0,0.2,0,0.3,0,0.5c0,0.2,0,0.4-0.1,0.5c0.1,0.1,0.2,0.3,0.3,0.4c0.1,0.1,0.3,0.2,0.5,0.2c0.2,0.1,0.3,0.1,0.5,0.1s0.3,0,0.4,0
			h0.9v4.7H180c-0.7,0-1.4-0.1-2.1-0.2c-0.7-0.1-1.4-0.4-2-0.7c-0.6,0.5-1.3,0.9-2.1,1.1c-0.8,0.2-1.7,0.4-2.7,0.4
			c-0.5,0-1,0-1.5-0.1c-0.5-0.1-1-0.2-1.5-0.3c-0.5-0.1-0.9-0.3-1.3-0.5s-0.7-0.4-1-0.7c-0.4,0.3-1,0.6-1.6,0.7
			c-0.6,0.1-1.3,0.2-1.9,0.2h-0.8c-0.2,0-0.4,0-0.6-0.1s-0.4-0.1-0.4-0.2V237.5z M168.5,233.9v1.3c0,0.4,0,0.8,0.1,1.2
			c0.1,0.7,0.4,1.1,0.8,1.4c0.4,0.3,1,0.4,1.6,0.4c0.8,0,1.5-0.2,1.9-0.7c0.4-0.4,0.6-1.2,0.6-2.3v-1.3c0-1.1-0.2-1.9-0.6-2.4
			c-0.4-0.5-1.1-0.7-1.9-0.7c-0.9,0-1.5,0.2-1.9,0.7C168.7,232,168.5,232.7,168.5,233.9z"/>
		<path class="st0" d="M178.7,245.2c0-0.2,0.1-0.4,0.2-0.5c0.1-0.1,0.3-0.2,0.5-0.2h2.7c0.2,0,0.4,0.1,0.5,0.2
			c0.2,0.1,0.2,0.3,0.2,0.5v2.9c0,0.2-0.1,0.3-0.2,0.4s-0.3,0.2-0.5,0.2h-2.7c-0.2,0-0.4-0.1-0.5-0.2c-0.1-0.1-0.2-0.3-0.2-0.4
			V245.2z M179.5,237.5c0-0.1,0.1-0.2,0.4-0.2s0.4-0.1,0.6-0.1h1.8c0.4,0,0.7,0,0.9-0.1s0.2-0.4,0.2-0.8c0-1,0-2.1,0-3.4
			c0-1.3,0-2.7-0.1-4.1c0-0.2,0.1-0.3,0.2-0.4c0.1-0.1,0.3-0.2,0.4-0.2h3.4c0.2,0,0.4,0.1,0.5,0.2c0.1,0.1,0.2,0.3,0.2,0.4
			c0,0.6,0,1.2,0,1.7s0,1,0,1.5c0,0.5,0,0.9,0,1.4s0,0.9,0,1.5c0,1.5,0,2.7,0,3.7c0,0.9-0.1,1.7-0.1,2.3c0,0.2-0.1,0.4-0.2,0.5
			c-0.1,0.1-0.3,0.3-0.5,0.3c-0.2,0.1-0.6,0.1-1,0.2c-0.4,0.1-0.9,0.1-1.4,0.1s-1.1,0.1-1.6,0.1c-0.6,0-1.1,0-1.5,0h-1.2
			c-0.2,0-0.4,0-0.6-0.1s-0.4-0.1-0.4-0.2V237.5z M184.9,245.2c0-0.2,0.1-0.4,0.2-0.5c0.2-0.1,0.3-0.2,0.5-0.2h2.7
			c0.2,0,0.4,0.1,0.5,0.2c0.1,0.1,0.2,0.3,0.2,0.5v2.9c0,0.2-0.1,0.3-0.2,0.4c-0.1,0.1-0.3,0.2-0.5,0.2h-2.7c-0.2,0-0.4-0.1-0.5-0.2
			s-0.2-0.3-0.2-0.4V245.2z"/>
		<path class="st0" d="M189,245.7c0-0.3,0.2-0.5,0.6-0.5h0.6c0.5,0,1,0,1.3-0.1c0.4,0,0.7-0.1,0.9-0.3c0.2-0.2,0.4-0.4,0.5-0.8
			c0.1-0.3,0.2-0.8,0.2-1.4v-13.8c0-0.2,0.1-0.3,0.2-0.4c0.1-0.1,0.3-0.2,0.5-0.2h3.5c0.2,0,0.3,0.1,0.4,0.2
			c0.1,0.1,0.2,0.3,0.2,0.4v8.3h2.7v4.7h-2.8v1.1c0,0.7-0.1,1.4-0.2,2c-0.1,0.6-0.3,1.2-0.5,1.6c-0.5,1-1.2,1.7-2.1,2.1
			c-0.9,0.4-2,0.6-3.3,0.6c-0.1,0-0.2,0-0.4,0s-0.4,0-0.6,0c-0.2,0-0.4,0-0.6,0c-0.2,0-0.4,0-0.5-0.1c-0.3-0.1-0.4-0.3-0.4-0.6
			V245.7z"/>
		<path class="st0" d="M199.3,237.8c0-0.2,0.1-0.3,0.3-0.4c0.2-0.1,0.4-0.2,0.7-0.2h11.4c0.1,0,0.3,0,0.7,0c0.4,0,0.8,0,1.3,0
			c0.5,0,0.9,0,1.3,0c0.4,0,0.6,0,0.7,0c0-0.2,0-0.5,0-0.8c0-0.3,0-0.6,0-0.8c0-1.5-0.5-2.6-1.4-3.2c-1-0.7-2.4-1-4.2-1h-6.8
			c-0.5,0-0.8-0.2-0.8-0.6c0,0,0-0.1,0-0.2c0-0.1,0-0.3,0-0.4c0-0.1,0-0.3,0-0.4c0-0.1,0-0.2,0-0.2c0-0.5,0-1,0.1-1.5
			c0.1-0.5,0.2-1,0.4-1.4c0.2-0.5,0.4-1,0.6-1.5c0.2-0.5,0.5-1.1,0.9-1.7l2.3-4.3c0.1-0.2,0.2-0.3,0.4-0.4c0.1-0.1,0.3-0.2,0.5-0.2
			h3.6c0.2,0,0.3,0,0.3,0.1c0.1,0.1,0.1,0.2,0.1,0.3c0,0.1,0,0.2-0.1,0.3l-2.9,5.5c-0.1,0.1-0.2,0.3-0.3,0.6
			c-0.1,0.2-0.2,0.5-0.3,0.7c-0.1,0.2-0.2,0.4-0.3,0.6c-0.1,0.2-0.1,0.3-0.1,0.4c0.8,0,1.4-0.1,1.9-0.1c0.5,0,0.9,0,1.2,0
			c1.9,0,3.4,0.2,4.7,0.7c1.3,0.4,2.3,1.1,3,1.9c0.8,0.8,1.3,1.8,1.6,3s0.5,2.5,0.5,4v0.9c0,0.2,0,0.5,0,0.8s0,0.7-0.1,1.1
			c0,0.4-0.1,0.7-0.1,1.1c0,0.4-0.1,0.6-0.1,0.9c-0.1,0.4-0.3,0.6-0.7,0.6c-0.3,0-0.8,0.1-1.4,0.1c-0.6,0-1.2,0-1.9,0
			c-0.7,0-1.4,0-2.1,0s-1.3,0-1.9,0h-12.1c-0.2,0-0.4-0.1-0.7-0.2c-0.2-0.1-0.3-0.2-0.3-0.4V237.8z"/>
	</g>
	<g>
		<path class="st0" d="M33.6,261c0,0.1-0.1,0.3-0.2,0.4l-7.3,10.3l7.3,11c0.1,0.1,0.1,0.2,0.1,0.3c0,0.2-0.1,0.3-0.4,0.3h-5.3
			c-0.2,0-0.3,0-0.4-0.1c-0.1-0.1-0.2-0.2-0.3-0.3l-6.2-10.1v9.9c0,0.2-0.1,0.3-0.2,0.4c-0.1,0.1-0.3,0.2-0.4,0.2h-4
			c-0.2,0-0.3-0.1-0.4-0.2c-0.1-0.1-0.2-0.3-0.2-0.4v-21.6c0-0.2,0.1-0.3,0.2-0.4c0.1-0.1,0.3-0.2,0.4-0.2h4c0.2,0,0.3,0.1,0.4,0.2
			c0.1,0.1,0.2,0.3,0.2,0.4v9.7l6.7-9.9c0.1-0.2,0.4-0.4,0.7-0.4h4.7C33.5,260.7,33.6,260.8,33.6,261z"/>
		<path class="st0" d="M49.9,282.8c0,0.2-0.1,0.3-0.2,0.4c-0.1,0.1-0.3,0.2-0.4,0.2h-3.4c-0.2,0-0.3-0.1-0.4-0.2
			c-0.1-0.1-0.2-0.3-0.2-0.4v-0.7c-0.8,0.6-1.6,1-2.4,1.2c-0.8,0.2-1.6,0.4-2.6,0.4c-1.1,0-2-0.2-2.7-0.5c-0.7-0.4-1.3-0.9-1.7-1.5
			c-0.4-0.6-0.7-1.4-0.8-2.2c-0.2-0.8-0.2-1.7-0.2-2.7v-10.2c0-0.2,0.1-0.3,0.2-0.4c0.1-0.1,0.3-0.2,0.4-0.2h3.7
			c0.2,0,0.3,0.1,0.4,0.2c0.1,0.1,0.2,0.3,0.2,0.4v10.2c0,0.5,0,1,0.1,1.3c0.1,0.4,0.2,0.7,0.3,0.9s0.4,0.4,0.7,0.5
			c0.3,0.1,0.7,0.1,1.1,0.1c0.4,0,0.9-0.1,1.4-0.3c0.5-0.2,1-0.4,1.5-0.7v-12c0-0.2,0.1-0.3,0.2-0.4c0.1-0.1,0.3-0.2,0.4-0.2h3.7
			c0.2,0,0.3,0.1,0.4,0.2c0.1,0.1,0.2,0.3,0.2,0.4V282.8z"/>
		<path class="st0" d="M63.2,269.2c0,0.1,0,0.3-0.1,0.4c-0.1,0.1-0.2,0.2-0.3,0.2h-0.2c-0.8,0-1.5,0.1-2.1,0.3
			c-0.7,0.2-1.3,0.5-1.8,0.8v11.9c0,0.2-0.1,0.3-0.2,0.4c-0.1,0.1-0.3,0.2-0.4,0.2h-3.7c-0.2,0-0.3-0.1-0.4-0.2
			c-0.1-0.1-0.2-0.3-0.2-0.4v-16.3c0-0.2,0.1-0.3,0.2-0.4c0.1-0.1,0.3-0.2,0.4-0.2h3.6c0.2,0,0.3,0.1,0.4,0.2
			c0.1,0.1,0.2,0.3,0.2,0.4v0.6c0.6-0.5,1.2-0.8,1.9-1.1c0.7-0.3,1.5-0.4,2.2-0.4c0.2,0,0.3,0.1,0.4,0.2c0.1,0.1,0.2,0.3,0.2,0.4
			V269.2z"/>
		<path class="st0" d="M78.6,282.8c0,0.2-0.1,0.3-0.2,0.4c-0.1,0.1-0.3,0.2-0.4,0.2h-3.4c-0.2,0-0.3-0.1-0.4-0.2
			c-0.1-0.1-0.2-0.3-0.2-0.4v-0.5c-0.6,0.4-1.2,0.8-1.9,1c-0.7,0.2-1.5,0.4-2.4,0.4c-0.7,0-1.3-0.1-1.9-0.3
			c-0.6-0.2-1.2-0.5-1.7-0.9s-0.9-0.9-1.2-1.6c-0.3-0.7-0.4-1.5-0.4-2.5v-0.3c0-1.8,0.6-3.1,1.8-3.9c1.2-0.8,3.1-1.2,5.7-1.2h1.7
			v-1.1c0-0.9-0.2-1.4-0.6-1.7c-0.4-0.3-1-0.4-1.7-0.4c-0.5,0-1,0-1.5,0c-0.5,0-1,0-1.4,0c-0.5,0-0.9,0-1.2,0.1
			c-0.4,0-0.7,0.1-0.9,0.1h-0.2c-0.2,0-0.3,0-0.4-0.1s-0.2-0.2-0.2-0.4v-2.5c0-0.3,0.2-0.6,0.6-0.7c0.6-0.1,1.3-0.3,2.3-0.4
			c1-0.1,2-0.2,3-0.2c1.1,0,2.1,0.1,3,0.4c0.9,0.2,1.6,0.6,2.3,1.1c0.6,0.5,1.1,1.1,1.4,1.9c0.3,0.8,0.5,1.7,0.5,2.9V282.8z
			 M73.7,275.9h-1.7c-0.5,0-1,0-1.3,0.1c-0.3,0.1-0.6,0.2-0.8,0.4c-0.2,0.2-0.3,0.4-0.4,0.7c-0.1,0.3-0.1,0.6-0.1,1v0.3
			c0,0.7,0.2,1.1,0.5,1.3c0.3,0.2,0.8,0.3,1.5,0.3c0.5,0,0.9-0.1,1.3-0.2c0.4-0.1,0.8-0.3,1.2-0.5V275.9z"/>
		<path class="st0" d="M87.4,263.3c0,0.2-0.1,0.3-0.2,0.4c-0.1,0.1-0.3,0.2-0.4,0.2h-4c-0.2,0-0.3-0.1-0.4-0.2
			c-0.1-0.1-0.2-0.3-0.2-0.4v-2.8c0-0.2,0.1-0.3,0.2-0.4c0.1-0.1,0.3-0.2,0.4-0.2h4c0.2,0,0.3,0.1,0.4,0.2c0.1,0.1,0.2,0.3,0.2,0.4
			V263.3z M87.3,282.8c0,0.2-0.1,0.3-0.2,0.4c-0.1,0.1-0.3,0.2-0.4,0.2H83c-0.2,0-0.3-0.1-0.4-0.2c-0.1-0.1-0.2-0.3-0.2-0.4v-16.3
			c0-0.2,0.1-0.3,0.2-0.4c0.1-0.1,0.3-0.2,0.4-0.2h3.7c0.2,0,0.3,0.1,0.4,0.2c0.1,0.1,0.2,0.3,0.2,0.4V282.8z"/>
		<path class="st0" d="M114.2,282.8c0,0.2-0.1,0.3-0.2,0.4c-0.1,0.1-0.3,0.2-0.4,0.2h-3.7c-0.2,0-0.3-0.1-0.4-0.2
			c-0.1-0.1-0.2-0.3-0.2-0.4v-10.5c0-1-0.1-1.7-0.4-2c-0.3-0.4-0.8-0.5-1.5-0.5c-0.3,0-0.6,0-1,0.1c-0.4,0.1-0.9,0.2-1.3,0.4
			c0.1,0.6,0.1,1.3,0.1,2v10.5c0,0.2-0.1,0.3-0.2,0.4c-0.1,0.1-0.3,0.2-0.4,0.2h-3.7c-0.2,0-0.3-0.1-0.4-0.2
			c-0.1-0.1-0.2-0.3-0.2-0.4v-10.5c0-1-0.1-1.7-0.4-2c-0.2-0.4-0.7-0.5-1.4-0.5c-0.3,0-0.6,0.1-1,0.2c-0.4,0.1-0.8,0.3-1.3,0.6v12.2
			c0,0.2-0.1,0.3-0.2,0.4c-0.1,0.1-0.3,0.2-0.4,0.2h-3.7c-0.2,0-0.3-0.1-0.4-0.2c-0.1-0.1-0.2-0.3-0.2-0.4v-16.3
			c0-0.2,0.1-0.3,0.2-0.4c0.1-0.1,0.3-0.2,0.4-0.2h3.5c0.2,0,0.3,0.1,0.4,0.2c0.1,0.1,0.2,0.3,0.2,0.4v0.7c0.7-0.4,1.3-0.8,2.1-1.1
			c0.7-0.3,1.6-0.4,2.4-0.4c0.8,0,1.5,0.1,2.1,0.4c0.6,0.2,1.1,0.6,1.5,1.1c0.4-0.2,0.9-0.5,1.3-0.7c0.4-0.2,0.8-0.4,1.2-0.5
			c0.4-0.1,0.8-0.2,1.2-0.3c0.4-0.1,0.9-0.1,1.4-0.1c1,0,1.8,0.2,2.5,0.5c0.7,0.3,1.2,0.8,1.6,1.4c0.4,0.6,0.7,1.3,0.9,2.1
			c0.2,0.8,0.3,1.7,0.3,2.7V282.8z"/>
		<path class="st0" d="M123.1,263.3c0,0.2-0.1,0.3-0.2,0.4c-0.1,0.1-0.3,0.2-0.4,0.2h-4c-0.2,0-0.3-0.1-0.4-0.2
			c-0.1-0.1-0.2-0.3-0.2-0.4v-2.8c0-0.2,0.1-0.3,0.2-0.4c0.1-0.1,0.3-0.2,0.4-0.2h4c0.2,0,0.3,0.1,0.4,0.2c0.1,0.1,0.2,0.3,0.2,0.4
			V263.3z M123,282.8c0,0.2-0.1,0.3-0.2,0.4c-0.1,0.1-0.3,0.2-0.4,0.2h-3.7c-0.2,0-0.3-0.1-0.4-0.2c-0.1-0.1-0.2-0.3-0.2-0.4v-16.3
			c0-0.2,0.1-0.3,0.2-0.4c0.1-0.1,0.3-0.2,0.4-0.2h3.7c0.2,0,0.3,0.1,0.4,0.2c0.1,0.1,0.2,0.3,0.2,0.4V282.8z"/>
		<path class="st0" d="M150.1,264.4c0,0.2-0.1,0.3-0.2,0.4c-0.1,0.1-0.3,0.2-0.4,0.2h-5v17.8c0,0.2-0.1,0.3-0.2,0.4
			c-0.1,0.1-0.3,0.2-0.4,0.2h-4c-0.2,0-0.3-0.1-0.4-0.2c-0.1-0.1-0.2-0.3-0.2-0.4V265h-5c-0.2,0-0.3-0.1-0.4-0.2
			c-0.1-0.1-0.2-0.3-0.2-0.4v-3.2c0-0.2,0.1-0.3,0.2-0.4c0.1-0.1,0.3-0.2,0.4-0.2h15.2c0.2,0,0.3,0.1,0.4,0.2
			c0.1,0.1,0.2,0.3,0.2,0.4V264.4z"/>
		<path class="st0" d="M164.4,282.8c0,0.2-0.1,0.3-0.2,0.4c-0.1,0.1-0.3,0.2-0.4,0.2h-3.4c-0.2,0-0.3-0.1-0.4-0.2
			c-0.1-0.1-0.2-0.3-0.2-0.4v-0.5c-0.6,0.4-1.2,0.8-1.9,1c-0.7,0.2-1.5,0.4-2.4,0.4c-0.7,0-1.3-0.1-1.9-0.3
			c-0.6-0.2-1.2-0.5-1.7-0.9c-0.5-0.4-0.9-0.9-1.2-1.6s-0.4-1.5-0.4-2.5v-0.3c0-1.8,0.6-3.1,1.8-3.9c1.2-0.8,3.1-1.2,5.7-1.2h1.7
			v-1.1c0-0.9-0.2-1.4-0.6-1.7c-0.4-0.3-1-0.4-1.7-0.4c-0.5,0-1,0-1.5,0c-0.5,0-1,0-1.4,0c-0.5,0-0.9,0-1.2,0.1
			c-0.4,0-0.7,0.1-0.9,0.1h-0.2c-0.2,0-0.3,0-0.4-0.1c-0.1-0.1-0.2-0.2-0.2-0.4v-2.5c0-0.3,0.2-0.6,0.6-0.7c0.6-0.1,1.3-0.3,2.3-0.4
			c1-0.1,2-0.2,3-0.2c1.1,0,2.1,0.1,3,0.4c0.9,0.2,1.6,0.6,2.3,1.1c0.6,0.5,1.1,1.1,1.4,1.9c0.3,0.8,0.5,1.7,0.5,2.9V282.8z
			 M159.5,275.9h-1.7c-0.5,0-1,0-1.3,0.1c-0.3,0.1-0.6,0.2-0.8,0.4c-0.2,0.2-0.3,0.4-0.4,0.7c-0.1,0.3-0.1,0.6-0.1,1v0.3
			c0,0.7,0.2,1.1,0.5,1.3c0.3,0.2,0.8,0.3,1.5,0.3c0.5,0,0.9-0.1,1.3-0.2c0.4-0.1,0.8-0.3,1.2-0.5V275.9z"/>
		<path class="st0" d="M180.3,278.5c0,0.7-0.1,1.4-0.4,2c-0.3,0.6-0.7,1.2-1.2,1.6c-0.5,0.5-1.2,0.8-2,1.1c-0.8,0.3-1.8,0.4-2.9,0.4
			c-0.4,0-0.9,0-1.4,0c-0.5,0-1-0.1-1.5-0.1c-0.5-0.1-1-0.1-1.5-0.2c-0.5-0.1-0.9-0.2-1.3-0.3c-0.4-0.1-0.6-0.3-0.6-0.7v-2.5
			c0-0.2,0.1-0.3,0.2-0.4s0.2-0.2,0.4-0.2h0.1c0.4,0.1,0.9,0.1,1.4,0.2c0.5,0.1,1,0.1,1.5,0.1c0.5,0,0.9,0.1,1.4,0.1
			c0.4,0,0.8,0,1,0c0.7,0,1.2-0.1,1.5-0.3c0.2-0.2,0.4-0.5,0.4-0.9c0-0.2-0.1-0.4-0.2-0.6c-0.2-0.2-0.5-0.4-0.9-0.7l-4-2.3
			c-0.9-0.5-1.5-1.1-2-1.9c-0.5-0.8-0.7-1.6-0.7-2.6c0-1.6,0.5-2.7,1.5-3.5c1-0.8,2.6-1.2,4.7-1.2c1.2,0,2.2,0.1,3,0.2
			c0.8,0.1,1.6,0.3,2.4,0.5c0.4,0.1,0.6,0.3,0.6,0.7v2.5c0,0.4-0.2,0.6-0.5,0.6h-0.1c-0.2,0-0.5-0.1-0.9-0.1
			c-0.4-0.1-0.9-0.1-1.3-0.1c-0.5,0-1-0.1-1.5-0.1c-0.5,0-0.9,0-1.3,0c-0.6,0-1,0.1-1.3,0.2c-0.2,0.1-0.4,0.4-0.4,0.7
			c0,0.2,0.1,0.4,0.2,0.6c0.2,0.2,0.4,0.3,0.7,0.5l3.8,2.2c0.6,0.4,1.1,0.7,1.5,1.1c0.4,0.4,0.7,0.8,0.9,1.2
			c0.2,0.4,0.4,0.8,0.5,1.2C180.3,277.7,180.3,278.1,180.3,278.5z"/>
		<path class="st0" d="M198.1,282c0,0.2-0.1,0.4-0.2,0.6c-0.1,0.1-0.4,0.2-0.8,0.3c-0.9,0.2-1.9,0.4-3,0.6c-1.1,0.2-2.3,0.2-3.5,0.2
			c-2.5,0-4.4-0.7-5.7-2.1c-1.3-1.4-2-3.3-2-5.8v-2.4c0-2.4,0.6-4.3,1.9-5.7c1.3-1.4,3.2-2.1,5.8-2.1c0.3,0,0.7,0,1.1,0.1
			c0.5,0,0.9,0.1,1.4,0.2v-5.3c0-0.2,0.1-0.3,0.2-0.4c0.1-0.1,0.3-0.2,0.4-0.2h3.7c0.2,0,0.3,0.1,0.4,0.2c0.1,0.1,0.2,0.3,0.2,0.4
			V282z M193.1,269.9c-0.4,0-0.8-0.1-1.3-0.1c-0.5,0-0.9,0-1.3,0c-0.6,0-1,0.1-1.3,0.3s-0.6,0.4-0.8,0.8c-0.2,0.3-0.3,0.7-0.4,1.2
			c-0.1,0.5-0.1,1-0.1,1.5v2.4c0,0.6,0,1.1,0.1,1.5c0.1,0.5,0.2,0.9,0.4,1.2c0.2,0.3,0.5,0.6,0.8,0.8s0.8,0.3,1.3,0.3
			c0.5,0,1,0,1.4-0.1c0.4,0,0.8-0.1,1.1-0.1V269.9z"/>
		<path class="st0" d="M216.6,275.5c0,0.5-0.2,0.7-0.6,0.7h-9.8v0.1c0,0.4,0.1,0.8,0.2,1.2c0.1,0.4,0.3,0.8,0.5,1.1
			c0.2,0.3,0.6,0.5,1,0.7c0.4,0.2,0.9,0.3,1.5,0.3c0.5,0,1,0,1.6,0c0.6,0,1.1,0,1.6-0.1c0.5,0,1,0,1.5-0.1c0.5,0,0.9-0.1,1.2-0.1
			h0.1c0.4,0,0.6,0.2,0.6,0.5v2.3c0,0.2,0,0.4-0.1,0.6c-0.1,0.1-0.3,0.2-0.5,0.3c-1,0.2-1.9,0.4-2.9,0.6c-0.9,0.1-2.1,0.2-3.4,0.2
			c-0.9,0-1.8-0.1-2.8-0.4c-0.9-0.3-1.7-0.7-2.5-1.3c-0.7-0.6-1.3-1.4-1.8-2.4c-0.4-1-0.7-2.3-0.7-3.7v-2.1c0-1.2,0.2-2.3,0.5-3.3
			c0.3-1,0.9-1.8,1.5-2.5c0.7-0.7,1.5-1.2,2.4-1.6c1-0.4,2.1-0.6,3.3-0.6c1.2,0,2.3,0.2,3.3,0.6c0.9,0.4,1.7,1,2.4,1.7
			c0.6,0.7,1.1,1.6,1.4,2.5c0.3,1,0.5,2.1,0.5,3.2V275.5z M211.8,273c0-1.1-0.2-2-0.7-2.6c-0.5-0.6-1.2-0.8-2-0.8
			c-0.9,0-1.5,0.3-2.1,0.9c-0.5,0.6-0.8,1.4-0.8,2.5v0.1h5.6V273z"/>
		<path class="st0" d="M234.7,275.5c0,0.5-0.2,0.7-0.6,0.7h-9.8v0.1c0,0.4,0.1,0.8,0.2,1.2c0.1,0.4,0.3,0.8,0.5,1.1
			c0.2,0.3,0.6,0.5,1,0.7c0.4,0.2,0.9,0.3,1.5,0.3c0.5,0,1,0,1.6,0c0.6,0,1.1,0,1.6-0.1c0.5,0,1,0,1.5-0.1c0.5,0,0.9-0.1,1.2-0.1
			h0.1c0.4,0,0.6,0.2,0.6,0.5v2.3c0,0.2,0,0.4-0.1,0.6c-0.1,0.1-0.3,0.2-0.5,0.3c-1,0.2-1.9,0.4-2.9,0.6c-0.9,0.1-2.1,0.2-3.4,0.2
			c-0.9,0-1.8-0.1-2.8-0.4c-0.9-0.3-1.7-0.7-2.5-1.3c-0.7-0.6-1.3-1.4-1.8-2.4c-0.4-1-0.7-2.3-0.7-3.7v-2.1c0-1.2,0.2-2.3,0.5-3.3
			c0.3-1,0.9-1.8,1.5-2.5c0.7-0.7,1.5-1.2,2.4-1.6c1-0.4,2.1-0.6,3.3-0.6c1.2,0,2.3,0.2,3.3,0.6s1.7,1,2.4,1.7
			c0.6,0.7,1.1,1.6,1.4,2.5c0.3,1,0.5,2.1,0.5,3.2V275.5z M229.8,273c0-1.1-0.2-2-0.7-2.6c-0.5-0.6-1.2-0.8-2-0.8
			c-0.9,0-1.5,0.3-2.1,0.9c-0.5,0.6-0.8,1.4-0.8,2.5v0.1h5.6V273z"/>
		<path class="st0" d="M252.5,282c0,0.2-0.1,0.4-0.2,0.6c-0.1,0.1-0.4,0.2-0.8,0.3c-0.9,0.2-1.9,0.4-3,0.6c-1.1,0.2-2.3,0.2-3.5,0.2
			c-2.5,0-4.4-0.7-5.7-2.1c-1.3-1.4-2-3.3-2-5.8v-2.4c0-2.4,0.6-4.3,1.9-5.7c1.3-1.4,3.2-2.1,5.8-2.1c0.3,0,0.7,0,1.1,0.1
			c0.5,0,0.9,0.1,1.4,0.2v-5.3c0-0.2,0.1-0.3,0.2-0.4c0.1-0.1,0.3-0.2,0.4-0.2h3.7c0.2,0,0.3,0.1,0.4,0.2c0.1,0.1,0.2,0.3,0.2,0.4
			V282z M247.5,269.9c-0.4,0-0.8-0.1-1.3-0.1c-0.5,0-0.9,0-1.3,0c-0.6,0-1,0.1-1.3,0.3s-0.6,0.4-0.8,0.8c-0.2,0.3-0.3,0.7-0.4,1.2
			c-0.1,0.5-0.1,1-0.1,1.5v2.4c0,0.6,0,1.1,0.1,1.5c0.1,0.5,0.2,0.9,0.4,1.2c0.2,0.3,0.5,0.6,0.8,0.8s0.8,0.3,1.3,0.3
			c0.5,0,1,0,1.4-0.1c0.4,0,0.8-0.1,1.1-0.1V269.9z"/>
	</g>
	<g>
		<path class="st0" d="M153.5,69.5h27.1l-32.8-32.8v27.1C147.8,66.9,150.4,69.5,153.5,69.5z"/>
		<path class="st0" d="M200.3,112.6c0.4,0.4,0.9,0.4,1.2-0.1l4.7-7.6c0.3-0.5,0.2-1.3-0.1-1.7c0,0-2.2-3.3-3.9-5.4
			c-0.5-0.6-0.9-1.1-0.9-1.1c-0.4-0.4-0.9-0.4-1.2,0.1l-5.7,7.5c-0.4,0.4-0.3,1.1,0.1,1.5L200.3,112.6z"/>
		<path class="st0" d="M196,92.7l9.4,1.1c0.5,0.1,1-0.3,0.9-0.9c0,0-0.1-0.6-0.2-1.4c-0.3-2.6-1.2-6.5-1.2-6.5
			c-0.1-0.5-0.7-1.1-1.2-1.2l-8.7-1.9c-0.5-0.1-0.9,0.3-0.9,0.8l0.8,9C194.9,92.2,195.4,92.7,196,92.7z"/>
		<path class="st0" d="M190.8,147.7l-3.1-3.9l4.1-0.6c0.5-0.1,1-0.6,1-1.2c0,0,0.3-4.8,0.2-7.8c0-0.6,0-0.7,0-0.7
			c0-0.6-0.5-1-1.1-0.9l-7.4,0.2c0.1,0,0.1-0.1,0.2-0.1l5.8-6.9c0.3-0.4,0.3-1.1,0-1.6l-6-6.8c-0.2-0.2-0.5-0.3-0.7-0.3v-5.7
			l8.7,0.1c0.6,0,1-0.4,1-1c0,0,0-0.1,0-0.7c0-3-0.4-7.8-0.4-7.8c0-0.6-0.5-1.1-1.1-1.2l-4.6-0.5l2.6-3.4c0.3-0.5,0.3-1.2-0.1-1.6
			c0,0-3.2-3.6-5.4-5.7c-0.4-0.4-0.5-0.5-0.5-0.5c-0.1-0.1-0.2-0.1-0.3-0.2V76.7h-26.8c-9.4,0-16.4-3.5-16.5-12.9V33.4h-38.7
			c-9.4,0-17,7.6-17,17v2.6c-0.1,0-0.3,0.1-0.4,0.2c0,0-0.1,0.1-0.5,0.5c-2.2,2.2-5.3,5.8-5.3,5.8c-0.4,0.4-0.4,1.1-0.1,1.6l3.1,3.9
			l-4.1,0.6c-0.5,0.1-1,0.6-1,1.2c0,0-0.2,4.8-0.2,7.8c0,0.6,0,0.7,0,0.7c0,0.6,0.5,1,1.1,0.9l7.4-0.3c-0.1,0-0.1,0.1-0.2,0.1
			L78.9,83c-0.3,0.4-0.3,1.1,0,1.6l6,6.8c0,0,0,0,0.1,0v7.2l-7.3-0.1c-0.6,0-1,0.4-1,1c0,0,0,0.1,0,0.7c0,3,0.4,7.8,0.4,7.8
			c0,0.6,0.5,1.1,1.1,1.2l4.6,0.5L80,113c-0.3,0.5-0.3,1.2,0.1,1.6c0,0,2.7,2.9,4.8,5.1v36.4c0,0.2,0,0.4,0,0.6v11
			c0,5.8,6.7,9,11.2,5.3c0,0,0,0,0,0l13.7-8.8c1.6-1.3,3.9-1.3,5.4,0l13.7,9c3.1,2.6,7.7,2.6,10.8,0l13.7-9c1.6-1.3,3.8-1.3,5.4,0
			l13.7,9c4.5,3.7,11.3,0.5,11.3-5.4v-12c0.3,0.1,0.7,0.1,1-0.2c0,0,0.1-0.1,0.5-0.5c2.2-2.2,5.3-5.8,5.3-5.8
			C191.1,148.8,191.1,148.1,190.8,147.7z M162.4,124.6h-56.1c-2.1,0-3.9-1.7-3.9-3.9c0-2.1,1.7-3.9,3.9-3.9h56.1
			c2.1,0,3.9,1.7,3.9,3.9C166.3,122.9,164.6,124.6,162.4,124.6z M162.4,105.6h-56.1c-2.1,0-3.9-1.7-3.9-3.9s1.7-3.9,3.9-3.9h56.1
			c2.1,0,3.9,1.7,3.9,3.9S164.6,105.6,162.4,105.6z"/>
		<path class="st0" d="M205.8,117.1l-9.8-1.8c-0.5-0.1-1,0.2-1.1,0.8l-1.5,9.8c-0.1,0.5,0.3,1,0.8,1.1l9,0.8c0.6,0,1.1-0.4,1.3-0.9
			l2.1-8.8C206.7,117.7,206.3,117.2,205.8,117.1z"/>
		<path class="st0" d="M195.2,155c-0.3-0.5-0.9-0.5-1.2,0l-5.8,6.9c-0.4,0.4-0.4,1.1,0,1.5l5.9,7.4c0.3,0.4,0.9,0.5,1.2,0
			c0,0,0.4-0.5,0.9-1.2c1.6-2.1,3.8-5.5,3.8-5.5c0.3-0.5,0.3-1.2,0-1.7L195.2,155z"/>
		<path class="st0" d="M74,53.1c0.5,0.8,1,1.6,1,1.6c0.3,0.5,0.8,0.5,1,0l4.7-7.6c0.3-0.5,0.3-1.2,0-1.7L75.9,38
			c-0.3-0.5-0.7-0.5-1,0c0,0-0.5,0.8-0.9,1.7c-1.2,2.3-2.7,5.8-2.7,5.8c-0.2,0.5-0.2,1.3,0,1.9C71.2,47.3,72.7,50.8,74,53.1z"/>
		<path class="st0" d="M76.1,111.7l-9-0.8c-0.6,0-1.1,0.4-1.3,0.9l-2.1,8.8c-0.1,0.5,0.2,1.1,0.8,1.1l9.8,1.8c0.5,0.1,1-0.2,1.1-0.8
			l1.5-9.9C77,112.2,76.6,111.7,76.1,111.7z"/>
		<path class="st0" d="M66.8,75.8c0.4,0.4,0.9,0.4,1.2-0.1l5.7-7.5c0.4-0.4,0.3-1.1-0.1-1.5l-6-6.8c-0.4-0.4-0.9-0.4-1.2,0.1
			l-4.7,7.6c-0.3,0.5-0.2,1.3,0.1,1.7c0,0,2.2,3.3,3.9,5.4C66.4,75.3,66.8,75.8,66.8,75.8z"/>
		<path class="st0" d="M74.5,79.8l-9.4-1c-0.5-0.1-1,0.3-0.9,0.9c0,0,0.1,0.6,0.2,1.4c0.3,2.6,1.2,6.5,1.2,6.5
			c0.1,0.5,0.7,1.1,1.2,1.2l8.7,1.9c0.5,0.1,0.9-0.3,0.9-0.8l-0.8-9C75.6,80.4,75.1,79.9,74.5,79.8z"/>
	</g>
</g>
</svg>
