<?xml version="1.0" encoding="utf-8"?>
<!-- Generator: Adobe Illustrator 26.3.1, SVG Export Plug-In . SVG Version: 6.00 Build 0)  -->
<svg version="1.1" id="Layer_1" xmlns="http://www.w3.org/2000/svg" xmlns:xlink="http://www.w3.org/1999/xlink" x="0px" y="0px"
	 viewBox="0 0 268.3 317.1" style="enable-background:new 0 0 268.3 317.1;" xml:space="preserve">
<style type="text/css">
	.st0{fill:#F32735;}
</style>
<g>
	<g>
		<g>
			<path class="st0" d="M15.7,211.8c0.2,0,0.4,0.1,0.5,0.2s0.2,0.3,0.2,0.5c0,0.5-0.1,1-0.1,1.5s0,1,0,1.3c0,1.4,0.1,2.6,0.2,3.7
				c0.1,1.1,0.4,2,0.8,2.7c0.4,0.7,1.1,1.3,1.9,1.7c0.8,0.4,2,0.6,3.5,0.6c0.3,0,0.6,0,0.9,0c0.3,0,0.7-0.1,1.2-0.2
				c0-1.1,0.1-2.1,0.1-3c0-0.9,0-1.8,0-2.8v-8.8c0-0.2,0.1-0.4,0.2-0.5c0.2-0.1,0.3-0.2,0.5-0.2h4.1c0.2,0,0.4,0.1,0.5,0.2
				s0.2,0.3,0.2,0.5v8c0.2,0.2,0.4,0.4,0.8,0.4c0.4,0.1,0.7,0.1,1,0.1h0.6c0.4,0,0.8-0.1,1.1-0.2c0.3-0.1,0.5-0.4,0.5-1V208
				c0-0.2,0.1-0.4,0.2-0.5s0.3-0.2,0.5-0.2h4c0.2,0,0.4,0.1,0.5,0.2c0.1,0.1,0.2,0.3,0.2,0.5v9.2c0.2,0.2,0.5,0.4,0.8,0.4
				c0.4,0.1,0.8,0.1,1.2,0.1h0.5c0.5,0,0.9,0,1.1-0.1s0.3-0.4,0.3-1c0-0.6,0-1.3,0-2.1c0-0.8,0-1.7,0-2.5c0-0.9,0-1.8,0-2.7
				c0-0.9,0-1.8,0-2.6c0-0.2,0.1-0.3,0.2-0.5c0.1-0.1,0.3-0.2,0.5-0.2h3.9c0.3,0,0.5,0.1,0.6,0.2c0.1,0.1,0.2,0.3,0.2,0.5
				c0.1,1.6,0.1,3,0.1,4.3c0,1.3,0,2.5,0,3.7v2.5c0,0.7,0,1.5,0,2.2c0,0.7-0.1,1.5-0.1,2.2c-0.1,0.5-0.3,0.8-0.8,1
				c-0.6,0.2-1.3,0.3-2.1,0.4c-0.8,0.1-1.5,0.1-2.3,0.1h-0.4c-0.4,0-0.9,0-1.4,0c-0.5,0-1.1-0.1-1.6-0.1c-0.6-0.1-1.1-0.2-1.6-0.3
				c-0.5-0.2-1-0.4-1.4-0.6c-0.6,0.5-1.4,0.8-2.3,0.9c-0.9,0.2-1.8,0.2-2.7,0.2h-0.6c-0.2,0-0.5,0-0.7-0.1c-0.2,0-0.5-0.1-0.8-0.2
				c0,0.9,0,1.8,0,2.7c0,0.9,0,1.7-0.1,2.4c0,0.5-0.3,0.8-0.8,0.9c-1.1,0.3-2.1,0.5-3.2,0.6c-1.1,0.2-2.2,0.2-3.4,0.2
				c-2,0-3.7-0.2-5.2-0.6c-1.5-0.4-2.7-1.1-3.7-2c-1-0.9-1.7-2.1-2.2-3.6s-0.8-3.3-0.8-5.4c0-0.3,0-0.6,0-1.1c0-0.4,0.1-0.9,0.1-1.4
				c0-0.5,0.1-1,0.1-1.5s0.1-1,0.2-1.4c0-0.2,0.1-0.4,0.2-0.5c0.1-0.1,0.3-0.2,0.6-0.2H15.7z"/>
			<path class="st0" d="M50.5,227.6c0-0.4,0.2-0.6,0.6-0.6h0.7c0.6,0,1.1,0,1.6-0.1c0.4,0,0.8-0.2,1.1-0.4c0.3-0.2,0.5-0.5,0.6-0.9
				c0.1-0.4,0.2-0.9,0.2-1.6v-16.3c0-0.2,0.1-0.4,0.2-0.5c0.1-0.1,0.3-0.2,0.5-0.2h4.1c0.2,0,0.4,0.1,0.5,0.2
				c0.1,0.1,0.2,0.3,0.2,0.5v9.8H64v5.6h-3.3v1.3c0,0.8-0.1,1.6-0.2,2.3c-0.1,0.7-0.3,1.4-0.6,1.9c-0.6,1.2-1.4,2-2.5,2.5
				c-1,0.5-2.3,0.7-3.9,0.7c-0.1,0-0.3,0-0.5,0c-0.2,0-0.5,0-0.7,0s-0.5,0-0.8-0.1c-0.3,0-0.5-0.1-0.6-0.1c-0.3-0.1-0.5-0.3-0.5-0.7
				V227.6z"/>
			<path class="st0" d="M62.6,217.9c0-0.1,0.1-0.2,0.4-0.3c0.3-0.1,0.5-0.1,0.7-0.1h1.7c0.2,0,0.4,0,0.6,0s0.4-0.1,0.6-0.1
				c0.2-0.1,0.3-0.2,0.4-0.3c0.1-0.2,0.2-0.4,0.2-0.6v-8.6c0-0.2,0.1-0.4,0.2-0.5c0.1-0.1,0.3-0.2,0.6-0.2H72c0.2,0,0.4,0.1,0.5,0.2
				s0.2,0.3,0.2,0.5v9.3c0.1,0.1,0.2,0.2,0.4,0.2c0.2,0.1,0.4,0.1,0.6,0.1c0.2,0,0.4,0.1,0.6,0.1c0.2,0,0.4,0,0.5,0h1.1v5.6h-0.5
				c-1,0-2-0.1-3-0.2c-1-0.2-1.8-0.5-2.5-1c-0.3,0.2-0.7,0.4-1.2,0.6c-0.4,0.2-0.9,0.3-1.4,0.4c-0.5,0.1-0.9,0.2-1.4,0.2
				c-0.5,0-0.9,0.1-1.4,0.1h-0.9c-0.2,0-0.5,0-0.7-0.1c-0.3-0.1-0.4-0.2-0.4-0.3V217.9z M67.1,226.9c0-0.2,0.1-0.4,0.3-0.6
				c0.2-0.2,0.4-0.2,0.6-0.2h3.6c0.2,0,0.4,0.1,0.6,0.2c0.2,0.2,0.3,0.4,0.3,0.6v3.5c0,0.2-0.1,0.4-0.3,0.5
				c-0.2,0.2-0.4,0.2-0.6,0.2H68c-0.2,0-0.4-0.1-0.6-0.2c-0.2-0.2-0.3-0.3-0.3-0.5V226.9z"/>
			<path class="st0" d="M74.5,217.9c0-0.1,0.1-0.2,0.4-0.3c0.3-0.1,0.5-0.1,0.7-0.1h1c0.4,0,0.8-0.1,1.2-0.2c0.3-0.1,0.5-0.4,0.5-1
				v-7c0-0.2,0.1-0.4,0.2-0.5s0.3-0.2,0.5-0.2H83c0.2,0,0.4,0.1,0.5,0.2s0.2,0.3,0.2,0.5v7.9c0.2,0.2,0.5,0.4,0.9,0.4
				c0.4,0.1,0.8,0.1,1,0.1h0.4c0.4,0,0.8-0.1,1.2-0.2c0.4-0.1,0.5-0.4,0.5-0.9V208c0-0.2,0.1-0.4,0.2-0.5s0.3-0.2,0.5-0.2h4
				c0.2,0,0.4,0.1,0.5,0.2c0.2,0.1,0.2,0.3,0.2,0.5v9.2c0.1,0.2,0.4,0.4,0.7,0.4c0.3,0.1,0.7,0.1,1.1,0.1h0.3c0.2,0,0.4,0,0.6,0
				c0.2,0,0.4-0.1,0.6-0.1c0.2-0.1,0.3-0.2,0.4-0.3s0.2-0.3,0.2-0.6v-9.9c0-0.2,0.1-0.4,0.2-0.5c0.1-0.1,0.3-0.2,0.5-0.2h4.1
				c0.2,0,0.4,0.1,0.5,0.2c0.1,0.1,0.2,0.3,0.2,0.5V217c0.1,0.1,0.2,0.2,0.4,0.2c0.2,0.1,0.4,0.1,0.6,0.1c0.2,0,0.4,0.1,0.6,0.1
				c0.2,0,0.4,0,0.5,0h1v5.6h-0.4c-0.8,0-1.7-0.1-2.6-0.3c-1-0.2-1.9-0.5-2.7-1c-0.7,0.5-1.4,0.9-2.2,1c-0.8,0.1-1.6,0.2-2.5,0.2
				h-0.3c-0.8,0-1.6-0.1-2.3-0.3c-0.7-0.2-1.4-0.5-2.2-1c-0.6,0.5-1.3,0.8-2,1c-0.7,0.2-1.5,0.3-2.5,0.3h-0.4
				c-0.8,0-1.5-0.1-2.2-0.2c-0.7-0.2-1.4-0.5-2.2-1c-0.3,0.3-0.7,0.5-1.1,0.6c-0.4,0.2-0.8,0.3-1.3,0.4s-0.9,0.2-1.3,0.2
				c-0.4,0-0.8,0-1.2,0h-0.8c-0.2,0-0.5,0-0.7-0.1c-0.3-0.1-0.4-0.2-0.4-0.3V217.9z"/>
			<path class="st0" d="M104.4,218.2c0-0.2,0.1-0.4,0.4-0.5c0.3-0.1,0.5-0.2,0.8-0.2H119c0.1,0,0.4,0,0.8,0c0.5,0,1,0,1.5,0
				s1,0,1.5,0c0.5,0,0.8,0,0.9,0c0-0.3,0-0.6,0.1-1s0-0.7,0-1c0-1.8-0.6-3-1.7-3.8c-1.1-0.8-2.8-1.2-4.9-1.2h-8
				c-0.6,0-0.9-0.2-0.9-0.6c0,0,0-0.1,0-0.3c0-0.1,0-0.3,0-0.5s0-0.3,0-0.5c0-0.1,0-0.2,0-0.3c0-0.6,0.1-1.2,0.2-1.8
				c0.1-0.6,0.3-1.1,0.5-1.7c0.2-0.6,0.5-1.1,0.7-1.7c0.3-0.6,0.6-1.2,1-1.9l2.7-5.1c0.1-0.2,0.3-0.4,0.4-0.5
				c0.2-0.1,0.4-0.2,0.6-0.2h4.2c0.2,0,0.3,0,0.4,0.1c0.1,0.1,0.1,0.2,0.1,0.3s0,0.3-0.1,0.4l-3.4,6.5c-0.1,0.2-0.2,0.4-0.3,0.6
				c-0.1,0.3-0.3,0.5-0.4,0.8c-0.1,0.3-0.2,0.5-0.3,0.7s-0.1,0.4-0.1,0.4c0.9,0,1.6-0.1,2.2-0.1c0.5,0,1,0,1.5,0
				c2.2,0,4,0.3,5.5,0.8c1.5,0.5,2.7,1.3,3.6,2.2c0.9,1,1.5,2.2,1.9,3.6c0.4,1.4,0.6,3,0.6,4.7v1c0,0.2,0,0.6,0,1
				c0,0.4,0,0.9-0.1,1.3c0,0.4-0.1,0.9-0.1,1.3c0,0.4-0.1,0.8-0.1,1c-0.1,0.4-0.4,0.7-0.9,0.7c-0.4,0-0.9,0.1-1.6,0.1
				c-0.7,0-1.4,0-2.2,0.1c-0.8,0-1.6,0-2.4,0c-0.8,0-1.6,0-2.3,0h-14.3c-0.3,0-0.5-0.1-0.8-0.2s-0.4-0.3-0.4-0.5V218.2z"/>
			<path class="st0" d="M134.3,196.2c0-0.2,0.1-0.4,0.2-0.5c0.1-0.1,0.3-0.2,0.6-0.2h4.1c0.2,0,0.4,0.1,0.5,0.2s0.2,0.3,0.2,0.5
				v26.1c0,0.2-0.1,0.4-0.2,0.5s-0.3,0.2-0.5,0.2h-4.1c-0.2,0-0.4-0.1-0.6-0.2c-0.1-0.2-0.2-0.3-0.2-0.5V196.2z"/>
			<path class="st0" d="M153.7,217.6c0-0.3,0-0.6,0-1s0.1-0.8,0.1-1.3s0.1-0.9,0.1-1.4c0.1-0.5,0.1-0.9,0.2-1.3
				c0-0.2,0.1-0.4,0.2-0.5c0.1-0.1,0.3-0.2,0.5-0.2h3.6c0.4,0,0.6,0.2,0.6,0.6c0,0.5-0.1,1-0.1,1.5c0,0.5,0,0.9,0,1.2
				c0,1.3,0.1,2.5,0.2,3.5c0.2,1.1,0.5,2,1,2.7c0.5,0.8,1.2,1.3,2.1,1.8c0.9,0.4,2.1,0.6,3.6,0.6c0.6,0,1.1,0,1.6-0.1
				s0.9-0.1,1.4-0.2c0-0.6,0-1.1,0.1-1.5c0-0.4,0-0.9,0-1.3c0-0.4,0-0.8,0-1.2c0-0.4,0-0.8,0-1.3v-2.7c0-2.9,0.8-5,2.5-6.4
				c1.7-1.4,4.2-2.1,7.4-2.1c1.1,0,2.1,0,3.1,0.1c1,0.1,1.8,0.2,2.4,0.3c0.2,0,0.3,0.1,0.5,0.2s0.2,0.3,0.2,0.5v7.9
				c0,0.5,0.1,0.8,0.3,1c0.2,0.2,0.6,0.2,1.2,0.2h1.7v5.6H185c-0.9,0-1.7-0.1-2.4-0.2c-0.7-0.1-1.3-0.4-1.7-0.7
				c-0.5-0.4-0.8-0.9-1.1-1.5s-0.4-1.5-0.4-2.6v-5.6c-0.3,0-0.5-0.1-0.7-0.1c-0.2,0-0.4,0-0.7,0c-1.3,0-2.2,0.3-2.8,0.9
				c-0.6,0.6-0.9,1.6-0.9,3v5.6c0,1,0,2,0,3.1c0,1-0.1,2-0.1,3c0,0.4-0.3,0.7-0.8,0.8c-1.1,0.2-2.3,0.3-3.6,0.4
				c-1.3,0.1-2.7,0.1-4.1,0.1c-4.1,0-7.1-0.9-9.1-2.8C154.6,224.5,153.7,221.6,153.7,217.6z M158.4,232.3c0-0.2,0.1-0.4,0.3-0.6
				c0.2-0.1,0.4-0.2,0.6-0.2h3.1c0.2,0,0.4,0.1,0.6,0.2s0.3,0.3,0.3,0.6v3.1c0,0.2-0.1,0.3-0.3,0.5c-0.2,0.1-0.4,0.2-0.6,0.2h-3.1
				c-0.2,0-0.4-0.1-0.6-0.2c-0.2-0.1-0.3-0.3-0.3-0.5V232.3z M165.6,232.3c0-0.2,0.1-0.4,0.3-0.6c0.2-0.1,0.3-0.2,0.5-0.2h3.2
				c0.2,0,0.4,0.1,0.5,0.2c0.2,0.1,0.3,0.3,0.3,0.6v3.1c0,0.2-0.1,0.3-0.3,0.5c-0.2,0.1-0.3,0.2-0.5,0.2h-3.2
				c-0.2,0-0.4-0.1-0.5-0.2c-0.2-0.1-0.3-0.3-0.3-0.5V232.3z"/>
			<path class="st0" d="M186.7,217.9c0-0.1,0.1-0.2,0.4-0.3c0.3-0.1,0.5-0.1,0.7-0.1h1.1c0.3,0,0.7,0,1-0.1c0.4-0.1,0.6-0.3,0.7-0.6
				c0-0.1,0.1-0.2,0.1-0.3s0-0.3,0-0.4v-2.7c0-1.4,0.2-2.6,0.6-3.6c0.4-1,1-1.9,1.7-2.6c0.7-0.7,1.6-1.2,2.7-1.6s2.2-0.5,3.4-0.5
				s2.4,0.2,3.4,0.5c1,0.3,1.9,0.8,2.6,1.5c0.7,0.7,1.3,1.5,1.7,2.6c0.4,1,0.6,2.2,0.6,3.6v2.1c0,0.2,0,0.4,0,0.6
				c0,0.2,0,0.4-0.1,0.6c0.1,0.2,0.2,0.3,0.3,0.4c0.2,0.1,0.3,0.2,0.5,0.3c0.2,0.1,0.4,0.1,0.6,0.1c0.2,0,0.3,0,0.5,0h1v5.6h-0.9
				c-0.8,0-1.6-0.1-2.5-0.3c-0.8-0.2-1.6-0.5-2.3-0.9c-0.7,0.6-1.5,1.1-2.5,1.4c-1,0.3-2,0.4-3.2,0.4c-0.6,0-1.2,0-1.8-0.1
				c-0.6-0.1-1.2-0.2-1.7-0.3c-0.6-0.1-1.1-0.3-1.5-0.6c-0.5-0.2-0.8-0.5-1.1-0.8c-0.5,0.4-1.2,0.7-1.9,0.9
				c-0.8,0.2-1.5,0.3-2.3,0.3h-1c-0.2,0-0.5,0-0.7-0.1c-0.3-0.1-0.4-0.2-0.4-0.3V217.9z M196.1,213.6v1.5c0,0.5,0,1,0.1,1.4
				c0.1,0.8,0.5,1.3,1,1.6c0.5,0.3,1.2,0.5,1.9,0.5c1,0,1.7-0.3,2.2-0.8c0.5-0.5,0.8-1.4,0.8-2.7v-1.5c0-1.3-0.2-2.3-0.7-2.8
				c-0.5-0.5-1.2-0.8-2.3-0.8s-1.8,0.3-2.3,0.8C196.4,211.4,196.1,212.3,196.1,213.6z"/>
			<path class="st0" d="M208.1,226.9c0-0.2,0.1-0.4,0.3-0.6c0.2-0.2,0.4-0.2,0.6-0.2h3.1c0.2,0,0.5,0.1,0.6,0.2
				c0.2,0.2,0.3,0.4,0.3,0.6v3.5c0,0.2-0.1,0.4-0.3,0.5c-0.2,0.2-0.4,0.2-0.6,0.2H209c-0.2,0-0.4-0.1-0.6-0.2
				c-0.2-0.2-0.3-0.3-0.3-0.5V226.9z M209,217.9c0-0.1,0.1-0.2,0.4-0.3c0.3-0.1,0.5-0.1,0.7-0.1h2.1c0.5,0,0.9,0,1.1-0.1
				c0.2-0.1,0.3-0.4,0.3-1c0-1.2,0-2.5,0-4c0-1.5,0-3.1-0.1-4.8c0-0.2,0.1-0.4,0.2-0.5s0.3-0.2,0.5-0.2h4c0.3,0,0.5,0.1,0.6,0.2
				s0.2,0.3,0.2,0.5c0,0.7,0,1.4,0.1,2s0,1.2,0,1.7c0,0.5,0,1.1,0,1.6s0,1.1,0,1.7c0,1.8,0,3.2,0,4.3c0,1.1-0.1,2-0.1,2.7
				c0,0.2-0.1,0.4-0.2,0.6s-0.3,0.3-0.6,0.4c-0.3,0.1-0.7,0.1-1.2,0.2c-0.5,0.1-1.1,0.1-1.7,0.1c-0.6,0-1.2,0.1-1.9,0.1
				s-1.2,0-1.8,0h-1.4c-0.2,0-0.5,0-0.7-0.1c-0.3-0.1-0.4-0.2-0.4-0.3V217.9z M215.5,226.9c0-0.2,0.1-0.4,0.3-0.6
				c0.2-0.2,0.4-0.2,0.6-0.2h3.1c0.2,0,0.4,0.1,0.6,0.2c0.2,0.2,0.3,0.4,0.3,0.6v3.5c0,0.2-0.1,0.4-0.3,0.5
				c-0.2,0.2-0.4,0.2-0.6,0.2h-3.1c-0.2,0-0.4-0.1-0.6-0.2c-0.2-0.2-0.3-0.3-0.3-0.5V226.9z"/>
			<path class="st0" d="M220.2,227.6c0-0.4,0.2-0.6,0.6-0.6h0.7c0.6,0,1.1,0,1.6-0.1c0.4,0,0.8-0.2,1.1-0.4s0.5-0.5,0.6-0.9
				c0.1-0.4,0.2-0.9,0.2-1.6v-16.3c0-0.2,0.1-0.4,0.2-0.5c0.1-0.1,0.3-0.2,0.5-0.2h4.1c0.2,0,0.4,0.1,0.5,0.2s0.2,0.3,0.2,0.5v9.8
				h3.1v5.6h-3.3v1.3c0,0.8-0.1,1.6-0.2,2.3c-0.1,0.7-0.3,1.4-0.6,1.9c-0.6,1.2-1.4,2-2.5,2.5c-1,0.5-2.3,0.7-3.9,0.7
				c-0.1,0-0.3,0-0.5,0s-0.5,0-0.7,0c-0.3,0-0.5,0-0.8-0.1c-0.3,0-0.5-0.1-0.6-0.1c-0.3-0.1-0.5-0.3-0.5-0.7V227.6z"/>
			<path class="st0" d="M232.3,218.2c0-0.2,0.1-0.4,0.4-0.5c0.3-0.1,0.5-0.2,0.8-0.2h13.4c0.1,0,0.4,0,0.8,0c0.5,0,1,0,1.5,0
				c0.5,0,1,0,1.5,0c0.5,0,0.8,0,0.9,0c0-0.3,0-0.6,0.1-1s0-0.7,0-1c0-1.8-0.6-3-1.7-3.8c-1.1-0.8-2.8-1.2-4.9-1.2h-8
				c-0.6,0-0.9-0.2-0.9-0.6c0,0,0-0.1,0-0.3s0-0.3,0-0.5s0-0.3,0-0.5c0-0.1,0-0.2,0-0.3c0-0.6,0.1-1.2,0.2-1.8
				c0.1-0.6,0.3-1.1,0.5-1.7c0.2-0.6,0.5-1.1,0.7-1.7s0.6-1.2,1-1.9l2.7-5.1c0.1-0.2,0.3-0.4,0.4-0.5c0.2-0.1,0.4-0.2,0.6-0.2h4.2
				c0.2,0,0.3,0,0.4,0.1c0.1,0.1,0.1,0.2,0.1,0.3s0,0.3-0.1,0.4l-3.4,6.5c-0.1,0.2-0.2,0.4-0.3,0.6c-0.1,0.3-0.3,0.5-0.4,0.8
				c-0.1,0.3-0.2,0.5-0.3,0.7c-0.1,0.2-0.1,0.4-0.1,0.4c0.9,0,1.6-0.1,2.2-0.1c0.5,0,1,0,1.5,0c2.2,0,4,0.3,5.5,0.8
				c1.5,0.5,2.7,1.3,3.5,2.2c0.9,1,1.5,2.2,1.9,3.6c0.4,1.4,0.6,3,0.6,4.7v1c0,0.2,0,0.6,0,1c0,0.4,0,0.9-0.1,1.3
				c0,0.4-0.1,0.9-0.1,1.3s-0.1,0.8-0.1,1c-0.1,0.4-0.4,0.7-0.9,0.7c-0.4,0-0.9,0.1-1.6,0.1c-0.7,0-1.4,0-2.2,0.1
				c-0.8,0-1.6,0-2.4,0c-0.8,0-1.6,0-2.3,0h-14.3c-0.3,0-0.5-0.1-0.8-0.2c-0.3-0.1-0.4-0.3-0.4-0.5V218.2z"/>
		</g>
	</g>
	<g>
		<g>
			<path class="st0" d="M28,246.4c0,0.1-0.1,0.3-0.2,0.5l-7.9,11.2l7.9,11.9c0.1,0.1,0.1,0.2,0.1,0.4c0,0.2-0.2,0.3-0.5,0.3h-5.7
				c-0.2,0-0.3,0-0.4-0.1c-0.1-0.1-0.2-0.2-0.3-0.3l-6.8-11v10.8c0,0.2-0.1,0.3-0.2,0.5c-0.1,0.1-0.3,0.2-0.5,0.2H9.3
				c-0.2,0-0.3-0.1-0.5-0.2c-0.1-0.1-0.2-0.3-0.2-0.5v-23.4c0-0.2,0.1-0.3,0.2-0.4c0.1-0.1,0.3-0.2,0.5-0.2h4.4
				c0.2,0,0.3,0.1,0.5,0.2s0.2,0.3,0.2,0.4v10.6l7.3-10.8c0.2-0.3,0.4-0.4,0.7-0.4h5.1C27.8,246,28,246.2,28,246.4z"/>
			<path class="st0" d="M45.6,270.1c0,0.2-0.1,0.3-0.2,0.5c-0.1,0.1-0.3,0.2-0.5,0.2h-3.7c-0.2,0-0.3-0.1-0.5-0.2s-0.2-0.3-0.2-0.5
				v-0.8c-0.9,0.6-1.8,1.1-2.6,1.4c-0.8,0.3-1.8,0.4-2.8,0.4c-1.2,0-2.2-0.2-2.9-0.6c-0.8-0.4-1.4-0.9-1.8-1.6s-0.7-1.5-0.9-2.4
				c-0.2-0.9-0.2-1.9-0.2-2.9v-11.1c0-0.2,0.1-0.3,0.2-0.5c0.1-0.1,0.3-0.2,0.5-0.2h4c0.2,0,0.3,0.1,0.5,0.2
				c0.1,0.1,0.2,0.3,0.2,0.5v11c0,0.6,0,1.1,0.1,1.5c0.1,0.4,0.2,0.7,0.4,1c0.2,0.2,0.4,0.4,0.7,0.5c0.3,0.1,0.7,0.1,1.2,0.1
				c0.5,0,1-0.1,1.5-0.3c0.5-0.2,1.1-0.5,1.6-0.8v-13.1c0-0.2,0.1-0.3,0.2-0.5c0.1-0.1,0.3-0.2,0.5-0.2h4c0.2,0,0.3,0.1,0.5,0.2
				c0.1,0.1,0.2,0.3,0.2,0.5V270.1z"/>
			<path class="st0" d="M60.1,255.3c0,0.2,0,0.3-0.1,0.4s-0.2,0.2-0.4,0.2h-0.3c-0.8,0-1.6,0.1-2.3,0.3c-0.7,0.2-1.4,0.5-2,0.8v13
				c0,0.2-0.1,0.3-0.2,0.5c-0.1,0.1-0.3,0.2-0.5,0.2h-4c-0.2,0-0.3-0.1-0.5-0.2c-0.1-0.1-0.2-0.3-0.2-0.5v-17.7
				c0-0.2,0.1-0.3,0.2-0.5c0.1-0.1,0.3-0.2,0.5-0.2h4c0.2,0,0.3,0.1,0.5,0.2c0.1,0.1,0.2,0.3,0.2,0.5v0.7c0.6-0.5,1.3-0.9,2.1-1.2
				c0.8-0.3,1.6-0.4,2.4-0.4c0.2,0,0.3,0.1,0.5,0.2c0.1,0.1,0.2,0.3,0.2,0.5V255.3z"/>
			<path class="st0" d="M76.7,270.1c0,0.2-0.1,0.3-0.2,0.5c-0.1,0.1-0.3,0.2-0.5,0.2h-3.7c-0.2,0-0.3-0.1-0.5-0.2
				c-0.1-0.1-0.2-0.3-0.2-0.5v-0.5c-0.6,0.5-1.3,0.8-2,1.1s-1.6,0.4-2.6,0.4c-0.7,0-1.4-0.1-2.1-0.3c-0.7-0.2-1.3-0.5-1.8-0.9
				c-0.5-0.4-1-1-1.3-1.8c-0.3-0.7-0.5-1.6-0.5-2.7V265c0-2,0.6-3.4,1.9-4.3s3.4-1.3,6.2-1.3h1.8v-1.2c0-1-0.2-1.6-0.7-1.9
				c-0.4-0.3-1.1-0.4-1.8-0.4c-0.5,0-1.1,0-1.6,0c-0.5,0-1.1,0-1.6,0.1c-0.5,0-0.9,0.1-1.3,0.1s-0.7,0.1-1,0.1h-0.2
				c-0.2,0-0.3,0-0.4-0.1c-0.1-0.1-0.2-0.2-0.2-0.5v-2.7c0-0.4,0.2-0.6,0.6-0.7c0.6-0.2,1.5-0.3,2.5-0.5c1.1-0.2,2.1-0.2,3.2-0.2
				c1.2,0,2.3,0.1,3.2,0.4c1,0.3,1.8,0.7,2.4,1.2c0.7,0.5,1.2,1.2,1.5,2.1c0.4,0.9,0.5,1.9,0.5,3.1V270.1z M71.5,262.6h-1.9
				c-0.6,0-1.1,0.1-1.4,0.1c-0.4,0.1-0.7,0.3-0.9,0.4c-0.2,0.2-0.4,0.5-0.5,0.8c-0.1,0.3-0.1,0.7-0.1,1.1v0.3c0,0.7,0.2,1.2,0.5,1.4
				c0.3,0.2,0.9,0.3,1.6,0.3c0.5,0,1-0.1,1.4-0.2c0.5-0.1,0.9-0.3,1.3-0.5V262.6z"/>
			<path class="st0" d="M86.4,248.9c0,0.2-0.1,0.3-0.2,0.5c-0.1,0.1-0.3,0.2-0.5,0.2h-4.3c-0.2,0-0.3-0.1-0.5-0.2
				c-0.1-0.1-0.2-0.3-0.2-0.5v-3.1c0-0.2,0.1-0.3,0.2-0.5c0.1-0.1,0.3-0.2,0.5-0.2h4.3c0.2,0,0.3,0.1,0.5,0.2
				c0.1,0.1,0.2,0.3,0.2,0.5V248.9z M86.2,270.1c0,0.2-0.1,0.3-0.2,0.5c-0.1,0.1-0.3,0.2-0.5,0.2h-4.1c-0.2,0-0.3-0.1-0.5-0.2
				c-0.1-0.1-0.2-0.3-0.2-0.5v-17.7c0-0.2,0.1-0.3,0.2-0.5c0.1-0.1,0.3-0.2,0.5-0.2h4.1c0.2,0,0.3,0.1,0.5,0.2
				c0.1,0.1,0.2,0.3,0.2,0.5V270.1z"/>
			<path class="st0" d="M115.5,270c0,0.2-0.1,0.3-0.2,0.5c-0.1,0.1-0.3,0.2-0.5,0.2h-4c-0.2,0-0.3-0.1-0.5-0.2s-0.2-0.3-0.2-0.5
				v-11.4c0-1.1-0.1-1.8-0.4-2.2c-0.3-0.4-0.8-0.6-1.6-0.6c-0.3,0-0.7,0-1.1,0.1c-0.5,0.1-0.9,0.2-1.4,0.5c0.1,0.7,0.1,1.4,0.1,2.2
				V270c0,0.2-0.1,0.3-0.2,0.5s-0.3,0.2-0.5,0.2h-4c-0.2,0-0.3-0.1-0.5-0.2c-0.1-0.1-0.2-0.3-0.2-0.5v-11.4c0-1.1-0.1-1.8-0.4-2.2
				c-0.3-0.4-0.8-0.6-1.5-0.6c-0.3,0-0.7,0.1-1.1,0.2c-0.4,0.2-0.9,0.4-1.4,0.6V270c0,0.2-0.1,0.3-0.2,0.5c-0.1,0.1-0.3,0.2-0.5,0.2
				h-4c-0.2,0-0.3-0.1-0.5-0.2c-0.1-0.1-0.2-0.3-0.2-0.5v-17.7c0-0.2,0.1-0.3,0.2-0.5c0.1-0.1,0.3-0.2,0.5-0.2h3.8
				c0.2,0,0.3,0.1,0.5,0.2c0.1,0.1,0.2,0.3,0.2,0.5v0.7c0.7-0.5,1.5-0.9,2.3-1.2c0.8-0.3,1.7-0.5,2.7-0.5c0.9,0,1.6,0.1,2.3,0.4
				c0.6,0.3,1.2,0.7,1.6,1.2c0.5-0.3,0.9-0.5,1.4-0.7c0.4-0.2,0.8-0.4,1.3-0.5c0.4-0.1,0.9-0.2,1.3-0.3c0.5-0.1,0.9-0.1,1.5-0.1
				c1.1,0,2,0.2,2.7,0.5c0.7,0.4,1.3,0.8,1.8,1.5c0.4,0.6,0.7,1.4,0.9,2.3c0.2,0.9,0.3,1.9,0.3,3V270z"/>
			<path class="st0" d="M125.1,248.9c0,0.2-0.1,0.3-0.2,0.5c-0.1,0.1-0.3,0.2-0.5,0.2h-4.3c-0.2,0-0.3-0.1-0.5-0.2
				c-0.1-0.1-0.2-0.3-0.2-0.5v-3.1c0-0.2,0.1-0.3,0.2-0.5c0.1-0.1,0.3-0.2,0.5-0.2h4.3c0.2,0,0.3,0.1,0.5,0.2
				c0.1,0.1,0.2,0.3,0.2,0.5V248.9z M125,270.1c0,0.2-0.1,0.3-0.2,0.5c-0.1,0.1-0.3,0.2-0.5,0.2h-4.1c-0.2,0-0.3-0.1-0.5-0.2
				c-0.1-0.1-0.2-0.3-0.2-0.5v-17.7c0-0.2,0.1-0.3,0.2-0.5c0.1-0.1,0.3-0.2,0.5-0.2h4.1c0.2,0,0.3,0.1,0.5,0.2
				c0.1,0.1,0.2,0.3,0.2,0.5V270.1z"/>
			<path class="st0" d="M153.2,269.9c0,0.4-0.2,0.6-0.7,0.7c-0.6,0.1-1.3,0.2-2.3,0.3c-1,0.1-2.3,0.1-4.1,0.1
				c-1.1,0-2.1-0.1-3.1-0.3s-1.8-0.5-2.6-1c-0.7-0.5-1.3-1.2-1.8-2.2c-0.4-0.9-0.7-2.2-0.7-3.7v-11c0-1.5,0.2-2.7,0.7-3.7
				c0.4-0.9,1-1.7,1.8-2.2c0.7-0.5,1.6-0.9,2.6-1c1-0.2,2-0.3,3.1-0.3c0.9,0,1.7,0,2.3,0.1c0.7,0,1.3,0.1,1.8,0.1
				c0.5,0,0.9,0.1,1.3,0.1c0.4,0,0.7,0.1,1,0.1c0.4,0.1,0.7,0.3,0.7,0.7v3.1c0,0.2-0.1,0.3-0.2,0.5c-0.1,0.1-0.3,0.2-0.5,0.2h-6.7
				c-0.8,0-1.3,0.2-1.6,0.5c-0.3,0.3-0.5,0.9-0.5,1.8v3h8.6c0.2,0,0.3,0.1,0.5,0.2c0.1,0.1,0.2,0.3,0.2,0.5v3.2
				c0,0.2-0.1,0.3-0.2,0.5c-0.1,0.1-0.3,0.2-0.5,0.2h-8.6v3.5c0,0.9,0.2,1.5,0.5,1.8c0.3,0.3,0.9,0.5,1.6,0.5h6.7
				c0.2,0,0.3,0.1,0.5,0.2c0.1,0.1,0.2,0.3,0.2,0.5V269.9z"/>
			<path class="st0" d="M174.5,270.3c0,0.1,0,0.2-0.1,0.3c-0.1,0.1-0.2,0.1-0.3,0.1h-5c-0.2,0-0.3-0.1-0.4-0.2
				c-0.1-0.1-0.3-0.3-0.4-0.5l-3.3-5.2l-3.1,5.2c-0.2,0.2-0.3,0.4-0.4,0.5c-0.1,0.1-0.3,0.1-0.4,0.1h-4.5c-0.2,0-0.4-0.1-0.4-0.4
				c0-0.1,0-0.2,0.1-0.3l5.8-9.2l-5.7-8.4c0-0.1-0.1-0.2-0.1-0.2c0-0.1,0.1-0.3,0.1-0.3c0.1-0.1,0.2-0.1,0.3-0.1h5
				c0.2,0,0.3,0.1,0.4,0.2s0.3,0.3,0.4,0.5l3,4.6l2.7-4.6c0.2-0.2,0.3-0.4,0.4-0.5c0.1-0.1,0.3-0.2,0.4-0.2h4.5
				c0.3,0,0.4,0.1,0.4,0.4c0,0.1,0,0.2-0.1,0.3l-5.5,8.7l6,8.9C174.5,270.1,174.5,270.2,174.5,270.3z"/>
			<path class="st0" d="M194,262.5c0,2.6-0.7,4.7-2.1,6.2c-1.4,1.5-3.5,2.3-6.3,2.3c-0.3,0-0.7,0-1.2-0.1c-0.5,0-1-0.1-1.5-0.2v5.8
				c0,0.2-0.1,0.3-0.2,0.5c-0.1,0.1-0.3,0.2-0.5,0.2h-4c-0.2,0-0.3-0.1-0.5-0.2c-0.1-0.1-0.2-0.3-0.2-0.5v-23.3
				c0-0.3,0.1-0.5,0.2-0.6c0.1-0.1,0.4-0.3,0.8-0.4c1-0.2,2.1-0.4,3.3-0.6c1.2-0.2,2.5-0.2,3.8-0.2c2.7,0,4.8,0.7,6.2,2.2
				c1.4,1.5,2.1,3.6,2.1,6.3V262.5z M188.6,260c0-0.6,0-1.1-0.1-1.6s-0.2-0.9-0.5-1.3c-0.2-0.4-0.5-0.6-0.9-0.8
				c-0.4-0.2-0.9-0.3-1.5-0.3c-0.6,0-1.1,0-1.5,0c-0.5,0-0.9,0.1-1.2,0.1v10.3c0.4,0,0.9,0.1,1.4,0.1c0.5,0,1,0.1,1.4,0.1
				c0.6,0,1.1-0.1,1.5-0.3c0.4-0.2,0.7-0.5,0.9-0.9c0.2-0.4,0.4-0.8,0.5-1.3c0.1-0.5,0.1-1,0.1-1.6V260z"/>
			<path class="st0" d="M207.9,255.3c0,0.2,0,0.3-0.1,0.4s-0.2,0.2-0.4,0.2h-0.3c-0.8,0-1.6,0.1-2.3,0.3c-0.7,0.2-1.4,0.5-2,0.8v13
				c0,0.2-0.1,0.3-0.2,0.5s-0.3,0.2-0.5,0.2h-4c-0.2,0-0.3-0.1-0.5-0.2c-0.1-0.1-0.2-0.3-0.2-0.5v-17.7c0-0.2,0.1-0.3,0.2-0.5
				c0.1-0.1,0.3-0.2,0.5-0.2h4c0.2,0,0.3,0.1,0.5,0.2c0.1,0.1,0.2,0.3,0.2,0.5v0.7c0.6-0.5,1.3-0.9,2.1-1.2c0.8-0.3,1.6-0.4,2.4-0.4
				c0.2,0,0.3,0.1,0.5,0.2c0.1,0.1,0.2,0.3,0.2,0.5V255.3z"/>
			<path class="st0" d="M226.2,262.1c0,0.5-0.2,0.8-0.7,0.8h-10.6v0.1c0,0.5,0.1,0.9,0.2,1.4c0.1,0.4,0.3,0.8,0.6,1.2
				c0.3,0.3,0.6,0.6,1,0.8c0.4,0.2,1,0.3,1.6,0.3c0.5,0,1.1,0,1.7,0c0.6,0,1.2,0,1.8-0.1c0.6,0,1.1-0.1,1.6-0.1
				c0.5,0,0.9-0.1,1.3-0.1h0.1c0.4,0,0.6,0.2,0.6,0.5v2.5c0,0.3,0,0.5-0.1,0.6s-0.3,0.2-0.6,0.3c-1.1,0.3-2.1,0.5-3.1,0.6
				c-1,0.1-2.3,0.2-3.7,0.2c-1,0-2-0.1-3-0.4c-1-0.3-1.9-0.8-2.7-1.4c-0.8-0.7-1.4-1.5-1.9-2.6c-0.5-1.1-0.7-2.4-0.7-4v-2.3
				c0-1.3,0.2-2.5,0.6-3.6c0.4-1.1,0.9-2,1.6-2.8c0.7-0.8,1.6-1.3,2.6-1.7c1-0.4,2.2-0.6,3.6-0.6c1.4,0,2.5,0.2,3.6,0.7
				c1,0.4,1.9,1.1,2.6,1.8c0.7,0.8,1.2,1.7,1.5,2.8c0.3,1.1,0.5,2.2,0.5,3.5V262.1z M220.9,259.4c0-1.2-0.3-2.2-0.8-2.8
				c-0.5-0.6-1.3-0.9-2.2-0.9s-1.7,0.3-2.2,0.9c-0.6,0.6-0.8,1.5-0.8,2.8v0.1h6.1V259.4z"/>
			<path class="st0" d="M243,265.5c0,0.8-0.1,1.5-0.4,2.2s-0.7,1.3-1.3,1.8c-0.6,0.5-1.3,0.9-2.2,1.2c-0.9,0.3-1.9,0.4-3.2,0.4
				c-0.5,0-1,0-1.5-0.1c-0.5,0-1.1-0.1-1.6-0.1c-0.5-0.1-1.1-0.1-1.6-0.2c-0.5-0.1-1-0.2-1.4-0.3c-0.4-0.1-0.6-0.4-0.6-0.8v-2.7
				c0-0.2,0.1-0.3,0.2-0.4s0.3-0.2,0.5-0.2h0.1c0.4,0.1,0.9,0.1,1.5,0.2c0.5,0.1,1.1,0.1,1.6,0.1c0.5,0,1,0.1,1.5,0.1
				c0.5,0,0.8,0,1.1,0c0.8,0,1.3-0.1,1.6-0.3c0.3-0.2,0.4-0.5,0.4-1c0-0.2-0.1-0.5-0.3-0.7s-0.5-0.4-1-0.7l-4.3-2.5
				c-0.9-0.5-1.7-1.2-2.2-2c-0.5-0.8-0.8-1.8-0.8-2.9c0-1.7,0.6-3,1.7-3.8c1.1-0.9,2.8-1.3,5.1-1.3c1.3,0,2.4,0.1,3.3,0.2
				s1.8,0.3,2.6,0.5c0.4,0.1,0.6,0.4,0.6,0.8v2.7c0,0.4-0.2,0.6-0.6,0.6h-0.1c-0.2,0-0.6-0.1-1-0.1s-0.9-0.1-1.4-0.1
				c-0.5,0-1.1-0.1-1.6-0.1c-0.5,0-1-0.1-1.4-0.1c-0.6,0-1.1,0.1-1.4,0.2c-0.3,0.1-0.4,0.4-0.4,0.8c0,0.2,0.1,0.4,0.3,0.6
				c0.2,0.2,0.4,0.3,0.8,0.5l4.1,2.4c0.7,0.4,1.2,0.8,1.7,1.2c0.4,0.4,0.8,0.8,1,1.3c0.3,0.4,0.4,0.9,0.5,1.3
				C242.9,264.6,243,265,243,265.5z"/>
			<path class="st0" d="M259.7,265.5c0,0.8-0.1,1.5-0.4,2.2c-0.3,0.7-0.7,1.3-1.3,1.8c-0.6,0.5-1.3,0.9-2.2,1.2
				c-0.9,0.3-1.9,0.4-3.2,0.4c-0.5,0-1,0-1.5-0.1c-0.5,0-1.1-0.1-1.6-0.1c-0.5-0.1-1.1-0.1-1.6-0.2c-0.5-0.1-1-0.2-1.4-0.3
				c-0.4-0.1-0.6-0.4-0.6-0.8v-2.7c0-0.2,0.1-0.3,0.2-0.4c0.1-0.1,0.3-0.2,0.5-0.2h0.1c0.4,0.1,0.9,0.1,1.5,0.2
				c0.5,0.1,1.1,0.1,1.6,0.1c0.5,0,1,0.1,1.5,0.1c0.5,0,0.8,0,1.1,0c0.8,0,1.3-0.1,1.6-0.3c0.3-0.2,0.4-0.5,0.4-1
				c0-0.2-0.1-0.5-0.3-0.7c-0.2-0.2-0.5-0.4-1-0.7l-4.3-2.5c-0.9-0.5-1.7-1.2-2.2-2c-0.5-0.8-0.8-1.8-0.8-2.9c0-1.7,0.6-3,1.7-3.8
				c1.1-0.9,2.8-1.3,5.1-1.3c1.3,0,2.4,0.1,3.3,0.2c0.9,0.1,1.8,0.3,2.6,0.5c0.4,0.1,0.6,0.4,0.6,0.8v2.7c0,0.4-0.2,0.6-0.6,0.6
				h-0.1c-0.2,0-0.6-0.1-1-0.1c-0.4-0.1-0.9-0.1-1.4-0.1c-0.5,0-1.1-0.1-1.6-0.1c-0.5,0-1-0.1-1.4-0.1c-0.6,0-1.1,0.1-1.4,0.2
				c-0.3,0.1-0.4,0.4-0.4,0.8c0,0.2,0.1,0.4,0.3,0.6c0.2,0.2,0.4,0.3,0.8,0.5l4.1,2.4c0.7,0.4,1.2,0.8,1.7,1.2
				c0.4,0.4,0.8,0.8,1,1.3c0.3,0.4,0.4,0.9,0.5,1.3C259.7,264.6,259.7,265,259.7,265.5z"/>
		</g>
	</g>
	<g>
		<path class="st0" d="M162.7,62.6l-24.1-0.1l0.3-0.1l-8.6-8.6c-0.5-0.5-1.2-0.1-1.2,0.5v9.6l0,0l0.1,33.3c0,0.6,0.6,0.9,1.1,0.6
			L163.1,64C163.7,63.6,163.4,62.6,162.7,62.6z"/>
		<path class="st0" d="M163.1,144.1l-32.8-33.8c-0.5-0.3-1.1,0-1.1,0.6l-0.1,33.3l0,0v9.6c0,0.6,0.8,1,1.2,0.5l8.6-8.6l-0.3-0.1
			l24.1-0.1C163.4,145.4,163.7,144.5,163.1,144.1z"/>
		<path class="st0" d="M113.9,97.2V67.1c0-0.7-1.4-1-1.7-0.4L91,103.5c-0.2,0.4-0.2,0.9,0,1.3l21.9,36.7c0.4,0.6,0.9,0.4,0.9-0.4
			v-30.2l-4-6.8L113.9,97.2z"/>
		<path class="st0" d="M185.6,66.4l-38.7,37.1c-0.5,0.3-0.5,0.9,0,1.2l37.1,37.1c0.6,0.5,1.5-0.2,1.2-0.9c0,0-6.1-22.7-8.3-31
			l-5.8-5.8l6.2-6.2l9.5-30.6C187,66.6,186.2,65.9,185.6,66.4z"/>
		<g>
			<path class="st0" d="M102.6,52.7c0.3,0.3,0.7,0.1,0.8-0.3c0,0,0.1-0.8,0.2-1.5c0.3-2.1,0.3-5.1,0.3-5.1c0-0.4-0.2-1.1-0.6-1.4
				c0,0-2.2-2.2-3.8-3.5C99,40.4,98.4,40,98.4,40c-0.4-0.3-0.7-0.1-0.8,0.3l-1.3,7c-0.1,0.4,0.1,1,0.5,1.2L102.6,52.7z"/>
			<path class="st0" d="M81.5,93.6c-0.1,0.4,0.1,0.8,0.6,0.8l7.5,0.6c0.4,0,0.9-0.3,1-0.7l1.9-7c0.1-0.4-0.1-0.8-0.6-0.8l-7.1,0.2
				c-0.4,0-0.9,0.4-1.1,0.8c0,0-1.2,3-1.9,5C81.7,93.1,81.5,93.6,81.5,93.6z"/>
			<path class="st0" d="M85.3,56.8l7.6-0.3c0.4,0,0.7-0.4,0.6-0.8c0,0-0.1-0.5-0.3-1.1c-0.6-2-1.7-5-1.7-5c-0.2-0.4-0.6-0.8-1.1-0.8
				l-7.1-0.4c-0.4,0-0.7,0.3-0.6,0.8l1.7,7C84.5,56.5,84.9,56.9,85.3,56.8z"/>
		</g>
		<path class="st0" d="M108,61.6c-0.3-0.3-0.7-0.2-0.8,0.2c0,0-0.2,0.7-0.3,1.5c-0.4,2-0.7,5.1-0.7,5.1c0,0.4,0.2,1.1,0.5,1.4
			l3.5,3.8c0.6,0.5,1.1,1,1.1,1c0.3,0.3,0.7,0.2,0.8-0.3l1.8-6.9c0.1-0.4-0.1-1-0.4-1.3L108,61.6z"/>
		<path class="st0" d="M97.9,61.3L91,63.1c-0.4,0.1-0.6,0.5-0.3,0.9l3.9,6.1c0.2,0.4,0.7,0.6,1.2,0.4l7.1-2.7
			c0.4-0.1,0.6-0.6,0.3-0.9c0,0-0.3-0.4-0.7-1c-1.2-1.7-3.3-4.2-3.3-4.2C98.9,61.4,98.3,61.2,97.9,61.3z"/>
		<path class="st0" d="M109.2,72l-6,0.4c-0.6,0-1,0.5-0.9,1.1l1.1,8.5"/>
		<path class="st0" d="M103.8,80.9L98,79.6c-0.6-0.1-1.1,0.2-1.2,0.8l-1.2,7.6c-0.1,0.5,0.3,0.9,0.8,1l6.3,0.7"/>
	</g>
</g>
</svg>
