<?xml version="1.0" encoding="utf-8"?>
<!-- Generator: Adobe Illustrator 26.3.1, SVG Export Plug-In . SVG Version: 6.00 Build 0)  -->
<svg version="1.1" id="Layer_1" xmlns="http://www.w3.org/2000/svg" xmlns:xlink="http://www.w3.org/1999/xlink" x="0px" y="0px"
	 viewBox="0 0 268.3 317.1" style="enable-background:new 0 0 268.3 317.1;" xml:space="preserve">
<style type="text/css">
	.st0{fill:#7E37C3;}
	.st1{fill:#FFFFFF;}
</style>
<g>
	<g>
		<path class="st0" d="M62.9,62.1L73,59.9c0.7-0.1,1.3-0.7,1.4-1.4l2.4-10c0.1-0.6-0.1-1-0.8-0.8c0,0-1.1,0.3-2.1,0.6
			c-2.9,0.8-7,2.4-7,2.4c-0.6,0.3-1.3,0.8-1.5,1.5c0,0-1.7,4.1-2.5,7c-0.3,1-0.6,2.1-0.6,2.1C62,61.8,62.4,62.3,62.9,62.1z"/>
		<path class="st0" d="M42.9,110.2c-0.3-0.6-0.8-0.6-1.1,0c0,0-0.6,1-1.1,1.8c-1.5,2.7-3.2,6.7-3.2,6.7c-0.3,0.6-0.3,1.5,0,2.1
			c0,0,1.7,4.1,3.1,6.7c0.6,1,1.1,2,1.1,2c0.3,0.6,0.8,0.6,1.1,0l5.6-8.7c0.4-0.6,0.4-1.4,0-2L42.9,110.2z"/>
		<path class="st0" d="M125,29.1l8.7,5.6c0.6,0.4,1.4,0.4,2,0l8.7-5.5c0.6-0.3,0.6-0.8,0-1.1c0,0-1-0.6-1.8-1.1
			c-2.7-1.5-6.7-3.2-6.7-3.2c-0.6-0.3-1.5-0.3-2.1,0c0,0-4.1,1.7-6.7,3.1c-1,0.6-2,1.1-2,1.1C124.5,28.2,124.5,28.7,125,29.1z"/>
		<path class="st0" d="M74.4,182c-0.1-0.6-0.7-1.3-1.4-1.4l-10.1-2.2c-0.6-0.1-1,0.3-0.8,0.8c0,0,0.3,1.1,0.6,2.1
			c0.8,2.9,2.5,7,2.5,7c0.3,0.6,1,1.3,1.5,1.5c0,0,4.1,1.7,7,2.4c1.1,0.3,2.1,0.6,2.1,0.6c0.6,0.1,1-0.3,0.8-0.8L74.4,182z"/>
		<path class="st0" d="M194.4,59.2c0.1,0.7,0.7,1.3,1.4,1.4l10,2.4c0.6,0.1,1-0.1,0.8-0.8c0,0-0.3-1.1-0.6-2.1c-0.8-2.9-2.4-7-2.4-7
			c-0.3-0.6-1-1.3-1.5-1.5c0,0-4.1-1.7-7-2.5c-1.1-0.3-2.1-0.6-2.1-0.6c-0.6-0.1-1,0.3-0.8,0.8L194.4,59.2z"/>
		<path class="st0" d="M144.3,211.7l-8.7-5.5c-0.6-0.4-1.4-0.4-2,0l-8.7,5.6c-0.6,0.3-0.6,0.8,0,1.1c0,0,1,0.6,2,1.1
			c2.7,1.4,6.7,3.1,6.7,3.1c0.6,0.3,1.5,0.3,2.1,0c0,0,4.1-1.8,6.7-3.2c1-0.6,1.8-1.1,1.8-1.1C144.9,212.5,144.9,212,144.3,211.7z"
			/>
		<path class="st0" d="M205.6,95.1c-0.6-0.7-1.1-1.3-1.1-1.3c-0.4-0.4-1.1-0.4-1.4,0l-6.2,8.1c0-1.3-0.1-2.1-0.1-2.2
			c-0.1-1.4-1.1-2.5-2.5-2.8l-2.2-0.3l1.4-1.8c0.8-1.1,0.7-2.8-0.3-3.8c0-0.1-0.8-1-1.8-2.1l10.4,1.4c0.7,0.1,1.1-0.3,1.1-1
			c0,0,0-0.7-0.1-1.7c-0.3-3.1-1.3-7.6-1.3-7.6c-0.1-0.6-0.7-1.3-1.4-1.4l-10-2.4c-0.6-0.1-1.1,0.3-1,1l0.7,10c-1-1-2-2-2.8-2.8
			c-0.6-0.4-0.7-0.6-0.7-0.6c-0.6-0.6-1.3-0.7-2-0.7c-0.7,0-1.4,0.4-1.8,0.8l-4.1,4.4l-0.6-8.1c-0.1-1.4-1.3-2.5-2.7-2.7l-8.7-0.7
			l4.5-4.2c0.6-0.4,0.8-1.1,1-1.8c0-0.7-0.1-1.4-0.7-2c0,0-0.1-0.1-0.6-0.6c-0.8-0.8-1.8-1.8-2.8-2.7l8.8,0.7c0.7,0.1,1.1-0.4,1-1
			l-2.2-10.1c-0.1-0.6-0.8-1.3-1.4-1.4c0,0-4.5-1-7.6-1.4c-1-0.1-1.7-0.1-1.7-0.1c-0.7,0-1.1,0.4-1,1l1.1,9.5c-0.6-0.6-1-0.8-1-1
			c-1-1-2.7-1-3.8-0.1l-2.4,1.8l-0.3-2.5c-0.1-1.4-1.4-2.5-2.8-2.5c-0.1,0-1,0-2.2-0.1l8.4-6.5c0.6-0.4,0.6-1,0-1.4
			c0,0-0.6-0.4-1.3-1.1c-2.4-2-6.2-4.5-6.2-4.5c-0.6-0.4-1.4-0.4-2-0.1l-8.7,5.3c-0.6,0.4-0.6,1,0,1.4l7.6,6.6
			c-1.5-0.1-3.2-0.1-4.6-0.1h-0.1c-0.7,0-0.8,0-0.8,0c-0.7,0-1.4,0.3-2,0.8c-0.6,0.6-0.7,1.3-0.7,2l0.1,5.5l-5.5-4.8
			c-1.1-0.8-2.7-0.8-3.8,0l-7,5.9l0.3-6.7c0-0.7-0.1-1.4-0.7-2c-0.6-0.6-1.1-0.8-2-0.8c0,0-0.1,0-0.8,0c-1,0-2,0-3.1,0l6.5-5.5
			c0.6-0.4,0.4-1,0-1.4l-8.7-5.6c-0.6-0.3-1.4-0.3-2,0c0,0-3.9,2.5-6.3,4.4c-0.7,0.6-1.3,1-1.3,1c-0.6,0.4-0.4,1,0,1.4l7.2,5.6
			c-0.8,0-1.4,0-1.5,0.1c-1.4,0.1-2.5,1.1-2.8,2.5l-0.4,2.9l-1.7-1.4c-1.1-0.8-2.8-0.7-3.8,0.1c-0.1,0-0.8,0.7-2,1.7
			c0-0.1,0.1-0.3,0.1-0.3l1.4-10.8c0.1-0.7-0.3-1.1-1-1.1c0,0-0.7,0-1.7,0.1c-3.1,0.3-7.6,1.3-7.6,1.3c-0.6,0.1-1.3,0.7-1.4,1.4
			l-2.4,10c-0.1,0.6,0.3,1.1,1,1l10.4-0.7c0.1,0,0.1,0,0.3,0c-1.3,1.1-2.8,2.5-3.9,3.6c-0.6,0.6-0.6,0.7-0.6,0.7
			c-0.6,0.6-0.7,1.3-0.7,2c0,0.7,0.3,1.4,0.8,1.8l3.6,3.5l-7.3,0.4c-1.4,0.1-2.5,1.3-2.7,2.7l-0.7,9.1l-4.2-4.5
			c-0.4-0.6-1.1-0.8-1.8-1c-0.7,0-1.4,0.3-2,0.7c0,0-0.1,0.1-0.7,0.6c-0.7,0.7-1.5,1.5-2.4,2.4l0.7-9c0.1-0.7-0.4-1.1-1-1l-10.1,2.2
			c-0.6,0.1-1.3,0.8-1.4,1.4c0,0-1,4.5-1.4,7.6c-0.1,1-0.1,1.7-0.1,1.7c0,0.7,0.4,1.1,1,1l9.5-1.1c-0.8,0.8-1.3,1.4-1.4,1.5
			c-1,1-1,2.7-0.3,3.8l1.5,2.1l-2.2,0.3c-1.4,0.1-2.5,1.4-2.5,2.8c0,0.1,0,1-0.1,2.2l-6.3-8.3c-0.4-0.6-1-0.6-1.4,0
			c0,0-0.4,0.6-1.1,1.3c-2,2.4-4.5,6.2-4.5,6.2c-0.4,0.6-0.4,1.4-0.1,2l5.5,8.7c0.4,0.6,1,0.6,1.4,0l6.5-7.4c0,1.5-0.1,3.1-0.1,4.5
			c0,0.7,0,0.8,0,0.8l0,0c0,0.7,0.3,1.4,0.8,2s1.3,0.7,2,0.7l5.6-0.1l-5.1,5.8c-0.8,1.1-0.8,2.7,0,3.8l5.3,6.3l-5.8-0.1
			c-0.7,0-1.4,0.3-2,0.7c-0.6,0.6-0.8,1.1-0.8,2c0,0,0,0.1,0,0.8c0,1.1,0,2.4,0.1,3.6l-5.6-6.7c-0.4-0.6-1-0.4-1.4,0l-5.6,8.7
			c-0.3,0.6-0.3,1.4,0,2c0,0,2.5,3.9,4.4,6.3c0.6,0.7,1.1,1.3,1.1,1.3c0.4,0.6,1,0.4,1.4,0l5.9-7.4c0,0.8,0.1,1.4,0.1,1.5
			c0.1,1.4,1.3,2.5,2.7,2.8l2.8,0.3l-1.8,2.2c-0.8,1.1-0.7,2.8,0.1,3.8c0,0,0.3,0.3,0.7,0.7l-9.3-1.1c-0.7-0.1-1.1,0.3-1,1
			c0,0,0.1,0.7,0.1,1.7c0.4,3.1,1.4,7.6,1.4,7.6c0.1,0.6,0.7,1.3,1.4,1.4l10.1,2.2c0.7,0.1,1.1-0.3,1-1l-0.7-8.6
			c0.8,1,1.8,2,2.7,2.8c0.4,0.4,0.6,0.6,0.6,0.6c0.6,0.6,1.3,0.7,2,0.7c0.7,0,1.4-0.3,1.8-0.8l4.1-4.2l0.7,8.3
			c0.1,1.4,1.3,2.5,2.8,2.7l7.6,0.6l-3.9,3.9c-0.6,0.6-0.8,1.1-0.8,2c0,0.7,0.3,1.4,0.7,2c0,0,0.1,0.1,0.6,0.6
			c0.8,0.8,1.8,1.8,2.8,2.7l-9.5-0.6c-0.7,0-1.1,0.4-1,1l2.4,10c0.1,0.6,0.8,1.3,1.4,1.4c0,0,4.5,0.8,7.6,1.3c1,0.1,1.7,0.1,1.7,0.1
			c0.7,0,1.1-0.4,1-1l-1.4-10.1c1,0.8,1.7,1.5,1.8,1.5c1,0.8,2.7,1,3.8,0.1l1.7-1.4l0.3,2.7c0.3,1.4,1.4,2.4,2.8,2.5
			c0.1,0,0.7,0,1.5,0.1l-7.2,5.6c-0.6,0.4-0.6,1,0,1.4c0,0,0.6,0.4,1.3,1.1c2.4,1.8,6.3,4.4,6.3,4.4c0.6,0.3,1.4,0.4,2,0l8.7-5.6
			c0.6-0.4,0.6-1,0-1.4l-6.5-5.5c0.6,0,1.1,0,1.7,0c0.4,0,0.8,0,1.3,0c0.7,0,0.8,0,0.8,0c0.7,0,1.4-0.3,2-0.8s0.7-1.3,0.7-2
			l-0.1-6.3l7,5.9c1.1,0.8,2.7,0.8,3.8,0l5.5-4.8l-0.1,4.9c0,0.7,0.3,1.4,0.7,2c0.4,0.6,1.1,0.8,2,0.8c0,0,0.3,0,1,0
			c1.4,0,3.1,0,4.6-0.1l-7.6,6.6c-0.6,0.4-0.4,1,0,1.4l8.7,5.5c0.6,0.3,1.4,0.3,2-0.1c0,0,3.8-2.5,6.2-4.5c0.7-0.6,1.3-1.1,1.3-1.1
			c0.4-0.4,0.4-1.1,0-1.4l-8.4-6.5c1.3-0.1,2.1-0.1,2.2-0.1c1.4-0.1,2.5-1.3,2.8-2.7l0.3-2.1l2.4,1.8c1.1,0.8,2.8,0.7,3.8-0.3
			c0,0,0.4-0.3,0.8-0.8l-1,8.4c-0.1,0.7,0.3,1.1,1,1c0,0,0.7-0.1,1.7-0.1c3.1-0.4,7.6-1.4,7.6-1.4c0.6-0.1,1.3-0.7,1.4-1.4l2.2-10.1
			c0.1-0.7-0.3-1.1-1-1l-7.9,0.7c0.6-0.6,1.3-1.3,1.7-1.7l0,0c0.4-0.6,0.6-0.6,0.6-0.6c0.6-0.6,0.7-1.3,0.7-2c0-0.7-0.4-1.4-0.8-1.8
			l-3.9-3.6l8.8-1c1.3-0.3,2.4-1.4,2.7-2.8l0.6-7l2.9,3.1c0.6,0.6,1.1,0.8,2,0.8c0.7,0,1.4-0.3,2-0.7c0,0,0.1-0.1,0.6-0.6
			c1-1,2.1-2.1,3.1-3.2l-0.6,9.5c0,0.7,0.4,1.1,1,1l10-2.4c0.6-0.1,1.3-0.8,1.4-1.4c0,0,0.8-4.5,1.3-7.6c0.1-1,0.1-1.7,0.1-1.7
			c0-0.7-0.4-1.1-1.1-1l-10.1,1.3c0.6-0.7,1-1.3,1.1-1.3c0.8-1,1-2.7,0.1-3.8l-1.5-2l2.9-0.4c1.4-0.3,2.4-1.4,2.5-2.8
			c0-0.1,0-0.7,0.1-1.5l5.8,7.3c0.4,0.6,1,0.6,1.4,0c0,0,0.4-0.6,1-1.3c1.8-2.4,4.4-6.3,4.4-6.3c0.3-0.6,0.4-1.4,0-2l-5.6-8.7
			c-0.4-0.6-1-0.6-1.4,0l-5.6,6.6c0-1.1,0-2.4,0-3.4c0-0.7,0-0.8,0-0.8c0-0.7-0.3-1.4-0.8-2c-0.6-0.6-1.3-0.7-2-0.7l-6.2,0.1
			l5.6-6.6c0.8-1.1,0.8-2.7,0-3.8l-5.3-6l5.9,0.1c0.7,0,1.4-0.1,2-0.7c0.6-0.4,0.8-1.1,0.8-2c0,0,0-0.1,0-0.8c0-1.3,0-2.8,0-4.2
			l6.5,7.3c0.4,0.6,1,0.4,1.4,0l5.5-8.7c0.3-0.6,0.3-1.4-0.1-2C210.1,101.3,207.6,97.5,205.6,95.1z"/>
		<path class="st0" d="M230.9,118.8c0,0-1.8-4.1-3.2-6.7c-0.6-1-1.1-1.8-1.1-1.8c-0.3-0.6-0.8-0.6-1.1,0l-5.5,8.7
			c-0.4,0.6-0.4,1.4,0,2l5.6,8.7c0.3,0.6,0.8,0.6,1.1,0c0,0,0.6-1,1.1-2c1.4-2.7,3.1-6.7,3.1-6.7
			C231.2,120.3,231.2,119.4,230.9,118.8z"/>
		<path class="st0" d="M205.8,177.6l-10,2.4c-0.6,0.1-1.3,0.7-1.4,1.4l-2.2,10.1c-0.1,0.6,0.3,1,0.8,0.8c0,0,1.1-0.3,2.1-0.6
			c2.9-0.8,7-2.5,7-2.5c0.6-0.3,1.3-1,1.5-1.5c0,0,1.7-4.1,2.4-7c0.3-1.1,0.6-2.1,0.6-2.1C206.8,177.7,206.3,177.3,205.8,177.6z"/>
	</g>
	<g>
		<g>
			<path class="st0" d="M60.9,247.2c0.2,0,0.2,0,0.4,0.2c0.2,0.2,0.2,0.2,0.2,0.4c0,0.4,0,0.8,0,1c0,0.4,0,0.6,0,1
				c0,1,0,1.7,0.2,2.5c0,0.8,0.2,1.3,0.6,1.9c0.4,0.6,0.8,1,1.3,1.2c0.6,0.2,1.3,0.4,2.3,0.4c0.2,0,0.4,0,0.6,0c0.2,0,0.4,0,0.8-0.2
				c0-0.8,0-1.3,0-1.9c0-0.6,0-1.2,0-1.9v-6.1c0-0.2,0-0.2,0.2-0.4c0.2-0.2,0.2-0.2,0.4-0.2h2.7c0.2,0,0.2,0,0.4,0.2
				c0,0,0.2,0.2,0.2,0.4v5.4c0.2,0.2,0.4,0.2,0.6,0.2c0.2,0,0.4,0,0.6,0h0.4c0.2,0,0.6,0,0.8-0.2c0.2,0,0.4-0.2,0.4-0.6v-5.8
				c0-0.2,0-0.2,0.2-0.4c0.2-0.2,0.2-0.2,0.4-0.2H77c0.2,0,0.2,0,0.4,0.2c0.2,0,0.2,0.2,0.2,0.4v6.1c0.2,0.2,0.4,0.2,0.6,0.2
				c0.2,0,0.6,0,0.8,0h0.4c0.4,0,0.6,0,0.8,0s0.2-0.2,0.2-0.6s0-0.8,0-1.3c0-0.6,0-1.2,0-1.7c0-0.6,0-1.2,0-1.7c0-0.6,0-1.2,0-1.7
				c0-0.2,0-0.2,0.2-0.4c0-0.2,0.2-0.2,0.4-0.2h2.7c0.2,0,0.4,0,0.4,0.2c0,0.2,0.2,0.2,0.2,0.4c0,1,0,1.9,0.2,2.9c0.2,1,0,1.7,0,2.5
				v1.7c0,0.6,0,1,0,1.5c0,0.6,0,1-0.2,1.5c0,0.4-0.2,0.6-0.6,0.8c-0.4,0.2-0.8,0.2-1.3,0.2c-0.6,0-1,0-1.5,0h-0.2c-0.4,0-0.6,0-1,0
				s-0.8,0-1.2,0s-0.8-0.2-1.2-0.2c-0.4-0.2-0.8-0.2-1-0.4c-0.4,0.4-1,0.6-1.5,0.6s-1.2,0.2-1.7,0.2h-0.4c-0.2,0-0.4,0-0.6,0
				c-0.2,0-0.4,0-0.6-0.2c0,0.6,0,1.2,0,1.7c0,0.6,0,1.2,0,1.5c0,0.4-0.2,0.6-0.6,0.6c-0.8,0.2-1.3,0.4-2.1,0.4
				c-0.8,0.2-1.5,0.2-2.3,0.2c-1.3,0-2.5-0.2-3.5-0.4c-1-0.2-1.7-0.8-2.5-1.3c-0.6-0.6-1.2-1.3-1.5-2.3c-0.4-1-0.6-2.1-0.6-3.6
				c0-0.2,0-0.4,0-0.8s0-0.6,0-1s0-0.8,0.2-1c0.2-0.2,0-0.6,0.2-1c0-0.2,0-0.2,0.2-0.4c0.2-0.2,0.2-0.2,0.4-0.2h1.5V247.2z"/>
			<path class="st0" d="M87,257.8c0-0.4,0.2-0.4,0.4-0.4h2.3c0.6,0,1.2,0,1.5,0c0.4,0,0.8-0.2,1.2-0.4c0.4-0.2,0.6-0.4,0.6-0.6
				c0.2-0.2,0.2-0.6,0.2-1v-0.6h-1.3c-1.9,0-3.3-0.4-4.2-1.3c-1-1-1.5-2.3-1.5-4v-0.4c0-2.1,0.6-3.6,1.7-4.6c1.2-1.2,2.9-1.5,5-1.5
				c0.4,0,0.6,0,1,0s0.8,0,1.2,0s0.6,0,1,0.2c0.4,0,0.6,0.2,0.8,0.2s0.2,0.2,0.4,0.2l0.2,0.2v7.5h2.1v3.6h-2.1v0.8
				c-0.2,1-0.4,1.9-0.8,2.5c-0.4,0.6-1,1.2-1.5,1.5c-0.6,0.4-1.3,0.6-1.9,0.8c-0.6,0.2-1.5,0.2-2.3,0.2c-0.2,0-0.4,0-0.6,0
				c-0.4,0-0.6,0-1,0s-0.6,0-1,0s-0.6,0-0.6,0c-0.2,0-0.2,0-0.4-0.2c0,0,0-0.2,0-0.4v-2.3H87z M89.7,248.8c0,0.8,0.2,1.3,0.6,1.7
				c0.4,0.4,1,0.6,1.7,0.6h1.5v-5.2c-0.2,0-0.4,0-0.6,0c-0.2,0-0.4,0-0.6,0c-0.8,0-1.5,0.2-1.9,0.8c-0.4,0.4-0.6,1.2-0.6,1.9v0.2
				H89.7z"/>
			<path class="st0" d="M98.1,251.3c0,0,0-0.2,0.2-0.2c0.2,0,0.4,0,0.6,0h1.2c0.2,0,0.2,0,0.4,0s0.2,0,0.4,0s0.2-0.2,0.4-0.2
				c0-0.2,0.2-0.2,0.2-0.4v-13.4c0-0.2,0-0.2,0.2-0.4c0.2,0,0.2-0.2,0.4-0.2h2.7c0.2,0,0.2,0,0.4,0.2c0,0.2,0.2,0.2,0.2,0.4v13.8
				c0.2,0.2,0.4,0.2,0.6,0.2c0.4,0,0.6,0,0.8,0h0.8v3.6h-0.4c-0.8,0-1.3,0-1.9-0.2c-0.6-0.2-1.2-0.4-1.7-0.6c-0.4,0.4-1,0.6-1.7,0.6
				c-0.6,0.2-1.3,0.2-1.9,0.2h-0.8c-0.2,0-0.4,0-0.6,0c-0.2,0-0.2-0.2-0.2-0.2L98.1,251.3L98.1,251.3z"/>
			<path class="st0" d="M106.1,251.3c0,0,0-0.2,0.2-0.2s0.4,0,0.6,0h2.3c-0.6-0.6-0.8-1.3-0.8-2.7V248c0-1,0.2-1.7,0.6-2.5
				c0.4-0.8,0.8-1.3,1.3-1.7c0.6-0.4,1.3-0.8,2.1-1c0.8-0.2,1.7-0.4,2.7-0.4c0.4,0,0.8,0,1.2,0c0.4,0,0.8,0,1.2,0s0.8,0,1,0.2
				s0.6,0.2,0.8,0.2s0.4,0.2,0.4,0.2s0,0.2,0,0.4v6.5c0,0.6,0,1.3,0,2.1c0,0.8,0,1.5-0.2,2.3c0,0.2,0,0.2-0.2,0.4
				c-0.2,0-0.2,0.2-0.4,0.2c-0.8,0-1.3,0-1.9,0s-1.3,0-1.9,0h-8.1c-0.2,0-0.4,0-0.6,0c-0.2,0-0.2-0.2-0.2-0.2V251.3z M112.3,248.6
				c0,0.8,0.2,1.5,0.6,1.9c0.4,0.4,1,0.6,1.7,0.6c0,0,0.2,0,0.4,0s0.2,0,0.4,0s0.2,0,0.4,0s0.2,0,0.4,0v-5.4c-0.4,0-0.8,0-1.2,0
				c-1.7,0-2.5,0.8-2.5,2.5v0.4H112.3z M112.5,237.4c0-0.2,0-0.4,0.2-0.4c0.2-0.2,0.2-0.2,0.4-0.2h2.5c0.2,0,0.2,0,0.4,0.2
				c0.2,0.2,0.2,0.2,0.2,0.4v2.3c0,0.2,0,0.2-0.2,0.4c-0.2,0.2-0.2,0.2-0.4,0.2H113c-0.2,0-0.4,0-0.4-0.2c-0.2-0.2-0.2-0.2-0.2-0.4
				V237.4z"/>
			<path class="st0" d="M128.4,254.1c0-1.2,0.2-2.1,0.8-2.7c0.6-0.6,1.3-1,2.3-1c0-0.2,0-0.4,0-0.6c0-0.2,0-0.4,0-0.6V248
				c0-1,0.2-1.7,0.4-2.3c0.2-0.8,0.6-1.3,1.2-1.7c0.6-0.4,1.2-0.8,1.7-1c0.8-0.2,1.5-0.4,2.3-0.4s1.5,0.2,2.3,0.4
				c0.8,0.2,1.3,0.6,1.7,1c0.6,0.4,1,1,1.2,1.7c0.2,0.8,0.4,1.5,0.4,2.3v1.5c0,1-0.2,1.7-0.4,2.5c-0.2,0.8-0.6,1.2-1.2,1.7
				c-0.6,0.4-1.2,0.8-1.7,1c-0.8,0.2-1.5,0.4-2.3,0.4s-1.5,0-2.1-0.2c-0.8-0.2-1.3-0.4-1.7-0.8c-0.4,0-0.6,0-0.8,0.2
				c-0.2,0.2-0.2,0.4-0.2,0.6v5.6c0,0.2,0,0.2-0.2,0.4c0,0-0.2,0.2-0.4,0.2H129c-0.2,0-0.2,0-0.4-0.2c-0.2-0.2-0.2-0.2-0.2-0.4
				L128.4,254.1L128.4,254.1z M134.9,249.1c0,0.8,0.2,1.3,0.4,1.7c0.4,0.4,0.8,0.6,1.5,0.6c0.8,0,1.2-0.2,1.5-0.6s0.6-1,0.6-1.9v-1
				c0-1-0.2-1.5-0.6-1.9c-0.4-0.4-0.8-0.6-1.5-0.6c-0.8,0-1.2,0.2-1.5,0.6c-0.4,0.4-0.6,1-0.6,1.9v1.2H134.9z"/>
			<path class="st0" d="M145.6,236.9c0-0.2,0-0.2,0.2-0.4c0,0,0.2-0.2,0.4-0.2h2.7c0.2,0,0.2,0,0.4,0.2c0,0.2,0.2,0.2,0.2,0.4v17.5
				c0,0.2,0,0.2-0.2,0.4c0,0.2-0.2,0.2-0.4,0.2h-2.7c-0.2,0-0.2,0-0.4-0.2c0-0.2-0.2-0.2-0.2-0.4V236.9z"/>
			<path class="st0" d="M158.5,248.8c0-2.1,0.6-3.6,1.7-4.6c1.2-1.2,2.9-1.5,5.2-1.5c0.4,0,0.6,0,1,0s0.8,0,1,0c0.4,0,0.6,0,1,0.2
				c0.2,0,0.6,0.2,0.8,0.2c0.2,0,0.4,0.2,0.4,0.2s0,0.2,0,0.4v6.5c0,0.4,0.2,0.8,0.4,1c0.2,0.2,0.6,0.2,1,0.2h0.8v3.6h-1.3
				c-0.8,0-1.3,0-1.9-0.2c-0.6-0.2-1.2-0.6-1.5-1c-0.4,0.2-1,0.4-1.3,0.6c-0.6,0.2-1,0.2-1.5,0.2h-0.2c-0.8,0-1.3-0.2-2.1-0.4
				c-0.6-0.2-1.2-0.6-1.7-1c-0.4-0.4-0.8-1-1.2-1.5c-0.2-0.6-0.4-1.3-0.4-2.3v-0.6H158.5z M160.2,237.6c0-0.2,0-0.4,0.2-0.4
				c0.2-0.2,0.2-0.2,0.4-0.2h2.1c0.2,0,0.4,0,0.4,0.2c0.2,0.2,0.2,0.2,0.2,0.4v2.3c0,0.2,0,0.2-0.2,0.4c-0.2,0.2-0.2,0.2-0.4,0.2
				h-2.1c-0.2,0-0.4,0-0.4-0.2c-0.2-0.2-0.2-0.2-0.2-0.4V237.6z M162.1,248.6c0,0.8,0.2,1.3,0.6,1.7s0.8,0.4,1.5,0.4h0.4
				c0.4,0,0.8,0,1-0.2c0.2-0.2,0.4-0.4,0.4-0.8v-3.8c-0.2,0-0.4,0-0.4,0s-0.4,0-0.6,0c-1,0-1.5,0.2-2.1,0.6c-0.6,0.4-0.8,1-0.8,1.9
				V248.6z M165,237.6c0-0.2,0-0.4,0.2-0.4c0.2-0.2,0.2-0.2,0.4-0.2h2.1c0.2,0,0.4,0,0.4,0.2c0.2,0.2,0.2,0.2,0.2,0.4v2.3
				c0,0.2,0,0.2-0.2,0.4c-0.2,0.2-0.2,0.2-0.4,0.2h-2.1c-0.2,0-0.2,0-0.4-0.2c-0.2-0.2-0.2-0.2-0.2-0.4V237.6z"/>
			<path class="st0" d="M170.6,251.3c0,0,0-0.2,0.2-0.2c0.2,0,0.4,0,0.6,0h0.8c0.2,0,0.4,0,0.8,0c0.2,0,0.4-0.2,0.4-0.4v-0.2v-0.2
				v-1.7c0-1,0.2-1.7,0.4-2.5c0.2-0.8,0.6-1.3,1.2-1.7s1.2-0.8,1.7-1c0.8-0.2,1.5-0.4,2.3-0.4s1.5,0.2,2.3,0.4
				c0.8,0.2,1.3,0.6,1.7,1s0.8,1,1.2,1.7c0.4,0.8,0.4,1.5,0.4,2.3v1.5c0,1-0.2,1.7-0.4,2.5c-0.2,0.8-0.6,1.2-1.2,1.7
				c-0.6,0.4-1.2,0.8-1.7,1c-0.8,0.2-1.5,0.4-2.3,0.4c-0.4,0-0.8,0-1.2,0s-0.8-0.2-1.2-0.2c-0.4-0.2-0.8-0.2-1-0.4
				c-0.2-0.2-0.6-0.4-0.8-0.6c-0.4,0.4-0.8,0.6-1.3,0.6c-0.6,0.2-1.2,0.2-1.7,0.2h-0.4c-0.2,0-0.4,0-0.6,0c-0.2,0-0.2-0.2-0.2-0.2
				L170.6,251.3L170.6,251.3z M176.9,249.3c0,0.4,0,0.6,0,1c0.2,0.6,0.4,1,0.8,1.2c0.4,0.2,0.8,0.4,1.3,0.4c0.6,0,1.2-0.2,1.5-0.6
				s0.6-1,0.6-1.9v-1c0-1-0.2-1.5-0.6-1.9s-0.8-0.6-1.5-0.6c-0.8,0-1.2,0.2-1.5,0.6s-0.6,1-0.6,1.9L176.9,249.3L176.9,249.3z"/>
			<path class="st0" d="M186.5,251.4c0-0.2,0-0.2,0.2-0.4c0.2,0,0.2-0.2,0.4-0.2h5.9v-1.7c0-0.6-0.2-1-0.2-1.3
				c0-0.4-0.4-0.8-0.6-1.2c-0.4-0.4-0.8-0.6-1.2-0.8c-0.6-0.2-1.2-0.2-1.9-0.2H189c-0.2,0-0.2,0-0.4,0c-0.2,0-0.4,0-0.4,0
				c-0.2,0-0.2,0-0.4,0c-0.4,0-0.4-0.2-0.4-0.4V243c0-0.2,0-0.2,0.2-0.4c0-0.2,0.2-0.2,0.4-0.2c0.4,0,1-0.2,1.5-0.2c0.6,0,1,0,1.2,0
				c1.3,0,2.3,0.2,3.1,0.6c0.8,0.4,1.5,1,1.9,1.5c0.6,0.6,0.8,1.3,1.2,2.1c0.2,0.8,0.4,1.7,0.4,2.5v1.7h1.5v3.6h-11.1
				c-0.2,0-0.2,0-0.4-0.2c0,0-0.2-0.2-0.2-0.4v-2.3H186.5z"/>
			<path class="st0" d="M197,251.3c0,0,0-0.2,0.2-0.2c0.2,0,0.4,0,0.6,0h9.6l-0.6-1.2l-0.4-0.8c-0.2-0.4-0.6-0.8-0.8-1.2
				c-0.4-0.4-0.8-0.8-1.2-1c-0.4-0.2-1-0.6-1.5-0.6c-0.6-0.2-1.3-0.2-2.1-0.2h-0.2c0,0-0.2,0-0.4,0c-0.2,0-0.2,0-0.4,0
				c-0.2,0-0.2,0-0.2,0c-0.4,0-0.6-0.2-0.6-0.4v-2.3c0-0.2,0.2-0.4,0.6-0.4s0.8-0.2,1.2-0.2c0.4,0,0.8,0,1.2,0c1,0,1.7,0.2,2.5,0.4
				c0.8,0.2,1.5,0.6,2.1,1c0.6,0.4,1.3,1,1.9,1.7c0.6,0.8,1.2,1.7,1.5,2.7l0.4,0.8c0,0,0.2,0.2,0.2,0.4c0,0.2,0.2,0.4,0.2,0.6
				c0,0.2,0.2,0.4,0.2,0.6c0,0.2,0.2,0.4,0.2,0.4c0.2,0.2,0.2,0.6,0.2,1v2.1c0,0.4-0.2,0.6-0.6,0.6h-13.4c-0.2,0-0.4,0-0.6,0
				s-0.2-0.2-0.2-0.2v-3.6H197z M202.4,237.6c0-0.2,0-0.4,0.2-0.4c0.2-0.2,0.2-0.2,0.4-0.2h2.5c0.2,0,0.2,0,0.4,0.2
				c0.2,0.2,0.2,0.2,0.2,0.4v2.3c0,0.2,0,0.2-0.2,0.4c-0.2,0.2-0.2,0.2-0.4,0.2H203c-0.2,0-0.4,0-0.4-0.2c-0.2-0.2-0.2-0.2-0.2-0.4
				V237.6z"/>
		</g>
	</g>
	<g>
		<g>
			<path class="st0" d="M63.6,287.5c0,0.2,0,0.2-0.2,0.2h-0.2h-3.3c-0.2,0-0.2,0-0.2-0.2c0-0.2-0.2-0.2-0.2-0.4v-10
				c0-0.2,0-0.2-0.2-0.2c0,0-0.2,0-0.2,0.2l-2.1,4c-0.2,0.2-0.4,0.4-0.8,0.4h-1.9c-0.4,0-0.6-0.2-0.8-0.4l-2.1-4
				c0-0.2-0.2-0.2-0.2-0.2s-0.2,0-0.2,0.2v10c0,0.2,0,0.2-0.2,0.4c-0.2,0.2-0.2,0.2-0.2,0.2h-3.3c-0.2,0-0.2,0-0.2,0l-0.2-0.2v-16.7
				c0-0.2,0-0.4,0.2-0.6s0.4-0.2,0.6-0.2h2.3c0.6,0,0.8,0.2,1.2,0.6l3.6,6.9c0.2,0.2,0.2,0.4,0.2,0.4s0.2-0.2,0.2-0.4l3.6-6.9
				c0.2-0.4,0.6-0.6,1.2-0.6h2.3c0.2,0,0.4,0,0.6,0.2c0.2,0.2,0.2,0.4,0.2,0.6v16.7H63.6z"/>
			<path class="st0" d="M84.1,272.9c0,0.2,0,0.2-0.2,0.4c-0.2,0.2-0.2,0.2-0.4,0.2h-4.8c-0.6,0-1,0.2-1.2,0.4
				c-0.2,0.2-0.4,0.6-0.4,1.3v2.1h6.1c0.2,0,0.2,0,0.4,0.2c0,0.2,0.2,0.2,0.2,0.4v2.3c0,0.2,0,0.2-0.2,0.4c-0.2,0-0.2,0.2-0.4,0.2
				h-6.1v7.1c0,0.2,0,0.2-0.2,0.4c-0.2,0.2-0.2,0.2-0.4,0.2h-3.1c-0.2,0-0.2,0-0.4-0.2c-0.2,0-0.2-0.2-0.2-0.4v-12.5
				c0-1.2,0.2-1.9,0.6-2.7c0.4-0.8,0.8-1.2,1.3-1.5c0.6-0.4,1.2-0.6,1.9-0.8c0.8-0.2,1.5-0.2,2.3-0.2c0.6,0,1.2,0,1.7,0
				c0.6,0,1,0,1.3,0s0.8,0,1,0s0.6,0,0.8,0.2c0.4,0,0.6,0.2,0.6,0.6v1.9H84.1z"/>
			<path class="st0" d="M90.8,287.3c0,0.2,0,0.2-0.2,0.4c0,0.2-0.2,0.2-0.4,0.2h-2.9c-0.2,0-0.2,0-0.4-0.2s-0.2-0.2-0.2-0.4v-17.5
				c0-0.2,0-0.2,0.2-0.4c0.2,0,0.2-0.2,0.4-0.2h2.9c0.2,0,0.2,0,0.4,0.2c0,0.2,0.2,0.2,0.2,0.4V287.3z"/>
			<path class="st0" d="M105.4,281.7c0,1-0.2,1.9-0.4,2.7s-0.6,1.3-1.2,1.9c-0.6,0.6-1.2,1-1.9,1.3c-0.8,0.4-1.5,0.4-2.7,0.4
				c-1,0-1.9-0.2-2.7-0.4c-0.8-0.2-1.3-0.8-1.9-1.3c-0.6-0.6-1-1.2-1.2-1.9s-0.4-1.7-0.4-2.7V280c0-1,0.2-1.9,0.4-2.7
				s0.6-1.3,1.2-1.9s1.2-1,1.9-1.3c0.8-0.4,1.5-0.4,2.7-0.4c1,0,1.9,0.2,2.7,0.4c0.8,0.4,1.3,0.8,1.9,1.3c0.6,0.6,1,1.2,1.2,1.9
				s0.4,1.7,0.4,2.7V281.7z M101.5,280.2c0-1.9-0.8-2.9-2.1-2.9c-0.8,0-1.2,0.2-1.5,0.8c-0.4,0.6-0.6,1.2-0.6,2.1v1.7
				c0,1,0.2,1.7,0.6,2.3c0.4,0.6,1,0.8,1.5,0.8c1.3,0,2.1-1,2.1-2.9V280.2z"/>
			<path class="st0" d="M119.6,281.7c0,1-0.2,1.9-0.4,2.7s-0.6,1.3-1.2,1.9c-0.6,0.6-1.2,1-1.9,1.3c-0.8,0.4-1.5,0.4-2.7,0.4
				c-1,0-1.9-0.2-2.7-0.4c-0.8-0.2-1.3-0.8-1.9-1.3c-0.6-0.6-1-1.2-1.2-1.9s-0.4-1.7-0.4-2.7V280c0-1,0.2-1.9,0.4-2.7
				s0.6-1.3,1.2-1.9s1.2-1,1.9-1.3c0.8-0.4,1.5-0.4,2.7-0.4c1,0,1.9,0.2,2.7,0.4c0.8,0.4,1.3,0.8,1.9,1.3c0.6,0.6,1,1.2,1.2,1.9
				s0.4,1.7,0.4,2.7V281.7z M115.7,280.2c0-1.9-0.8-2.9-2.1-2.9c-0.8,0-1.2,0.2-1.5,0.8c-0.4,0.6-0.6,1.2-0.6,2.1v1.7
				c0,1,0.2,1.7,0.6,2.3c0.4,0.6,1,0.8,1.5,0.8c1.3,0,2.1-1,2.1-2.9V280.2z"/>
			<path class="st0" d="M131.7,284c0,0.6-0.2,1.2-0.4,1.5c-0.2,0.6-0.6,1-1,1.3c-0.4,0.4-1,0.6-1.5,0.8c-0.6,0.2-1.3,0.4-2.3,0.4
				c-0.4,0-0.8,0-1.2,0c-0.4,0-0.8,0-1.2-0.2c-0.4,0-0.8-0.2-1.2-0.2s-0.8-0.2-1-0.2c-0.4,0-0.4-0.2-0.4-0.6V285
				c0-0.2,0-0.2,0.2-0.4c0,0,0.2-0.2,0.4-0.2l0,0c0.4,0,0.8,0,1.2,0.2c0.4,0,0.8,0,1.2,0.2c0.4,0.2,0.8,0,1.2,0c0.4,0,0.6,0,0.8,0
				c0.6,0,1,0,1.2-0.2s0.2-0.4,0.2-0.8c0-0.2,0-0.4-0.2-0.6c-0.2-0.2-0.4-0.4-0.8-0.6l-3.1-1.7c-0.8-0.4-1.2-1-1.5-1.5
				s-0.6-1.3-0.6-2.1c0-1.2,0.4-2.1,1.2-2.7c0.8-0.6,2.1-1,3.6-1c1,0,1.7,0,2.3,0.2c0.6,0.2,1.3,0.2,1.9,0.4c0.4,0,0.4,0.2,0.4,0.6
				v1.9c0,0.4-0.2,0.4-0.4,0.4l0,0c-0.2,0-0.4,0-0.8,0s-0.6,0-1-0.2c-0.4,0-0.8,0-1.2,0c-0.4,0-0.8,0-1,0c-0.4,0-0.8,0-1,0.2
				s-0.4,0.2-0.4,0.6c0,0.2,0,0.4,0.2,0.4c0.2,0.2,0.4,0.2,0.6,0.4l3.1,1.7c0.6,0.4,1,0.6,1.2,1c0.4,0.4,0.6,0.6,0.8,1
				c0.2,0.4,0.4,0.6,0.4,1C131.7,283.5,131.7,283.7,131.7,284z"/>
			<path class="st0" d="M152,282.9c0,0.6-0.2,1.3-0.4,1.9c-0.2,0.6-0.6,1.2-1.2,1.7c-0.6,0.6-1.2,1-2.1,1.2c-1,0.2-1.9,0.4-3.1,0.4
				c-1,0-1.7,0-2.5-0.2c-0.8-0.2-1.3-0.2-1.9-0.4c-0.2,0-0.2,0-0.4-0.2c0,0-0.2-0.2-0.2-0.4v-2.3c0-0.2,0-0.4,0.2-0.4
				c0.2,0,0.2,0,0.4,0l0,0c0.2,0,0.6,0,1,0s0.8,0,1.3,0c0.4,0,1,0,1.3,0s0.8,0,1,0c0.8,0,1.3-0.2,1.7-0.4c0.4-0.2,0.4-0.8,0.4-1.3
				c0-0.4-0.2-0.6-0.4-1c-0.2-0.2-0.6-0.6-1.3-1l-3.3-1.9c-0.6-0.4-1-0.8-1.3-1c-0.4-0.4-0.6-0.8-1-1.2c-0.2-0.4-0.4-0.8-0.4-1.2
				c0-0.4-0.2-0.8-0.2-1.3c0-0.6,0.2-1.3,0.4-1.9c0.2-0.6,0.6-1.2,1-1.5c0.4-0.4,1.2-0.8,1.9-1c0.8-0.2,1.7-0.4,2.9-0.4
				c0.4,0,1,0,1.3,0s1,0,1.5,0.2c0.4,0,1,0.2,1.3,0.2s0.8,0.2,1,0.2s0.2,0,0.2,0.2c0,0,0.2,0.2,0.2,0.4v2.5c0,0.2,0,0.2,0,0.4
				c0,0.2-0.2,0.2-0.4,0.2l0,0c-0.2,0-0.4,0-0.8,0s-0.8,0-1.3,0c-0.6,0-1,0-1.5,0s-1,0-1.3,0c-0.8,0-1.2,0.2-1.5,0.4s-0.4,0.6-0.4,1
				c0,0.2,0,0.4,0,0.4c0,0.2,0.2,0.2,0.2,0.4c0.2,0.2,0.2,0.2,0.6,0.4c0.2,0.2,0.4,0.4,0.8,0.4l3.1,1.7c1.3,0.8,2.1,1.3,2.5,2.3
				C151.8,281,152,281.7,152,282.9z"/>
			<path class="st0" d="M166.2,281.6c0,0.4-0.2,0.6-0.6,0.6h-7.7l0,0c0,0.4,0,0.6,0.2,1c0,0.4,0.2,0.6,0.4,0.8
				c0.2,0.2,0.4,0.4,0.8,0.6s0.8,0.2,1.2,0.2c0.4,0,0.8,0,1.2,0c0.4,0,0.8,0,1.3,0c0.4,0,0.8,0,1.2,0s0.8,0,1,0l0,0
				c0.4,0,0.4,0.2,0.4,0.4v1.9c0,0.2,0,0.4,0,0.4s-0.2,0.2-0.4,0.2c-0.8,0.2-1.5,0.4-2.3,0.4s-1.5,0.2-2.7,0.2
				c-0.8,0-1.5-0.2-2.1-0.4c-0.8-0.2-1.3-0.6-1.9-1c-0.6-0.4-1-1.2-1.3-1.9c-0.4-0.8-0.6-1.7-0.6-2.9v-1.7c0-1,0.2-1.9,0.4-2.7
				c0.2-0.8,0.6-1.5,1.2-1.9c0.6-0.4,1.2-1,1.9-1.3c0.8-0.4,1.5-0.4,2.5-0.4c1,0,1.9,0.2,2.5,0.6c0.6,0.4,1.3,0.8,1.9,1.3
				c0.6,0.6,1,1.2,1.2,1.9c0.2,0.8,0.4,1.5,0.4,2.5v1.3H166.2z M162.3,279.6c0-1-0.2-1.5-0.6-1.9c-0.4-0.4-1-0.6-1.5-0.6
				c-0.8,0-1.2,0.2-1.5,0.8c-0.4,0.4-0.6,1.2-0.6,1.9v0.2L162.3,279.6L162.3,279.6z"/>
			<path class="st0" d="M176.3,276.8c0,0.2,0,0.2-0.2,0.4c0,0.2-0.2,0.2-0.2,0.2h-0.2c-0.6,0-1.2,0-1.7,0.2c-0.6,0.2-1,0.4-1.5,0.6
				v9.4c0,0.2,0,0.2-0.2,0.4c0,0.2-0.2,0.2-0.4,0.2H169c-0.2,0-0.2,0-0.4-0.2c-0.2-0.2-0.2-0.2-0.2-0.4v-12.8c0-0.2,0-0.2,0.2-0.4
				c0.2-0.2,0.2-0.2,0.4-0.2h2.9c0.2,0,0.2,0,0.4,0.2c0,0.2,0.2,0.2,0.2,0.4v0.6c0.4-0.4,1-0.6,1.5-0.8c0.6-0.2,1.2-0.4,1.7-0.4
				c0.2,0,0.2,0,0.4,0.2c0.2,0.2,0.2,0.2,0.2,0.4L176.3,276.8L176.3,276.8z"/>
			<path class="st0" d="M190.3,274.5C190.3,274.7,190.3,274.7,190.3,274.5l-3.1,11.1c-0.2,0.6-0.4,1-0.6,1.3
				c-0.2,0.4-0.6,0.6-0.8,0.8c-0.4,0.2-0.6,0.4-1,0.4s-0.8,0.2-1.2,0.2c-0.4,0-0.8,0-1.2-0.2c-0.4,0-0.8-0.2-1-0.4
				c-0.4-0.2-0.6-0.4-0.8-0.8c-0.2-0.4-0.4-0.8-0.6-1.3l-3.1-10.9c0,0,0,0,0-0.2s0.2-0.4,0.4-0.4h3.3c0.2,0,0.2,0,0.4,0.2
				c0.2,0.2,0.2,0.2,0.2,0.4l2.1,9.4c0,0.4,0.2,0.6,0.4,0.6c0.2,0,0.4-0.2,0.4-0.6l2.1-9.4c0-0.2,0-0.2,0.2-0.4
				c0.2-0.2,0.2-0.2,0.4-0.2h3.3c0.2,0,0.2,0,0.4,0.2C190.3,274.3,190.3,274.5,190.3,274.5z"/>
			<path class="st0" d="M196.5,272c0,0.2,0,0.2-0.2,0.4c-0.2,0-0.2,0.2-0.4,0.2h-3.1c-0.2,0-0.2,0-0.4-0.2c0,0-0.2-0.2-0.2-0.4v-2.3
				c0-0.2,0-0.2,0.2-0.4c0.2,0,0.2-0.2,0.4-0.2h3.1c0.2,0,0.2,0,0.4,0.2c0,0,0.2,0.2,0.2,0.4V272z M196.3,287.3c0,0.2,0,0.2-0.2,0.4
				c0,0-0.2,0.2-0.4,0.2h-2.9c-0.2,0-0.2,0-0.4-0.2c-0.2,0-0.2-0.2-0.2-0.4v-12.8c0-0.2,0-0.2,0.2-0.4c0,0,0.2-0.2,0.4-0.2h2.9
				c0.2,0,0.2,0,0.4,0.2c0.2,0,0.2,0.2,0.2,0.4V287.3z"/>
			<path class="st0" d="M208.2,287.1c0,0.2,0,0.4-0.2,0.4c0,0-0.2,0.2-0.4,0.2c-0.4,0-0.8,0.2-1.3,0.2c-0.6,0-1.2,0.2-1.9,0.2
				c-1.7,0-3.1-0.6-4-1.5c-1-1-1.5-2.5-1.5-4.6V280c0-1.9,0.6-3.5,1.5-4.6c1-1,2.3-1.5,4-1.5c0.8,0,1.3,0,1.9,0.2
				c0.6,0,1,0.2,1.3,0.2c0.2,0,0.4,0.2,0.4,0.2s0.2,0.2,0.2,0.4v2.1c0,0.2,0,0.2-0.2,0.4c0,0-0.2,0.2-0.4,0.2l0,0
				c-0.4,0-1,0-1.3-0.2c-0.4,0-1,0-1.7,0c-0.2,0-0.6,0-0.8,0.2c-0.2,0-0.4,0.2-0.6,0.4c-0.2,0.2-0.4,0.6-0.4,1
				c-0.2,0.4-0.2,0.8-0.2,1.3v2.1c0,0.6,0,1,0.2,1.3c0.2,0.4,0.2,0.6,0.4,1c0.2,0.2,0.4,0.4,0.6,0.4c0.2,0,0.6,0.2,0.8,0.2
				c0.8,0,1.2,0,1.7,0c0.4,0,0.8,0,1.3-0.2l0,0c0.2,0,0.2,0,0.4,0.2c0.2,0.2,0.2,0.2,0.2,0.4V287.1z"/>
			<path class="st0" d="M221.8,281.6c0,0.4-0.2,0.6-0.6,0.6h-7.7l0,0c0,0.4,0,0.6,0.2,1c0,0.4,0.2,0.6,0.4,0.8
				c0.2,0.2,0.4,0.4,0.8,0.6s0.8,0.2,1.2,0.2c0.4,0,0.8,0,1.2,0c0.4,0,1,0,1.3,0s0.8,0,1.2,0s0.8,0,1,0l0,0c0.4,0,0.4,0.2,0.4,0.4
				v1.9c0,0.2,0,0.4-0.2,0.4c0,0-0.2,0.2-0.4,0.2c-0.8,0.2-1.5,0.4-2.3,0.4c-0.8,0-1.5,0.2-2.7,0.2c-0.8,0-1.5-0.2-2.1-0.4
				c-0.8-0.2-1.3-0.6-1.9-1c-0.6-0.4-1-1.2-1.3-1.9s-0.6-1.7-0.6-2.9v-1.7c0-1,0.2-1.9,0.4-2.7c0.2-0.8,0.6-1.5,1.2-1.9
				c0.6-0.6,1.2-1,1.9-1.3c0.8-0.4,1.5-0.4,2.5-0.4s1.9,0.2,2.5,0.6c0.8,0.4,1.3,0.8,1.9,1.3c0.6,0.6,1,1.2,1.2,1.9
				c0.2,0.8,0.4,1.5,0.4,2.5v1.3H221.8z M217.9,279.6c0-1-0.2-1.5-0.6-1.9c-0.4-0.4-1-0.6-1.5-0.6c-0.8,0-1.2,0.2-1.5,0.8
				c-0.4,0.4-0.6,1.2-0.6,1.9v0.2L217.9,279.6L217.9,279.6z"/>
		</g>
	</g>
	<g>
		<path class="st1" d="M159.2,107.2c-0.1-1.3-1.1-2.5-2.9-2.5c-1.7,0-3.1,1.4-3.1,2.9c0,1.1,0.7,2.2,1.8,2.7v3.2h-7.4V98.6
			c0-1.8-1.5-3.4-3.4-3.4h-11.9l0,0l-7.9-4.4c-2.1-1.1-3.8-0.1-3.8,2.2v5.3v0.1v14.9h-9c-0.7,0-1.3,0.6-1.3,1.3v4.4
			c-1.4,0.6-2,2-1.7,3.2c0.1,1.3,1.1,2.5,2.9,2.5c1.7,0,3.1-1.4,3.1-3.1c0-1.1-0.7-2.2-1.8-2.7v-3.2h7.7v23.4c0,1.8,1.5,3.2,3.4,3.2
			h3.6v5.5c-1.4,0.6-2,2-1.7,3.2c0.1,1.3,1.1,2.5,2.9,2.5c1.7,0,3.1-1.4,3.1-3.1c0-1.1-0.7-2.2-1.8-2.7v-5.5h8v5.5
			c-1.4,0.6-2,2-1.7,3.2c0.1,1.3,1.1,2.5,2.9,2.5c1.7,0,3.1-1.4,3.1-2.9c0-1.1-0.7-2.2-1.8-2.7v-5.5h3.6c1.8,0,3.4-1.4,3.4-3.2V116
			h8.7c0.7,0,1.3-0.6,1.3-1.3v-4.4C158.9,109.7,159.5,108.3,159.2,107.2z M111.6,123c-0.8,0-1.1-0.6-1.1-1.1c0-0.6,0.3-1.1,1.1-1.1
			c0.8,0,1.1,0.6,1.1,1.1S112.5,123,111.6,123z M128.3,103.8c0.8,0,1.7,0.7,1.7,1.7c0,0.8-0.7,1.7-1.7,1.7c-0.8,0-1.7-0.7-1.7-1.7
			C126.8,104.5,127.5,103.8,128.3,103.8z M128.9,151.9c-0.8,0-1.1-0.6-1.1-1.1c0-0.6,0.3-1.1,1.1-1.1s1.1,0.6,1.1,1.1
			C129.9,151.4,129.6,151.9,128.9,151.9z M134.1,135.9c-3.4,0-6-2.7-6-6s2.7-6,6-6c3.4,0,6,2.7,6,6
			C140.1,133.3,137.4,135.9,134.1,135.9z M139.3,151.9c-0.8,0-1.1-0.6-1.1-1.1c0-0.6,0.3-1.1,1.1-1.1c0.8,0,1.1,0.6,1.1,1.1
			C140.4,151.4,140.1,151.9,139.3,151.9z M141.5,114.3c-2,2.4-4.6,3.6-7.4,3.6c-2.9,0-5.5-1.3-7.4-3.6c-0.4-0.6-0.3-1.3,0.1-1.7
			c0.6-0.4,1.3-0.3,1.7,0.1c1.5,1.8,3.4,2.8,5.6,2.8c2.2,0,4.1-1,5.6-2.8c0.4-0.6,1.3-0.6,1.7-0.1l0,0
			C141.9,113,141.9,113.8,141.5,114.3z M140.5,106.3h-3.9c-0.8,0-1.3-0.6-1.3-1.3c0-0.8,0.6-1.3,1.3-1.3h3.9c0.8,0,1.3,0.6,1.3,1.3
			C141.9,105.9,141.4,106.3,140.5,106.3z M156.3,108.7c-0.8,0-1.1-0.6-1.1-1.1s0.3-1.1,1.1-1.1s1.1,0.6,1.1,1.1
			S157.1,108.7,156.3,108.7z"/>
		<path class="st1" d="M134.1,129.3l-1.4-2.1h-1.4v4.8c0,0.4,0.3,0.7,0.7,0.7s0.7-0.3,0.7-0.7v-2.2l1.1,1.7h0.3l1.1-1.7v2.2
			c0,0.4,0.3,0.7,0.7,0.7s0.7-0.3,0.7-0.7v-4.8h-1.4L134.1,129.3z"/>
	</g>
</g>
</svg>
