<?xml version="1.0" encoding="utf-8"?>
<!-- Generator: Adobe Illustrator 26.3.1, SVG Export Plug-In . SVG Version: 6.00 Build 0)  -->
<svg version="1.1" id="Layer_1" xmlns="http://www.w3.org/2000/svg" xmlns:xlink="http://www.w3.org/1999/xlink" x="0px" y="0px"
	 viewBox="0 0 268.3 317.1" style="enable-background:new 0 0 268.3 317.1;" xml:space="preserve">
<style type="text/css">
	.st0{fill:#7E37C3;}
</style>
<g>
	<g>
		<path class="st0" d="M19.5,216.6c0-0.3,0-0.6,0-1c0-0.4,0.1-0.8,0.1-1.2c0-0.5,0.1-0.9,0.1-1.4c0.1-0.5,0.1-0.9,0.2-1.3
			c0-0.2,0.1-0.4,0.2-0.5c0.1-0.1,0.3-0.2,0.5-0.2h3.5c0.4,0,0.6,0.2,0.6,0.6c0,0.5-0.1,1-0.1,1.4c0,0.5,0,0.9,0,1.2
			c0,1.3,0.1,2.5,0.2,3.5c0.2,1.1,0.5,2,0.9,2.7c0.5,0.8,1.2,1.3,2,1.7c0.9,0.4,2.1,0.6,3.5,0.6c0.6,0,1.1,0,1.6-0.1
			c0.4,0,0.9-0.1,1.3-0.2c0-0.5,0-1,0.1-1.5c0-0.4,0-0.9,0-1.3c0-0.4,0-0.8,0-1.2s0-0.8,0-1.3v-2.7c0-2.9,0.8-5,2.5-6.3s4.1-2,7.3-2
			c1.1,0,2.1,0,3.1,0.1c1,0.1,1.8,0.2,2.4,0.3c0.2,0,0.3,0.1,0.5,0.2c0.1,0.1,0.2,0.3,0.2,0.5v7.8c0,0.5,0.1,0.8,0.3,1
			c0.2,0.2,0.6,0.2,1.2,0.2h1.6v5.5h-3.1c-0.9,0-1.7-0.1-2.3-0.2c-0.7-0.1-1.3-0.4-1.7-0.7c-0.5-0.4-0.8-0.9-1.1-1.5
			c-0.2-0.7-0.4-1.5-0.4-2.6v-5.6c-0.3,0-0.5-0.1-0.7-0.1c-0.2,0-0.4,0-0.7,0c-1.3,0-2.2,0.3-2.8,0.9c-0.6,0.6-0.9,1.6-0.9,3v5.5
			c0,1,0,2,0,3.1c0,1-0.1,2-0.1,3c0,0.4-0.3,0.7-0.8,0.8c-1.1,0.2-2.3,0.3-3.6,0.4c-1.3,0.1-2.7,0.1-4.1,0.1c-4,0-7-0.9-9-2.8
			C20.4,223.5,19.5,220.6,19.5,216.6z M24.1,231.1c0-0.2,0.1-0.4,0.2-0.6c0.2-0.1,0.4-0.2,0.6-0.2h3c0.2,0,0.4,0.1,0.6,0.2
			c0.2,0.1,0.2,0.3,0.2,0.6v3c0,0.2-0.1,0.3-0.3,0.5c-0.2,0.1-0.4,0.2-0.6,0.2h-3c-0.2,0-0.4-0.1-0.6-0.2c-0.2-0.1-0.2-0.3-0.2-0.5
			V231.1z M31.3,231.1c0-0.2,0.1-0.4,0.2-0.6c0.2-0.1,0.3-0.2,0.5-0.2h3.1c0.2,0,0.4,0.1,0.5,0.2c0.2,0.1,0.2,0.3,0.2,0.6v3
			c0,0.2-0.1,0.3-0.2,0.5c-0.2,0.1-0.3,0.2-0.5,0.2h-3.1c-0.2,0-0.4-0.1-0.5-0.2c-0.2-0.1-0.2-0.3-0.2-0.5V231.1z"/>
		<path class="st0" d="M52.2,216.9c0-0.1,0.1-0.2,0.4-0.3s0.5-0.1,0.7-0.1h3.3c-0.3-0.5-0.6-1.1-0.8-1.9s-0.3-1.6-0.3-2.5v-0.4
			c0-1.4,0.3-2.6,0.8-3.6c0.5-1,1.2-1.8,2.1-2.4c0.9-0.6,1.8-1,3-1.3c1.1-0.3,2.3-0.4,3.5-0.4c0.9,0,1.7,0,2.3,0.1
			c0.7,0.1,1.4,0.2,2.2,0.3c0.3,0,0.5,0.1,0.6,0.2c0.1,0.1,0.2,0.3,0.2,0.5v3.3c0,0.5-0.2,0.7-0.7,0.7c-0.7,0-1.4-0.1-1.9-0.1
			c-0.5,0-1.1,0-1.9,0c-1.6,0-2.8,0.3-3.6,0.8c-0.8,0.5-1.2,1.5-1.2,2.8v0.3c0,0.9,0.1,1.6,0.4,2.3c0.3,0.7,0.7,1.1,1.1,1.3h7.6
			c0.5,0,0.7,0.2,0.7,0.7v4.2c0,0.4-0.2,0.6-0.7,0.6H53.3c-0.2,0-0.5,0-0.7-0.1s-0.4-0.2-0.4-0.3V216.9z"/>
		<path class="st0" d="M75.5,226.4c0-0.4,0.2-0.6,0.6-0.6h3.4c0.9,0,1.7,0,2.4-0.1c0.7-0.1,1.2-0.2,1.6-0.4c0.4-0.2,0.7-0.5,0.9-0.9
			c0.2-0.4,0.3-0.9,0.3-1.4l0-1.3c-0.1,0.1-0.3,0.2-0.5,0.2c-0.2,0.1-0.5,0.1-0.7,0.1c-0.3,0-0.5,0.1-0.8,0.1s-0.5,0-0.6,0
			c-2.5,0-4.4-0.7-5.8-2.1c-1.4-1.4-2.1-3.4-2.1-6v-0.6c0-3,0.9-5.3,2.6-6.9c1.7-1.6,4.2-2.4,7.5-2.4c0.5,0,1,0,1.5,0.1
			c0.5,0,1.1,0.1,1.6,0.1c0.5,0,1,0.1,1.4,0.2c0.4,0.1,0.8,0.2,1,0.2c0.3,0.1,0.4,0.2,0.5,0.3c0.1,0.1,0.1,0.2,0.1,0.4v16.3
			c0,1.9-0.3,3.4-0.8,4.6c-0.6,1.2-1.3,2.1-2.2,2.7c-0.9,0.6-2,1.1-3.1,1.3c-1.2,0.2-2.4,0.3-3.6,0.3c-0.2,0-0.5,0-1,0
			c-0.5,0-0.9,0-1.4,0c-0.5,0-1,0-1.4-0.1c-0.4,0-0.7-0.1-0.9-0.1c-0.2,0-0.4-0.1-0.4-0.2s-0.1-0.3-0.1-0.5V226.4z M85,209.1
			c-0.3,0-0.5,0-0.8-0.1c-0.3,0-0.6,0-0.8,0c-1.2,0-2.2,0.3-2.8,1s-0.9,1.6-0.9,2.8v0.3c0,1.2,0.2,2,0.7,2.6
			c0.5,0.6,1.3,0.9,2.5,0.9c1.5,0,2.2-0.3,2.2-0.9V209.1z"/>
		<path class="st0" d="M91.6,226.5c0-0.4,0.2-0.6,0.6-0.6h0.7c0.6,0,1.1,0,1.6-0.1c0.4,0,0.8-0.2,1.1-0.4c0.3-0.2,0.5-0.5,0.6-0.9
			c0.1-0.4,0.2-0.9,0.2-1.6v-16.1c0-0.2,0.1-0.4,0.2-0.5c0.1-0.1,0.3-0.2,0.5-0.2h4c0.2,0,0.4,0.1,0.5,0.2c0.1,0.1,0.2,0.3,0.2,0.5
			v9.7h3.1v5.5h-3.2v1.3c0,0.8-0.1,1.6-0.2,2.3s-0.3,1.3-0.6,1.9c-0.6,1.1-1.4,2-2.4,2.4s-2.3,0.7-3.9,0.7c-0.1,0-0.3,0-0.5,0
			c-0.2,0-0.4,0-0.7,0c-0.2,0-0.5,0-0.7-0.1c-0.2,0-0.5,0-0.6-0.1c-0.3-0.1-0.5-0.3-0.5-0.7V226.5z"/>
		<path class="st0" d="M103.5,216.9c0-0.1,0.1-0.2,0.4-0.3s0.5-0.1,0.7-0.1h1c0.4,0,0.8-0.1,1.2-0.2c0.3-0.1,0.5-0.4,0.5-1v-7
			c0-0.2,0.1-0.4,0.2-0.5c0.2-0.1,0.3-0.2,0.5-0.2h3.9c0.2,0,0.4,0.1,0.5,0.2c0.1,0.1,0.2,0.3,0.2,0.5v7.8c0.2,0.2,0.5,0.4,0.9,0.4
			c0.4,0.1,0.7,0.1,1,0.1h0.4c0.4,0,0.8-0.1,1.1-0.2c0.4-0.1,0.5-0.4,0.5-0.9v-8.5c0-0.2,0.1-0.4,0.2-0.5c0.2-0.1,0.3-0.2,0.5-0.2
			h3.9c0.2,0,0.4,0.1,0.5,0.2c0.2,0.1,0.2,0.3,0.2,0.5v9.1c0.1,0.2,0.4,0.4,0.7,0.4c0.3,0.1,0.7,0.1,1.1,0.1h0.3c0.2,0,0.4,0,0.6,0
			c0.2,0,0.4-0.1,0.6-0.1s0.3-0.2,0.4-0.3c0.1-0.1,0.2-0.3,0.2-0.6v-9.8c0-0.2,0.1-0.4,0.2-0.5c0.1-0.1,0.3-0.2,0.5-0.2h4
			c0.2,0,0.4,0.1,0.5,0.2c0.1,0.1,0.2,0.3,0.2,0.5V216c0.1,0.1,0.2,0.2,0.4,0.2c0.2,0.1,0.4,0.1,0.6,0.1c0.2,0,0.4,0.1,0.6,0.1
			c0.2,0,0.4,0,0.5,0h1v5.5h-0.4c-0.8,0-1.6-0.1-2.6-0.2c-1-0.2-1.9-0.5-2.7-1c-0.7,0.5-1.4,0.9-2.2,1c-0.8,0.1-1.6,0.2-2.5,0.2H124
			c-0.8,0-1.6-0.1-2.3-0.2c-0.7-0.2-1.4-0.5-2.2-1c-0.6,0.5-1.3,0.8-2,1c-0.7,0.2-1.5,0.2-2.5,0.2h-0.4c-0.8,0-1.5-0.1-2.2-0.2
			c-0.7-0.2-1.4-0.5-2.2-1c-0.3,0.3-0.7,0.5-1.1,0.6c-0.4,0.2-0.8,0.3-1.3,0.4c-0.4,0.1-0.9,0.2-1.3,0.2c-0.4,0-0.8,0-1.2,0h-0.8
			c-0.2,0-0.5,0-0.7-0.1s-0.4-0.2-0.4-0.3V216.9z M113,198.7c0-0.2,0.1-0.4,0.2-0.6c0.2-0.2,0.4-0.2,0.6-0.2h3.1
			c0.2,0,0.4,0.1,0.6,0.2c0.2,0.2,0.3,0.4,0.3,0.6v3.1c0,0.2-0.1,0.4-0.3,0.5c-0.2,0.2-0.4,0.2-0.6,0.2h-3.1c-0.2,0-0.4-0.1-0.6-0.2
			c-0.2-0.2-0.2-0.3-0.2-0.5V198.7z M116.8,193.2c0-0.2,0.1-0.4,0.3-0.6c0.2-0.2,0.4-0.2,0.6-0.2h3c0.2,0,0.4,0.1,0.6,0.2
			c0.2,0.2,0.2,0.3,0.2,0.6v2.5c0,0.2-0.1,0.4-0.3,0.6c-0.2,0.1-0.4,0.2-0.6,0.2h-3c-0.2,0-0.4-0.1-0.5-0.2s-0.2-0.3-0.2-0.6V193.2z
			 M120.3,198.7c0-0.2,0.1-0.4,0.3-0.6c0.2-0.2,0.4-0.2,0.6-0.2h3.1c0.2,0,0.4,0.1,0.6,0.2c0.2,0.2,0.2,0.4,0.2,0.6v3.1
			c0,0.2-0.1,0.4-0.2,0.5c-0.2,0.2-0.4,0.2-0.6,0.2h-3.1c-0.2,0-0.4-0.1-0.6-0.2c-0.2-0.2-0.3-0.3-0.3-0.5V198.7z"/>
		<path class="st0" d="M133.2,216.9c0-0.1,0.1-0.2,0.4-0.3s0.5-0.1,0.7-0.1h1.1c0.3,0,0.6,0,1-0.1c0.4-0.1,0.6-0.3,0.7-0.7
			c0-0.1,0.1-0.2,0.1-0.3c0-0.1,0-0.2,0-0.3v-2.6c0-1.4,0.2-2.5,0.6-3.6c0.4-1,1-1.9,1.7-2.5c0.7-0.7,1.6-1.2,2.7-1.5
			s2.2-0.5,3.4-0.5c1.2,0,2.4,0.2,3.4,0.5c1,0.3,1.9,0.8,2.6,1.5c0.7,0.7,1.3,1.5,1.7,2.5c0.4,1,0.6,2.2,0.6,3.5v2.2
			c0,1.4-0.2,2.6-0.6,3.6c-0.4,1-0.9,1.8-1.7,2.5c-0.7,0.7-1.6,1.2-2.6,1.5c-1,0.3-2.2,0.5-3.4,0.5c-0.6,0-1.2,0-1.7-0.1
			c-0.6-0.1-1.2-0.2-1.7-0.3c-0.5-0.1-1.1-0.3-1.5-0.5c-0.5-0.2-0.8-0.5-1.1-0.7c-0.5,0.5-1.2,0.8-1.9,1c-0.7,0.2-1.6,0.3-2.6,0.3
			h-0.6c-0.2,0-0.5,0-0.7-0.1s-0.4-0.2-0.4-0.3V216.9z M142.5,214c0,0.5,0,0.9,0.1,1.4c0.2,0.8,0.5,1.3,1,1.6
			c0.5,0.3,1.1,0.4,1.9,0.4c1,0,1.7-0.2,2.2-0.7s0.7-1.4,0.7-2.7v-1.4c0-1.3-0.2-2.2-0.7-2.7c-0.5-0.5-1.2-0.8-2.2-0.8
			s-1.7,0.3-2.2,0.8c-0.5,0.5-0.8,1.4-0.8,2.7V214z"/>
		<path class="st0" d="M171.1,210.9c0.4,0,0.6,0.2,0.6,0.7c0,0.5-0.1,1-0.1,1.4c0,0.5,0,0.9,0,1.2c0,1.4,0.1,2.6,0.3,3.7
			s0.5,2,1,2.7c0.5,0.8,1.2,1.3,2.1,1.7c0.9,0.4,2,0.6,3.5,0.6c0.3,0,0.7,0,1.2,0s0.8-0.1,1.2-0.1c0-1.1,0.1-2.1,0.1-2.9
			c0-0.9,0-1.8,0-2.8v-21.7c0-0.2,0.1-0.4,0.2-0.5s0.3-0.2,0.5-0.2h4.1c0.2,0,0.4,0.1,0.5,0.2c0.1,0.1,0.2,0.3,0.2,0.5v21.1h3.1v5.5
			h-3.1c0,0.8-0.1,1.7-0.1,2.5c0,0.9-0.1,1.6-0.1,2.4c0,0.4-0.3,0.7-0.7,0.8c-1,0.2-2.1,0.4-3.4,0.6c-1.3,0.1-2.5,0.2-3.6,0.2
			c-1.9,0-3.6-0.2-5.1-0.6c-1.5-0.4-2.7-1.1-3.8-2c-1-0.9-1.8-2.1-2.4-3.6s-0.8-3.2-0.8-5.3c0-0.3,0-0.6,0-1.1
			c0-0.4,0.1-0.9,0.1-1.4c0-0.5,0.1-1,0.1-1.5c0.1-0.5,0.1-1,0.2-1.4c0.1-0.5,0.3-0.7,0.7-0.7H171.1z"/>
		<path class="st0" d="M187.3,225.9c0-0.2,0.1-0.4,0.2-0.6c0.2-0.2,0.4-0.2,0.6-0.2h3.1c0.2,0,0.4,0.1,0.6,0.2
			c0.2,0.2,0.3,0.4,0.3,0.6v3.4c0,0.2-0.1,0.4-0.3,0.5c-0.2,0.2-0.4,0.2-0.6,0.2h-3.1c-0.2,0-0.4-0.1-0.6-0.2
			c-0.2-0.2-0.2-0.3-0.2-0.5V225.9z M188.1,216.9c0-0.1,0.1-0.2,0.4-0.3c0.3-0.1,0.5-0.1,0.7-0.1h2.1c0.5,0,0.9,0,1.1-0.1
			c0.2-0.1,0.3-0.4,0.3-1c0-1.1,0-2.5,0-4c0-1.5,0-3.1-0.1-4.7c0-0.2,0.1-0.4,0.2-0.5c0.1-0.1,0.3-0.2,0.5-0.2h3.9
			c0.3,0,0.5,0.1,0.6,0.2c0.1,0.1,0.2,0.3,0.2,0.5c0,0.7,0,1.4,0.1,2c0,0.6,0,1.2,0,1.7s0,1.1,0,1.6s0,1.1,0,1.7c0,1.8,0,3.2,0,4.3
			s-0.1,2-0.1,2.7c0,0.2-0.1,0.4-0.2,0.6c-0.1,0.2-0.3,0.3-0.6,0.4c-0.3,0.1-0.7,0.1-1.2,0.2c-0.5,0.1-1.1,0.1-1.7,0.1
			c-0.6,0-1.2,0.1-1.9,0.1s-1.2,0-1.7,0h-1.4c-0.2,0-0.5,0-0.7-0.1c-0.3-0.1-0.4-0.2-0.4-0.3V216.9z M194.5,225.9
			c0-0.2,0.1-0.4,0.3-0.6c0.2-0.2,0.4-0.2,0.6-0.2h3.1c0.2,0,0.4,0.1,0.6,0.2c0.2,0.2,0.2,0.4,0.2,0.6v3.4c0,0.2-0.1,0.4-0.2,0.5
			c-0.2,0.2-0.4,0.2-0.6,0.2h-3.1c-0.2,0-0.4-0.1-0.6-0.2c-0.2-0.2-0.3-0.3-0.3-0.5V225.9z"/>
		<path class="st0" d="M203.6,226.4c0-0.4,0.2-0.6,0.6-0.6h3.4c0.9,0,1.7,0,2.4-0.1c0.7-0.1,1.2-0.2,1.6-0.4
			c0.4-0.2,0.7-0.5,0.9-0.9s0.3-0.9,0.4-1.4V222h-1.9c-2.7,0-4.9-0.7-6.4-2.1c-1.5-1.4-2.3-3.4-2.3-6v-0.6c0-3,0.9-5.3,2.6-6.9
			c1.7-1.6,4.2-2.4,7.5-2.4c0.5,0,1,0,1.5,0.1c0.5,0,1.1,0.1,1.6,0.1c0.5,0,1,0.1,1.4,0.2c0.4,0.1,0.8,0.2,1,0.2
			c0.2,0.1,0.4,0.2,0.5,0.3c0.1,0.1,0.1,0.2,0.1,0.4v11.1h3.1v5.5h-3.2v1.1c-0.1,1.5-0.5,2.8-1.1,3.8c-0.6,1-1.3,1.8-2.2,2.3
			c-0.9,0.5-1.9,0.9-3,1.1c-1.1,0.2-2.3,0.3-3.4,0.3c-0.2,0-0.5,0-1,0s-0.9,0-1.4,0c-0.5,0-1,0-1.4-0.1c-0.4,0-0.7-0.1-0.9-0.1
			c-0.2,0-0.4-0.1-0.4-0.2c-0.1-0.1-0.1-0.3-0.1-0.5V226.4z M207.7,213.2c0,1.2,0.2,2,0.7,2.6c0.5,0.6,1.3,0.9,2.5,0.9h2.2v-7.6
			c-0.3,0-0.5,0-0.8-0.1s-0.6,0-0.8,0c-1.2,0-2.1,0.3-2.8,1c-0.6,0.7-1,1.6-1,2.8V213.2z"/>
		<path class="st0" d="M220.3,216.9c0-0.1,0.1-0.2,0.4-0.3c0.3-0.1,0.5-0.1,0.7-0.1h1.1c0.3,0,0.7,0,1-0.1s0.6-0.3,0.7-0.6
			c0-0.1,0.1-0.2,0.1-0.3s0-0.3,0-0.4v-2.6c0-1.4,0.2-2.5,0.6-3.6c0.4-1,1-1.9,1.7-2.5c0.7-0.7,1.6-1.2,2.7-1.5
			c1-0.3,2.2-0.5,3.4-0.5c1.2,0,2.4,0.2,3.4,0.5c1,0.3,1.9,0.8,2.6,1.5c0.7,0.7,1.3,1.5,1.7,2.5s0.6,2.2,0.6,3.6v2
			c0,0.2,0,0.4,0,0.6s0,0.4-0.1,0.6c0.1,0.2,0.2,0.3,0.3,0.4c0.2,0.1,0.3,0.2,0.5,0.3s0.4,0.1,0.6,0.1c0.2,0,0.3,0,0.5,0h1v5.5H243
			c-0.8,0-1.6-0.1-2.4-0.2c-0.8-0.2-1.6-0.5-2.3-0.9c-0.7,0.6-1.5,1.1-2.4,1.3c-1,0.3-2,0.4-3.2,0.4c-0.6,0-1.2,0-1.7-0.1
			c-0.6-0.1-1.2-0.2-1.7-0.3c-0.5-0.1-1.1-0.3-1.5-0.6s-0.8-0.5-1.1-0.8c-0.5,0.4-1.2,0.7-1.9,0.9c-0.8,0.2-1.5,0.2-2.2,0.2h-1
			c-0.2,0-0.5,0-0.7-0.1c-0.3-0.1-0.4-0.2-0.4-0.3V216.9z M229.6,212.7v1.5c0,0.5,0,1,0.1,1.4c0.1,0.8,0.5,1.3,1,1.6
			s1.1,0.5,1.9,0.5c1,0,1.7-0.3,2.2-0.8c0.5-0.5,0.7-1.4,0.7-2.7v-1.5c0-1.3-0.2-2.2-0.7-2.8c-0.5-0.5-1.2-0.8-2.2-0.8
			c-1,0-1.7,0.3-2.2,0.8C229.9,210.4,229.6,211.3,229.6,212.7z"/>
		<path class="st0" d="M242.4,216.9c0-0.1,0.1-0.2,0.4-0.3c0.3-0.1,0.5-0.1,0.7-0.1h2.1c0.5,0,0.9,0,1.1-0.1c0.2-0.1,0.3-0.4,0.3-1
			c0-1.1,0-2.5,0-4c0-1.5,0-3.1-0.1-4.7c0-0.2,0.1-0.4,0.2-0.5c0.1-0.1,0.3-0.2,0.5-0.2h3.9c0.3,0,0.5,0.1,0.6,0.2
			c0.1,0.1,0.2,0.3,0.2,0.5c0,0.7,0,1.4,0.1,2c0,0.6,0,1.2,0,1.7s0,1.1,0,1.6s0,1.1,0,1.7c0,1.8,0,3.2,0,4.3s-0.1,2-0.1,2.7
			c0,0.2-0.1,0.4-0.2,0.6c-0.1,0.2-0.3,0.3-0.6,0.4c-0.3,0.1-0.7,0.1-1.2,0.2c-0.5,0.1-1.1,0.1-1.7,0.1c-0.6,0-1.2,0.1-1.9,0.1
			s-1.2,0-1.7,0h-1.4c-0.2,0-0.5,0-0.7-0.1c-0.3-0.1-0.4-0.2-0.4-0.3V216.9z M243.5,198.4c0-0.2,0.1-0.4,0.2-0.6
			c0.2-0.2,0.4-0.2,0.6-0.2h3.1c0.2,0,0.4,0.1,0.6,0.2c0.2,0.2,0.3,0.4,0.3,0.6v3.4c0,0.2-0.1,0.4-0.3,0.6s-0.4,0.2-0.6,0.2h-3.1
			c-0.2,0-0.4-0.1-0.6-0.2c-0.2-0.2-0.2-0.3-0.2-0.6V198.4z M250.8,198.4c0-0.2,0.1-0.4,0.3-0.6c0.2-0.2,0.4-0.2,0.6-0.2h3.1
			c0.2,0,0.4,0.1,0.6,0.2c0.2,0.2,0.2,0.4,0.2,0.6v3.4c0,0.2-0.1,0.4-0.2,0.6c-0.2,0.2-0.4,0.2-0.6,0.2h-3.1c-0.2,0-0.4-0.1-0.6-0.2
			c-0.2-0.2-0.3-0.3-0.3-0.6V198.4z"/>
	</g>
	<g>
		<path class="st0" d="M37.7,260.2c0,0.1,0,0.2-0.1,0.3s-0.2,0.1-0.3,0.1h-3.4c-0.1,0-0.2-0.1-0.3-0.2s-0.1-0.2-0.1-0.4v-10.9
			c0-0.1,0-0.2-0.1-0.2c-0.1,0-0.1,0.1-0.2,0.2l-2.3,4.3c-0.2,0.3-0.4,0.4-0.8,0.4h-2.1c-0.3,0-0.6-0.1-0.8-0.4l-2.3-4.3
			c-0.1-0.1-0.1-0.2-0.2-0.2c-0.1,0-0.1,0.1-0.1,0.2V260c0,0.1,0,0.3-0.1,0.4s-0.2,0.2-0.3,0.2h-3.4c-0.1,0-0.2,0-0.3-0.1
			s-0.1-0.1-0.1-0.3v-18.1c0-0.3,0.1-0.5,0.3-0.7s0.4-0.2,0.7-0.2h2.4c0.5,0,0.9,0.2,1.1,0.7l4,7.4c0.1,0.2,0.2,0.3,0.3,0.3
			c0.1,0,0.2-0.1,0.3-0.3l4-7.4c0.2-0.5,0.6-0.7,1.1-0.7h2.4c0.3,0,0.5,0.1,0.7,0.2s0.3,0.4,0.3,0.7V260.2z"/>
		<path class="st0" d="M52.6,260c0,0.1-0.1,0.3-0.2,0.4s-0.2,0.2-0.4,0.2h-2.9c-0.1,0-0.3-0.1-0.4-0.2c-0.1-0.1-0.2-0.2-0.2-0.4
			v-0.4c-0.5,0.4-1,0.7-1.6,0.9c-0.6,0.2-1.2,0.3-2,0.3c-0.6,0-1.1-0.1-1.7-0.2c-0.5-0.1-1-0.4-1.4-0.7c-0.4-0.3-0.8-0.8-1-1.4
			c-0.3-0.6-0.4-1.3-0.4-2.1v-0.2c0-1.5,0.5-2.6,1.5-3.3s2.6-1.1,4.9-1.1h1.4v-0.9c0-0.7-0.2-1.2-0.5-1.5c-0.3-0.2-0.8-0.3-1.4-0.3
			c-0.4,0-0.8,0-1.3,0c-0.4,0-0.8,0-1.2,0c-0.4,0-0.7,0-1.1,0.1c-0.3,0-0.6,0-0.8,0.1H42c-0.1,0-0.3,0-0.3-0.1
			c-0.1-0.1-0.1-0.2-0.1-0.4v-2.1c0-0.3,0.2-0.5,0.5-0.6c0.5-0.1,1.1-0.2,2-0.4c0.8-0.1,1.7-0.2,2.5-0.2c0.9,0,1.8,0.1,2.5,0.3
			c0.8,0.2,1.4,0.5,1.9,0.9c0.5,0.4,0.9,1,1.2,1.6s0.4,1.5,0.4,2.4V260z M48.4,254.2H47c-0.5,0-0.8,0-1.1,0.1s-0.5,0.2-0.7,0.4
			s-0.3,0.4-0.4,0.6c-0.1,0.2-0.1,0.5-0.1,0.8v0.2c0,0.6,0.1,0.9,0.4,1.1c0.3,0.2,0.7,0.2,1.2,0.2c0.4,0,0.8-0.1,1.1-0.2
			c0.4-0.1,0.7-0.2,1-0.4V254.2z"/>
		<path class="st0" d="M66.1,256.4c0,0.6-0.1,1.2-0.3,1.7c-0.2,0.5-0.6,1-1,1.4s-1,0.7-1.7,0.9c-0.7,0.2-1.5,0.3-2.5,0.3
			c-0.4,0-0.7,0-1.2,0c-0.4,0-0.8-0.1-1.2-0.1s-0.8-0.1-1.2-0.2c-0.4-0.1-0.8-0.1-1.1-0.2c-0.3-0.1-0.5-0.3-0.5-0.6v-2.1
			c0-0.1,0-0.3,0.1-0.4c0.1-0.1,0.2-0.1,0.4-0.1h0.1c0.3,0.1,0.7,0.1,1.2,0.1c0.4,0,0.8,0.1,1.3,0.1c0.4,0,0.8,0.1,1.2,0.1
			c0.4,0,0.6,0,0.8,0c0.6,0,1-0.1,1.2-0.2s0.3-0.4,0.3-0.8c0-0.2-0.1-0.4-0.2-0.5c-0.1-0.2-0.4-0.4-0.8-0.6l-3.4-2
			c-0.7-0.4-1.3-1-1.7-1.6c-0.4-0.7-0.6-1.4-0.6-2.3c0-1.3,0.4-2.3,1.3-3c0.9-0.7,2.2-1,4-1c1,0,1.9,0.1,2.6,0.2s1.4,0.3,2,0.4
			c0.3,0.1,0.5,0.3,0.5,0.6v2.1c0,0.3-0.1,0.5-0.4,0.5h-0.1c-0.2,0-0.5,0-0.8-0.1c-0.3,0-0.7-0.1-1.1-0.1c-0.4,0-0.8-0.1-1.2-0.1
			c-0.4,0-0.8,0-1.1,0c-0.5,0-0.9,0.1-1.1,0.2c-0.2,0.1-0.3,0.3-0.3,0.6c0,0.2,0.1,0.4,0.2,0.5c0.1,0.1,0.3,0.3,0.6,0.4l3.2,1.8
			c0.5,0.3,1,0.6,1.3,1s0.6,0.7,0.8,1c0.2,0.3,0.3,0.7,0.4,1C66.1,255.7,66.1,256.1,66.1,256.4z"/>
		<path class="st0" d="M81.6,260c0,0.1-0.1,0.3-0.2,0.4c-0.1,0.1-0.2,0.2-0.4,0.2h-3.2c-0.1,0-0.3-0.1-0.4-0.2
			c-0.1-0.1-0.2-0.2-0.2-0.4v-8.7c0-0.5,0-0.8-0.1-1.1s-0.1-0.6-0.3-0.8s-0.3-0.3-0.6-0.4s-0.6-0.1-1-0.1c-0.4,0-0.8,0.1-1.2,0.2
			c-0.4,0.2-0.8,0.4-1.3,0.6V260c0,0.1-0.1,0.3-0.2,0.4c-0.1,0.1-0.2,0.2-0.4,0.2h-3.2c-0.1,0-0.3-0.1-0.4-0.2s-0.2-0.2-0.2-0.4
			v-18.9c0-0.1,0.1-0.3,0.2-0.4c0.1-0.1,0.2-0.2,0.4-0.2h3.2c0.1,0,0.3,0.1,0.4,0.2c0.1,0.1,0.2,0.2,0.2,0.4v5.5
			c0.7-0.4,1.3-0.7,1.9-0.9c0.6-0.2,1.3-0.3,2.1-0.3c0.9,0,1.7,0.2,2.3,0.5c0.6,0.3,1.1,0.7,1.4,1.3c0.3,0.5,0.6,1.2,0.7,1.9
			c0.1,0.7,0.2,1.5,0.2,2.3V260z"/>
		<path class="st0" d="M92.9,248.4c0,0.1,0,0.2-0.1,0.3c-0.1,0.1-0.2,0.2-0.3,0.2h-0.2c-0.6,0-1.2,0.1-1.8,0.3
			c-0.6,0.2-1.1,0.4-1.6,0.6V260c0,0.1-0.1,0.3-0.2,0.4c-0.1,0.1-0.2,0.2-0.4,0.2h-3.2c-0.1,0-0.3-0.1-0.4-0.2s-0.2-0.2-0.2-0.4
			v-13.9c0-0.1,0.1-0.3,0.2-0.4c0.1-0.1,0.2-0.2,0.4-0.2h3.1c0.1,0,0.3,0.1,0.4,0.2c0.1,0.1,0.2,0.2,0.2,0.4v0.5
			c0.5-0.4,1-0.7,1.7-0.9s1.2-0.3,1.9-0.3c0.1,0,0.3,0.1,0.4,0.2c0.1,0.1,0.2,0.2,0.2,0.4V248.4z"/>
		<path class="st0" d="M107.2,254c0,1-0.1,2-0.4,2.8c-0.3,0.8-0.7,1.5-1.3,2.1c-0.5,0.6-1.2,1-2,1.4c-0.8,0.3-1.7,0.5-2.8,0.5
			s-2-0.2-2.8-0.5c-0.8-0.3-1.5-0.8-2-1.4c-0.6-0.6-1-1.3-1.3-2.1s-0.4-1.8-0.4-2.8v-1.8c0-1,0.1-2,0.4-2.8c0.3-0.8,0.7-1.5,1.3-2.1
			c0.6-0.6,1.2-1,2-1.4c0.8-0.3,1.7-0.5,2.8-0.5s2,0.2,2.8,0.5s1.5,0.8,2,1.4c0.5,0.6,1,1.3,1.3,2.1c0.3,0.8,0.4,1.8,0.4,2.8V254z
			 M103,252.2c0-2.1-0.8-3.2-2.3-3.2c-0.8,0-1.3,0.3-1.7,0.8c-0.4,0.5-0.6,1.3-0.6,2.4v1.8c0,1.1,0.2,1.9,0.6,2.4s1,0.8,1.7,0.8
			c1.5,0,2.3-1.1,2.3-3.2V252.2z"/>
		<path class="st0" d="M121.4,260c0,0.1-0.1,0.3-0.2,0.4s-0.2,0.2-0.4,0.2H118c-0.1,0-0.3-0.1-0.4-0.2c-0.1-0.1-0.2-0.2-0.2-0.4
			v-0.4c-0.5,0.4-1,0.7-1.6,0.9c-0.6,0.2-1.2,0.3-2,0.3c-0.6,0-1.1-0.1-1.7-0.2c-0.5-0.1-1-0.4-1.4-0.7c-0.4-0.3-0.8-0.8-1-1.4
			c-0.3-0.6-0.4-1.3-0.4-2.1v-0.2c0-1.5,0.5-2.6,1.5-3.3s2.6-1.1,4.9-1.1h1.4v-0.9c0-0.7-0.2-1.2-0.5-1.5c-0.3-0.2-0.8-0.3-1.4-0.3
			c-0.4,0-0.8,0-1.3,0c-0.4,0-0.8,0-1.2,0c-0.4,0-0.7,0-1.1,0.1c-0.3,0-0.6,0-0.8,0.1h-0.1c-0.1,0-0.3,0-0.3-0.1
			c-0.1-0.1-0.1-0.2-0.1-0.4v-2.1c0-0.3,0.2-0.5,0.5-0.6c0.5-0.1,1.1-0.2,2-0.4c0.8-0.1,1.7-0.2,2.5-0.2c0.9,0,1.8,0.1,2.5,0.3
			c0.8,0.2,1.4,0.5,1.9,0.9c0.5,0.4,0.9,1,1.2,1.6s0.4,1.5,0.4,2.4V260z M117.3,254.2h-1.5c-0.5,0-0.8,0-1.1,0.1s-0.5,0.2-0.7,0.4
			s-0.3,0.4-0.4,0.6c-0.1,0.2-0.1,0.5-0.1,0.8v0.2c0,0.6,0.1,0.9,0.4,1.1c0.3,0.2,0.7,0.2,1.2,0.2c0.4,0,0.8-0.1,1.1-0.2
			c0.4-0.1,0.7-0.2,1-0.4V254.2z"/>
		<path class="st0" d="M137.2,253.8c0,0.4-0.2,0.6-0.5,0.6h-8.3v0.1c0,0.4,0,0.7,0.1,1.1c0.1,0.3,0.2,0.6,0.4,0.9s0.5,0.5,0.8,0.6
			c0.3,0.2,0.8,0.2,1.3,0.2c0.4,0,0.9,0,1.3,0c0.5,0,0.9,0,1.4-0.1c0.5,0,0.9,0,1.3-0.1c0.4,0,0.7-0.1,1-0.1h0.1
			c0.3,0,0.5,0.1,0.5,0.4v2c0,0.2,0,0.4-0.1,0.5c-0.1,0.1-0.2,0.2-0.4,0.2c-0.8,0.2-1.6,0.4-2.4,0.5c-0.8,0.1-1.8,0.2-2.9,0.2
			c-0.8,0-1.6-0.1-2.3-0.3c-0.8-0.2-1.5-0.6-2.1-1.1c-0.6-0.5-1.1-1.2-1.5-2.1s-0.6-1.9-0.6-3.2v-1.8c0-1,0.1-2,0.4-2.8
			c0.3-0.9,0.7-1.6,1.3-2.2s1.3-1,2.1-1.4s1.7-0.5,2.8-0.5c1.1,0,2,0.2,2.8,0.5c0.8,0.3,1.5,0.8,2,1.4c0.5,0.6,0.9,1.3,1.2,2.2
			c0.3,0.8,0.4,1.7,0.4,2.7V253.8z M133,251.7c0-1-0.2-1.7-0.6-2.2s-1-0.7-1.7-0.7c-0.7,0-1.3,0.2-1.7,0.7c-0.4,0.5-0.7,1.2-0.7,2.2
			v0.1h4.7V251.7z"/>
		<path class="st0" d="M152.5,253.8c0,0.4-0.2,0.6-0.5,0.6h-8.3v0.1c0,0.4,0,0.7,0.1,1.1c0.1,0.3,0.2,0.6,0.4,0.9s0.5,0.5,0.8,0.6
			c0.3,0.2,0.8,0.2,1.3,0.2c0.4,0,0.9,0,1.3,0c0.5,0,0.9,0,1.4-0.1c0.5,0,0.9,0,1.3-0.1c0.4,0,0.7-0.1,1-0.1h0.1
			c0.3,0,0.5,0.1,0.5,0.4v2c0,0.2,0,0.4-0.1,0.5c-0.1,0.1-0.2,0.2-0.4,0.2c-0.8,0.2-1.6,0.4-2.4,0.5c-0.8,0.1-1.8,0.2-2.9,0.2
			c-0.8,0-1.6-0.1-2.3-0.3c-0.8-0.2-1.5-0.6-2.1-1.1c-0.6-0.5-1.1-1.2-1.5-2.1c-0.4-0.9-0.6-1.9-0.6-3.2v-1.8c0-1,0.1-2,0.4-2.8
			s0.7-1.6,1.3-2.2s1.3-1,2.1-1.4c0.8-0.3,1.7-0.5,2.8-0.5c1.1,0,2,0.2,2.8,0.5c0.8,0.3,1.5,0.8,2,1.4c0.5,0.6,0.9,1.3,1.2,2.2
			c0.3,0.8,0.4,1.7,0.4,2.7V253.8z M148.4,251.7c0-1-0.2-1.7-0.6-2.2c-0.4-0.5-1-0.7-1.7-0.7c-0.7,0-1.3,0.2-1.7,0.7
			c-0.4,0.5-0.7,1.2-0.7,2.2v0.1h4.7V251.7z"/>
		<path class="st0" d="M174.1,244.3c0,0.1-0.1,0.3-0.2,0.4c-0.1,0.1-0.2,0.2-0.4,0.2h-5.3c-0.6,0-1,0.1-1.3,0.4
			c-0.3,0.3-0.4,0.7-0.4,1.4v2.3h6.7c0.1,0,0.3,0.1,0.4,0.2c0.1,0.1,0.2,0.2,0.2,0.4v2.5c0,0.1-0.1,0.3-0.2,0.4
			c-0.1,0.1-0.2,0.2-0.4,0.2h-6.7v7.6c0,0.1-0.1,0.3-0.2,0.4c-0.1,0.1-0.2,0.2-0.4,0.2h-3.4c-0.1,0-0.3-0.1-0.4-0.2
			c-0.1-0.1-0.2-0.2-0.2-0.4v-13.5c0-1.2,0.2-2.1,0.5-2.9c0.3-0.7,0.8-1.3,1.4-1.7c0.6-0.4,1.3-0.7,2-0.8s1.6-0.2,2.4-0.2
			c0.7,0,1.3,0,1.8,0c0.5,0,1,0.1,1.4,0.1c0.4,0,0.7,0.1,1,0.1c0.3,0,0.5,0.1,0.8,0.1c0.3,0.1,0.5,0.2,0.5,0.5V244.3z"/>
		<path class="st0" d="M181.6,243.4c0,0.1-0.1,0.3-0.2,0.4c-0.1,0.1-0.2,0.2-0.4,0.2h-3.4c-0.1,0-0.3-0.1-0.4-0.2
			c-0.1-0.1-0.2-0.2-0.2-0.4V241c0-0.1,0.1-0.3,0.2-0.4s0.2-0.2,0.4-0.2h3.4c0.1,0,0.3,0.1,0.4,0.2s0.2,0.2,0.2,0.4V243.4z
			 M181.5,260c0,0.1-0.1,0.3-0.2,0.4c-0.1,0.1-0.2,0.2-0.4,0.2h-3.2c-0.1,0-0.3-0.1-0.4-0.2c-0.1-0.1-0.2-0.2-0.2-0.4v-13.9
			c0-0.1,0.1-0.3,0.2-0.4c0.1-0.1,0.2-0.2,0.4-0.2h3.2c0.1,0,0.3,0.1,0.4,0.2c0.1,0.1,0.2,0.2,0.2,0.4V260z"/>
		<path class="st0" d="M197.5,260c0,0.1-0.1,0.3-0.2,0.4c-0.1,0.1-0.2,0.2-0.4,0.2h-3.2c-0.1,0-0.3-0.1-0.4-0.2
			c-0.1-0.1-0.2-0.2-0.2-0.4v-8.7c0-0.5,0-0.8-0.1-1.1c-0.1-0.3-0.1-0.6-0.3-0.8s-0.3-0.3-0.6-0.4s-0.6-0.1-1-0.1
			c-0.4,0-0.8,0.1-1.2,0.2c-0.4,0.2-0.8,0.4-1.3,0.6V260c0,0.1-0.1,0.3-0.2,0.4c-0.1,0.1-0.2,0.2-0.4,0.2h-3.2
			c-0.1,0-0.3-0.1-0.4-0.2s-0.2-0.2-0.2-0.4v-13.9c0-0.1,0.1-0.3,0.2-0.4c0.1-0.1,0.2-0.2,0.4-0.2h2.9c0.1,0,0.3,0.1,0.4,0.2
			c0.1,0.1,0.2,0.2,0.2,0.4v0.6c0.7-0.5,1.4-0.9,2-1.1c0.6-0.2,1.4-0.3,2.2-0.3c0.9,0,1.7,0.2,2.3,0.5c0.6,0.3,1.1,0.7,1.4,1.3
			c0.3,0.5,0.6,1.2,0.7,1.9c0.1,0.7,0.2,1.5,0.2,2.3V260z"/>
		<path class="st0" d="M212.2,260c0,0.1-0.1,0.3-0.2,0.4s-0.2,0.2-0.4,0.2h-2.9c-0.1,0-0.3-0.1-0.4-0.2s-0.2-0.2-0.2-0.4v-0.4
			c-0.5,0.4-1,0.7-1.6,0.9c-0.6,0.2-1.2,0.3-2,0.3c-0.6,0-1.1-0.1-1.7-0.2c-0.5-0.1-1-0.4-1.4-0.7c-0.4-0.3-0.8-0.8-1-1.4
			s-0.4-1.3-0.4-2.1v-0.2c0-1.5,0.5-2.6,1.5-3.3c1-0.7,2.6-1.1,4.9-1.1h1.4v-0.9c0-0.7-0.2-1.2-0.5-1.5c-0.3-0.2-0.8-0.3-1.4-0.3
			c-0.4,0-0.8,0-1.3,0c-0.4,0-0.8,0-1.2,0c-0.4,0-0.7,0-1.1,0.1c-0.3,0-0.6,0-0.8,0.1h-0.1c-0.1,0-0.3,0-0.3-0.1s-0.1-0.2-0.1-0.4
			v-2.1c0-0.3,0.2-0.5,0.5-0.6c0.5-0.1,1.1-0.2,2-0.4c0.8-0.1,1.7-0.2,2.5-0.2c0.9,0,1.8,0.1,2.5,0.3c0.8,0.2,1.4,0.5,1.9,0.9
			c0.5,0.4,0.9,1,1.2,1.6s0.4,1.5,0.4,2.4V260z M208,254.2h-1.5c-0.5,0-0.8,0-1.1,0.1c-0.3,0.1-0.5,0.2-0.7,0.4
			c-0.2,0.2-0.3,0.4-0.4,0.6c-0.1,0.2-0.1,0.5-0.1,0.8v0.2c0,0.6,0.1,0.9,0.4,1.1c0.3,0.2,0.7,0.2,1.2,0.2c0.4,0,0.8-0.1,1.1-0.2
			c0.4-0.1,0.7-0.2,1-0.4V254.2z"/>
		<path class="st0" d="M228.1,260c0,0.1-0.1,0.3-0.2,0.4c-0.1,0.1-0.2,0.2-0.4,0.2h-3.2c-0.1,0-0.3-0.1-0.4-0.2
			c-0.1-0.1-0.2-0.2-0.2-0.4v-8.7c0-0.5,0-0.8-0.1-1.1c-0.1-0.3-0.1-0.6-0.3-0.8s-0.3-0.3-0.6-0.4s-0.6-0.1-1-0.1
			c-0.4,0-0.8,0.1-1.2,0.2c-0.4,0.2-0.8,0.4-1.3,0.6V260c0,0.1-0.1,0.3-0.2,0.4c-0.1,0.1-0.2,0.2-0.4,0.2h-3.2
			c-0.1,0-0.3-0.1-0.4-0.2s-0.2-0.2-0.2-0.4v-13.9c0-0.1,0.1-0.3,0.2-0.4c0.1-0.1,0.2-0.2,0.4-0.2h2.9c0.1,0,0.3,0.1,0.4,0.2
			c0.1,0.1,0.2,0.2,0.2,0.4v0.6c0.7-0.5,1.4-0.9,2-1.1c0.6-0.2,1.4-0.3,2.2-0.3c0.9,0,1.7,0.2,2.3,0.5c0.6,0.3,1.1,0.7,1.4,1.3
			c0.3,0.5,0.6,1.2,0.7,1.9c0.1,0.7,0.2,1.5,0.2,2.3V260z"/>
		<path class="st0" d="M240.9,259.8c0,0.2,0,0.3-0.1,0.4s-0.2,0.1-0.4,0.2c-0.4,0.1-0.8,0.2-1.4,0.3c-0.6,0.1-1.3,0.1-2,0.1
			c-1.8,0-3.3-0.6-4.4-1.7s-1.7-2.8-1.7-4.9V252c0-2.1,0.6-3.8,1.7-4.9c1.1-1.1,2.6-1.7,4.4-1.7c0.8,0,1.5,0,2,0.1s1.1,0.2,1.4,0.3
			c0.2,0.1,0.3,0.1,0.4,0.2s0.1,0.2,0.1,0.4v2.3c0,0.1,0,0.2-0.1,0.3c-0.1,0.1-0.2,0.1-0.4,0.1h-0.1c-0.5-0.1-1-0.1-1.4-0.1
			s-1-0.1-1.8-0.1c-0.3,0-0.6,0-0.8,0.1c-0.3,0.1-0.5,0.3-0.7,0.5c-0.2,0.2-0.3,0.5-0.5,0.9c-0.1,0.4-0.2,0.9-0.2,1.4v2.2
			c0,0.6,0.1,1.1,0.2,1.4c0.1,0.4,0.3,0.7,0.5,0.9c0.2,0.2,0.4,0.4,0.7,0.5c0.3,0.1,0.5,0.1,0.8,0.1c0.7,0,1.3,0,1.8-0.1
			c0.4,0,0.9-0.1,1.4-0.1h0.1c0.1,0,0.3,0,0.4,0.1c0.1,0.1,0.1,0.2,0.1,0.3V259.8z"/>
		<path class="st0" d="M255.6,253.8c0,0.4-0.2,0.6-0.5,0.6h-8.3v0.1c0,0.4,0,0.7,0.1,1.1c0.1,0.3,0.2,0.6,0.4,0.9s0.5,0.5,0.8,0.6
			c0.3,0.2,0.8,0.2,1.3,0.2c0.4,0,0.9,0,1.3,0c0.5,0,0.9,0,1.4-0.1c0.5,0,0.9,0,1.3-0.1c0.4,0,0.7-0.1,1-0.1h0.1
			c0.3,0,0.5,0.1,0.5,0.4v2c0,0.2,0,0.4-0.1,0.5c-0.1,0.1-0.2,0.2-0.4,0.2c-0.8,0.2-1.6,0.4-2.4,0.5c-0.8,0.1-1.8,0.2-2.9,0.2
			c-0.8,0-1.6-0.1-2.3-0.3c-0.8-0.2-1.5-0.6-2.1-1.1c-0.6-0.5-1.1-1.2-1.5-2.1c-0.4-0.9-0.6-1.9-0.6-3.2v-1.8c0-1,0.1-2,0.4-2.8
			s0.7-1.6,1.3-2.2s1.3-1,2.1-1.4c0.8-0.3,1.7-0.5,2.8-0.5c1.1,0,2,0.2,2.8,0.5c0.8,0.3,1.5,0.8,2,1.4c0.5,0.6,0.9,1.3,1.2,2.2
			c0.3,0.8,0.4,1.7,0.4,2.7V253.8z M251.5,251.7c0-1-0.2-1.7-0.6-2.2c-0.4-0.5-1-0.7-1.7-0.7c-0.7,0-1.3,0.2-1.7,0.7
			c-0.4,0.5-0.7,1.2-0.7,2.2v0.1h4.7V251.7z"/>
	</g>
	<g>
		<path class="st0" d="M151.6,125.2h-27.4c-0.4,0-0.8,0.4-0.8,0.8v6.4c0,2.9,2.4,5.3,5.3,5.3h1l1.5,4.5c0.6,1.8,2.3,3,4.2,3h5.2
			c1.9,0,3.6-1.2,4.2-3l1.5-4.5h1c2.9,0,5.3-2.4,5.3-5.3V126C152.4,125.5,152,125.2,151.6,125.2z"/>
		<path class="st0" d="M158.3,104.8c6.5-5.7,10.2-14,10.3-22.6c0.1-8.3-3.1-16.1-8.9-22c-5.8-5.9-13.6-9.1-21.8-9.1h-0.1
			c-8.2,0-15.9,3.2-21.7,9c-5.8,5.8-9,13.5-9,21.7c0,8.8,3.8,17.1,10.3,23c3.8,3.3,5.9,8.1,5.9,13c0,0.2,0.1,0.4,0.2,0.6
			c0.1,0.1,0.4,0.2,0.6,0.2l27.4,0c0.4,0,0.8-0.4,0.8-0.8C152.4,112.9,154.5,108.1,158.3,104.8z M125.9,90.5
			c-0.4,0.3-0.9,0.4-1.3,0.4c-0.8,0-1.6-0.4-2-1.1c-0.7-1.1-0.4-2.6,0.7-3.4l11.3-7.6l-11.3-7.6c-1.1-0.7-1.4-2.2-0.7-3.4
			c0.7-1.1,2.2-1.4,3.4-0.7l12.3,8.2c1.1,0.7,1.8,2,1.8,3.4c0,1.4-0.7,2.6-1.8,3.4L125.9,90.5z M154.4,82.3L142,90.5
			c-0.4,0.3-0.9,0.4-1.3,0.4c-0.8,0-1.5-0.4-2-1.1c-0.7-1.1-0.4-2.6,0.7-3.4l11.3-7.6l-11.3-7.6c-1.1-0.7-1.4-2.2-0.7-3.4
			c0.7-1.1,2.2-1.4,3.4-0.7l12.3,8.2c1.1,0.7,1.8,2,1.8,3.4C156.2,80.3,155.5,81.6,154.4,82.3z"/>
		<path class="st0" d="M111.5,146.7c-0.4-0.3-1-0.4-1.5-0.2l-7.2,3.1c-0.5,0.2-0.5,0.6-0.2,0.9c0,0,0.6,0.5,1.3,1.1
			c1.8,1.4,4.7,3.2,4.7,3.2c0.4,0.3,1.1,0.4,1.6,0.2c0,0,3.3-0.8,5.4-1.7c0.8-0.3,1.6-0.6,1.6-0.6c0.5-0.2,0.5-0.6,0.1-0.9
			L111.5,146.7z"/>
		<path class="st0" d="M112.9,134.1c-0.4-0.3-1-0.2-1.3,0.1l-5.8,6c-0.4,0.3-0.3,0.8,0.1,1.1c0,0,0.5,0.3,1.1,0.7
			c2,1.2,5.2,2.7,5.2,2.7c0.4,0.2,1.1,0.1,1.5-0.2l6-5c0.4-0.3,0.3-0.8-0.1-1.1L112.9,134.1z"/>
		<path class="st0" d="M197.7,71.6l-10.2-1.9c-0.9-0.2-1.6-0.8-1.9-1.7c-0.9-3-2.1-5.9-3.6-8.7c-0.4-0.8-0.4-1.8,0.1-2.5l5.9-8.6
			c1.1-1.6,0.9-3.8-0.5-5.2l-10.1-10.1c-1.4-1.4-3.5-1.6-5.2-0.5l-8.6,5.9c-0.8,0.5-1.7,0.6-2.5,0.1c-2.8-1.5-5.7-2.7-8.7-3.6
			c-0.9-0.3-1.5-1-1.7-1.9l-1.9-10.2c-0.4-1.9-2-3.3-4-3.3h-14.2c-2,0-3.6,1.4-4,3.3l-1.9,10.2c-0.2,0.9-0.8,1.6-1.7,1.9
			c-3,0.9-5.9,2.1-8.7,3.6c-0.8,0.4-1.8,0.4-2.5-0.1l-8.6-5.9c-1.6-1.1-3.8-0.9-5.2,0.5L88.2,43.1c-1.4,1.4-1.6,3.5-0.5,5.2l5.9,8.6
			c0.5,0.8,0.6,1.7,0.1,2.5c-1.5,2.8-2.7,5.7-3.6,8.7c-0.3,0.9-1,1.5-1.9,1.7L78,71.6c-1.9,0.4-3.3,2-3.3,4v14.2c0,2,1.4,3.6,3.3,4
			l10.2,1.9c0.9,0.2,1.6,0.8,1.9,1.7c0.9,3,2.1,5.9,3.6,8.7c0.4,0.8,0.4,1.8-0.1,2.5l-5.9,8.6c-1.1,1.6-0.9,3.8,0.5,5.2l8.7,8.7
			l-5,0.3c-0.5,0-0.8,0.4-0.6,0.9l2.7,7.3c0.2,0.5,0.7,0.8,1.2,0.9c0,0,3.5,0.2,5.8,0.2c0.7,0,1.3,0,1.3,0c0.5,0,0.8-0.4,0.6-0.9
			l-1.6-6.2c0.7-0.1,1.4-0.2,2-0.6l4.2-2.9l0.7,2.8c0.1,0.5,0.7,0.8,1.1,0.8c0,0,4.2-0.3,6.9-0.7c0.5-0.1,0.6-0.1,0.6-0.1
			c0.5-0.1,0.8-0.5,0.7-1l-1.2-7.6c-0.6-5.8-1.7-13.3-3.3-14.7c-7.9-7-12.5-17.1-12.5-27.7c0-9.9,3.8-19.2,10.8-26.2
			c7-7,16.3-10.9,26.2-10.9h0.1c10,0,19.3,3.9,26.3,11c7.1,7.1,10.9,16.6,10.7,26.5c-0.1,10.4-4.7,20.3-12.5,27.3
			c-1.6,1.4-2.7,9.2-3.3,15l-3.6,0.3c-0.5,0-0.8,0.4-0.6,0.9l3,7.2c0.2,0.4,0.8,0.8,1.3,0.8c0,0,3.5,0.1,5.9,0
			c0.7,0,1.3-0.1,1.3-0.1c0.5,0,0.8-0.4,0.6-0.9l-1.4-4.7l5.5,3.8c-0.3,1.1-0.7,2.3-1,3.4c-0.2,0.7-0.3,1.3-0.3,1.3
			c-0.1,0.5,0.2,0.9,0.7,0.8l8.3,0c0.5,0,1-0.4,1-0.8l1.6-7.8c0-0.1,0-0.2-0.1-0.3l6.2-6.2c1.4-1.4,1.6-3.5,0.5-5.2l-5.9-8.6
			c-0.5-0.8-0.6-1.7-0.1-2.5c1.5-2.8,2.7-5.7,3.6-8.7c0.3-0.9,1-1.5,1.9-1.7l10.2-1.9c1.9-0.4,3.3-2,3.3-4V75.6
			C201,73.7,199.6,72,197.7,71.6z"/>
		<path class="st0" d="M180.5,144.1c0-0.5-0.4-0.7-0.8-0.4l-6.7,4c-0.4,0.2-0.7,0.8-0.7,1.3l0.7,7.8c0,0.5,0.4,0.7,0.8,0.4
			c0,0,0.7-0.4,1.4-0.9c1.9-1.3,4.5-3.4,4.5-3.4c0.4-0.3,0.7-1,0.7-1.5c0,0,0.2-3.4,0.2-5.7C180.6,144.9,180.5,144.1,180.5,144.1z"
			/>
		<path class="st0" d="M172.7,144.7l-4-6.9c-0.2-0.4-0.8-0.6-1.3-0.5l-7.9,2.7c-0.5,0.1-0.6,0.6-0.4,1c0,0,0.3,0.5,0.7,1.1
			c1.3,2,3.4,4.8,3.4,4.8c0.3,0.4,0.9,0.6,1.4,0.6l7.6-1.7C172.7,145.6,172.9,145.1,172.7,144.7z"/>
	</g>
</g>
</svg>
